<svg width="30" height="29" viewBox="0 0 30 29" fill="none" xmlns="http://www.w3.org/2000/svg">
<path fill-rule="evenodd" clip-rule="evenodd" d="M30 0H0V28.7197H30V0ZM4.50888 24.4141L5.97836 19.4177C5.0334 17.8808 4.53586 16.1322 4.53586 14.3359C4.53586 8.80506 9.23614 4.30538 15.0136 4.30538C20.791 4.30538 25.4912 8.80506 25.4912 14.3359C25.4912 19.8668 20.791 24.3665 15.0136 24.3665C13.2134 24.3665 11.4506 23.9253 9.8912 23.0877L4.50888 24.4141ZM10.1664 21.2629L10.4871 21.4503C11.8467 22.2449 13.412 22.665 15.0136 22.665C19.8109 22.665 23.7138 18.9286 23.7138 14.3359C23.7138 9.74329 19.8109 6.00689 15.0136 6.00689C10.2162 6.00689 6.31323 9.74329 6.31323 14.3359C6.31323 15.9362 6.78831 17.4902 7.687 18.8299L7.90298 19.1518L7.05676 22.0292L10.1664 21.2629ZM11.3904 9.632L12.0702 9.66748C12.2041 9.67448 12.3222 9.75363 12.375 9.87173L13.3654 12.0901C13.4183 12.2085 13.3961 12.3456 13.308 12.4431L12.4459 13.3978C12.3761 13.4753 12.3638 13.5855 12.4131 13.6763C13.5485 15.7701 15.6177 16.5997 16.2355 16.8075C16.3408 16.843 16.4574 16.8094 16.5256 16.7249L17.4276 15.6054C17.5279 15.4809 17.7048 15.4393 17.854 15.5051L20.1517 16.519C20.3014 16.5851 20.3832 16.7416 20.3487 16.8959L20.2402 17.3813C20.1178 17.9289 19.778 18.4133 19.2852 18.7151C18.6629 19.0962 17.8564 19.2833 16.8311 19.0058C13.6494 18.1445 11.8501 16.1279 10.8846 14.8675C9.9191 13.6071 9.54605 12.3467 9.78745 11.3174C9.94932 10.6271 10.4763 10.0974 10.8059 9.82339C10.9674 9.68916 11.1768 9.62085 11.3904 9.632Z" fill="#88A590"/>
</svg>
