<svg width="47" height="44" viewBox="0 0 47 44" fill="none" xmlns="http://www.w3.org/2000/svg">
<path d="M44.86 4.83449H44.8547L44.8423 4.82847C44.8314 4.82321 44.8201 4.82321 44.8084 4.81832C44.5215 4.68822 44.2102 4.62054 43.8951 4.62054H40.0446V1.54018C40.0446 0.689621 39.355 0 38.5045 0H35.4241C34.5735 0 33.8839 0.689621 33.8839 1.54018V4.62054H12.3214V1.54018C12.3214 0.689621 11.6318 0 10.7812 0H7.70089C6.85034 0 6.16071 0.689621 6.16071 1.54018V4.62054H2.31027C1.03443 4.62054 0 5.65497 0 6.9308V19.2522C0 20.5281 1.03443 21.5625 2.31027 21.5625H6.16071V36.9643H4.62054C3.76998 36.9643 3.08036 37.6539 3.08036 38.5045V41.5848C3.08036 42.4354 3.76998 43.125 4.62054 43.125H13.8616C14.7122 43.125 15.4018 42.4354 15.4018 41.5848V38.5045C15.4018 37.6539 14.7122 36.9643 13.8616 36.9643H12.3214V21.5625H33.8839V36.9643H32.3438C31.4932 36.9643 30.8036 37.6539 30.8036 38.5045V41.5848C30.8036 42.4354 31.4932 43.125 32.3438 43.125H41.5848C42.4354 43.125 43.125 42.4354 43.125 41.5848V38.5045C43.125 37.6539 42.4354 36.9643 41.5848 36.9643H40.0446V21.5625H43.8951C45.1709 21.5625 46.2054 20.5281 46.2054 19.2522V6.9308C46.2042 6.02948 45.6789 5.21126 44.86 4.83449ZM22.6515 20.0223L36.5131 6.16071H42.8061L28.9445 20.0223H22.6515ZM35.4241 1.54018H38.5045V4.62054H35.4241V1.54018ZM11.2325 20.0223H5.70949L19.5711 6.16071H25.0941L11.2325 20.0223ZM7.70089 1.54018H10.7812V4.62054H7.70089V1.54018ZM2.31027 6.16071H8.15212L1.54018 12.7727V6.9308C1.54018 6.50552 1.88499 6.16071 2.31027 6.16071ZM2.31027 20.0223C1.88499 20.0223 1.54018 19.6775 1.54018 19.2522V14.9506L10.33 6.16071H17.3932L3.53158 20.0223H2.31027ZM13.8616 41.5848H4.62054V38.5045H13.8616V41.5848ZM7.70089 36.9643V21.5625H10.7812V36.9643H7.70089ZM13.4104 20.0223L27.272 6.16071H34.3352L20.4735 20.0223H13.4104ZM44.5697 6.57509C44.5851 6.60404 44.5986 6.63375 44.6107 6.66421C44.6197 6.68451 44.628 6.70557 44.6351 6.72662C44.6546 6.79318 44.6644 6.86162 44.6652 6.9308V13.5427L38.1856 20.0223H31.1224L44.5697 6.57509ZM41.5848 41.5848H32.3438V38.5045H41.5848V41.5848ZM38.5045 36.9643H35.4241V21.5625H38.5045V36.9643ZM43.8951 20.0223H40.3635L44.6652 15.7207V19.2522C44.6652 19.6775 44.3204 20.0223 43.8951 20.0223Z" fill="#00922E"/>
</svg>
