<svg width="33" height="36" viewBox="0 0 33 36" fill="none" xmlns="http://www.w3.org/2000/svg">
<path d="M22.5004 13.2H7.50039C7.16919 13.2 6.90039 13.4682 6.90039 13.8C6.90039 14.1318 7.16919 14.4 7.50039 14.4H22.5004C22.8316 14.4 23.1004 14.1318 23.1004 13.8C23.1004 13.4682 22.8316 13.2 22.5004 13.2Z" fill="#00922E"/>
<path d="M7.50039 9.60003H13.5004C13.8316 9.60003 14.1004 9.33183 14.1004 9.00002C14.1004 8.66822 13.8316 8.40002 13.5004 8.40002H7.50039C7.16919 8.40002 6.90039 8.66822 6.90039 9.00002C6.90039 9.33183 7.16919 9.60003 7.50039 9.60003Z" fill="#00922E"/>
<path d="M22.5004 18H7.50039C7.16919 18 6.90039 18.2682 6.90039 18.6C6.90039 18.9318 7.16919 19.2 7.50039 19.2H22.5004C22.8316 19.2 23.1004 18.9318 23.1004 18.6C23.1004 18.2682 22.8316 18 22.5004 18Z" fill="#00922E"/>
<path d="M22.5004 22.8H7.50039C7.16919 22.8 6.90039 23.0682 6.90039 23.4C6.90039 23.7318 7.16919 24 7.50039 24H22.5004C22.8316 24 23.1004 23.7318 23.1004 23.4C23.1004 23.0682 22.8316 22.8 22.5004 22.8Z" fill="#00922E"/>
<path d="M22.5004 27.6H7.50039C7.16919 27.6 6.90039 27.8682 6.90039 28.2C6.90039 28.5318 7.16919 28.8 7.50039 28.8H22.5004C22.8316 28.8 23.1004 28.5318 23.1004 28.2C23.1004 27.8682 22.8316 27.6 22.5004 27.6Z" fill="#00922E"/>
<path d="M20.3488 0H0.900391V36H29.1004V8.7516L20.3488 0ZM20.7004 2.0484L27.052 8.4H20.7004V2.0484ZM2.10039 34.8V1.2H19.5004V9.6H27.9004V34.8H2.10039Z" fill="#00922E"/>
</svg>
