<svg width="29" height="37" viewBox="0 0 29 37" fill="none" xmlns="http://www.w3.org/2000/svg">
<path d="M23.5638 15.1042H8.45964C8.12614 15.1042 7.85547 15.3742 7.85547 15.7084C7.85547 16.0425 8.12614 16.3125 8.45964 16.3125H23.5638C23.8973 16.3125 24.168 16.0425 24.168 15.7084C24.168 15.3742 23.8973 15.1042 23.5638 15.1042Z" fill="#00922E"/>
<path d="M8.45964 11.4792H14.5013C14.8348 11.4792 15.1055 11.2091 15.1055 10.875C15.1055 10.5409 14.8348 10.2709 14.5013 10.2709H8.45964C8.12614 10.2709 7.85547 10.5409 7.85547 10.875C7.85547 11.2091 8.12614 11.4792 8.45964 11.4792Z" fill="#00922E"/>
<path d="M23.5638 19.9375H8.45964C8.12614 19.9375 7.85547 20.2076 7.85547 20.5417C7.85547 20.8758 8.12614 21.1458 8.45964 21.1458H23.5638C23.8973 21.1458 24.168 20.8758 24.168 20.5417C24.168 20.2076 23.8973 19.9375 23.5638 19.9375Z" fill="#00922E"/>
<path d="M23.5638 24.7708H8.45964C8.12614 24.7708 7.85547 25.0409 7.85547 25.375C7.85547 25.7091 8.12614 25.9791 8.45964 25.9791H23.5638C23.8973 25.9791 24.168 25.7091 24.168 25.375C24.168 25.0409 23.8973 24.7708 23.5638 24.7708Z" fill="#00922E"/>
<path d="M23.5638 29.6042H8.45964C8.12614 29.6042 7.85547 29.8742 7.85547 30.2084C7.85547 30.5425 8.12614 30.8125 8.45964 30.8125H23.5638C23.8973 30.8125 24.168 30.5425 24.168 30.2084C24.168 29.8742 23.8973 29.6042 23.5638 29.6042Z" fill="#00922E"/>
<path d="M25.9792 8.81238V0H0V33.2292H3.02083V36.25H29V11.8332L25.9792 8.81238ZM20.5417 5.08346L25.9792 10.521L26.9374 11.4792H20.5417V5.08346ZM1.20833 32.0208V1.20833H24.7708V7.60404L20.1876 3.02083H3.02083V32.0208H1.20833ZM4.22917 35.0417V33.2292V4.22917H19.3333V12.6875H27.7917V35.0417H4.22917Z" fill="#00922E"/>
</svg>
