<svg width="21" height="22" viewBox="0 0 21 22" fill="none" xmlns="http://www.w3.org/2000/svg">
<path d="M10.7648 11.7021L20.4098 11.7021C20.7377 11.7021 21 11.4398 21 11.1119C21 10.784 20.7377 10.5216 20.4098 10.5216L10.7648 10.5216C10.4894 9.15314 9.27827 8.11694 7.82672 8.11694C6.37516 8.11694 5.16408 9.15314 4.88863 10.5216L0.595184 10.5216C0.267273 10.5216 0.00494373 10.784 0.00494372 11.1119C0.0049437 11.4398 0.267273 11.7021 0.595184 11.7021L4.88863 11.7021C5.16408 13.0706 6.37516 14.1068 7.82672 14.1068C9.2739 14.1068 10.4894 13.075 10.7648 11.7021ZM6.01228 11.1119C6.01228 10.1106 6.8255 9.29742 7.82672 9.29742C8.82794 9.29742 9.64116 10.1106 9.64116 11.1119C9.64116 12.1131 8.82794 12.9263 7.82672 12.9263C6.8255 12.9263 6.01228 12.1131 6.01228 11.1119Z" fill="#00922E"/>
<path d="M15.7141 4.4753L20.4098 4.4753C20.7377 4.4753 21 4.21297 21 3.88506C21 3.55715 20.7377 3.29482 20.4098 3.29482L15.7141 3.29482C15.4386 1.92634 14.2275 0.890136 12.776 0.890136C11.3244 0.890136 10.1134 1.92634 9.83791 3.29482L0.595184 3.29482C0.267273 3.29482 0.00494373 3.55715 0.00494372 3.88506C0.0049437 4.21297 0.267273 4.4753 0.595184 4.4753L9.84228 4.4753C10.1177 5.84378 11.3288 6.87998 12.7804 6.87998C14.2319 6.87998 15.4386 5.84378 15.7141 4.4753ZM10.9615 3.88506C10.9615 2.88384 11.7748 2.07062 12.776 2.07062C13.7772 2.07062 14.5904 2.88384 14.5904 3.88506C14.5904 4.88628 13.7772 5.6995 12.776 5.6995C11.7748 5.6995 10.9615 4.88191 10.9615 3.88506Z" fill="#00922E"/>
<path d="M15.7141 18.8859L20.4098 18.8859C20.7377 18.8859 21 18.6236 21 18.2957C21 17.9678 20.7377 17.7055 20.4098 17.7055L15.7141 17.7055C15.4386 16.337 14.2275 15.3008 12.776 15.3008C11.3244 15.3008 10.1133 16.337 9.8379 17.7055L0.590811 17.7055C0.262899 17.7055 0.000570181 17.9678 0.000570166 18.2957C0.000570152 18.6236 0.262899 18.8859 0.590811 18.8859L9.84228 18.8859C10.1177 20.2544 11.3288 21.2906 12.7804 21.2906C14.2319 21.2906 15.4386 20.2588 15.7141 18.8859ZM10.9615 18.2957C10.9615 17.2945 11.7748 16.4813 12.776 16.4813C13.7772 16.4813 14.5904 17.2945 14.5904 18.2957C14.5904 19.2969 13.7772 20.1101 12.776 20.1101C11.7748 20.1101 10.9615 19.2969 10.9615 18.2957Z" fill="#00922E"/>
</svg>
