<svg width="35" height="35" viewBox="0 0 35 35" fill="none" xmlns="http://www.w3.org/2000/svg">
<path d="M24.2768 18.5111C23.9321 18.1664 23.4739 17.9766 22.9865 17.9766C22.8683 17.9766 22.7519 17.9882 22.6383 18.01L14.6104 9.98219L16.1661 8.42656C16.4153 8.17734 16.4153 7.77335 16.1661 7.52414L15.7724 7.13044L21.6784 1.22443C21.8553 1.04754 21.9124 0.783597 21.8247 0.54927C21.7369 0.315027 21.5204 0.153618 21.2707 0.136516C17.8817 -0.0955146 14.56 1.12309 12.1252 3.48322L11.7297 3.08773C11.6101 2.9681 11.4478 2.9008 11.2785 2.9008C11.1093 2.9008 10.9469 2.96802 10.8273 3.08773L4.48966 9.42539C4.24045 9.67461 4.24045 10.0786 4.48966 10.3278L5.10016 10.9383L3.98161 12.0569L3.37112 11.4464C3.1219 11.1971 2.71783 11.1971 2.46869 11.4464L0.186935 13.7281C0.0672182 13.8478 0 14.0102 0 14.1794C0 14.3487 0.0672182 14.511 0.186935 14.6306L4.62333 19.0669C4.7479 19.1916 4.91127 19.2539 5.07455 19.2539C5.23783 19.2539 5.40119 19.1916 5.52576 19.0669L7.80744 16.7853C7.92715 16.6656 7.99437 16.5033 7.99437 16.3341C7.99437 16.1648 7.92715 16.0025 7.80744 15.8828L7.19669 15.2721L8.31523 14.1536L8.92598 14.7643C9.04561 14.8839 9.20796 14.9512 9.37719 14.9512C9.54643 14.9512 9.70877 14.884 9.8284 14.7643L11.384 13.2087L19.4124 21.2371C19.3017 21.8122 19.4684 22.4307 19.9128 22.8751L29.4337 32.3958C29.7783 32.7405 30.2366 32.9303 30.724 32.9303C31.2114 32.9303 31.6697 32.7405 32.0144 32.3958L33.7976 30.6126C34.509 29.9011 34.509 28.7434 33.7976 28.0318L24.2768 18.5111ZM19.6855 1.4123L14.8699 6.22802L13.0274 4.38547C14.8401 2.63491 17.1997 1.59081 19.6855 1.4123ZM5.07455 17.7132L1.54066 14.1793L2.91991 12.8001L6.4538 16.334L5.07455 17.7132ZM6.29426 14.3696L4.88412 12.9594L6.00267 11.8409L7.4128 13.251L6.29426 14.3696ZM9.37719 13.4106L5.8433 9.87669L11.2784 4.44154L14.8123 7.97543L9.37719 13.4106ZM13.708 10.8847L21.5153 18.6919L20.0938 20.1133L12.2865 12.3062L13.708 10.8847ZM32.895 29.7101L31.1118 31.4933C31.0082 31.5969 30.8705 31.6539 30.7239 31.6539C30.5774 31.6539 30.4396 31.5968 30.336 31.4933L20.8154 21.9726C20.6017 21.7588 20.6016 21.4111 20.815 21.1972L22.5991 19.4131C22.7026 19.3098 22.8401 19.2529 22.9865 19.2529C23.133 19.2529 23.2708 19.31 23.3744 19.4135L32.8951 28.9342C33.109 29.1481 33.109 29.4962 32.895 29.7101Z" fill="#00922E"/>
<path d="M21.1439 14.4825C20.8947 14.7317 20.8947 15.1358 21.1439 15.385C21.3932 15.6342 21.7972 15.6342 22.0465 15.385L23.4095 14.0219C25.0271 12.4043 25.8128 10.2047 25.5652 7.98709C25.4168 6.65829 25.9293 5.33648 26.9362 4.45124C27.2251 4.19717 27.5481 3.98701 27.8953 3.82551L27.3709 5.50648C27.1537 6.20248 27.2206 6.94137 27.5593 7.58709C27.8978 8.23282 28.4677 8.70794 29.1637 8.92508C30.6003 9.3734 32.1339 8.56899 32.5823 7.13222L33.124 5.39561C33.5033 6.01291 33.7114 6.72236 33.7232 7.46695C33.7408 8.58422 33.3155 9.63461 32.5256 10.4246C32.0615 10.8885 31.5119 11.225 30.8919 11.4246C29.7368 11.7964 28.6845 12.4345 27.8489 13.2702L24.5143 16.6048C24.2651 16.854 24.2651 17.258 24.5143 17.5072C24.6389 17.6319 24.8023 17.6942 24.9656 17.6942C25.1289 17.6942 25.2922 17.6319 25.4169 17.5072L28.7515 14.1726C29.4445 13.4796 30.3198 12.9494 31.2829 12.6394C32.0862 12.3809 32.828 11.927 33.4281 11.327C34.4645 10.2905 35.0225 8.91249 34.9994 7.4467C34.9763 5.98092 34.3738 4.62005 33.3029 3.61458C33.1426 3.46415 32.9162 3.40672 32.7038 3.4627C32.4912 3.51861 32.3224 3.68001 32.2569 3.88984L31.364 6.75206C31.1253 7.51698 30.3086 7.94522 29.5438 7.70664C29.1733 7.59101 28.8699 7.33805 28.6897 6.9943C28.5094 6.65046 28.4737 6.25711 28.5893 5.88656L29.472 3.0571C29.5378 2.84591 29.4897 2.61567 29.3446 2.44864C29.1997 2.28153 28.9779 2.20164 28.7602 2.2372C27.7654 2.39929 26.8434 2.83349 26.0935 3.49265C24.7738 4.65289 24.1022 6.38602 24.2967 8.12867C24.5011 9.95862 23.8488 11.7776 22.507 13.1194L21.1439 14.4825Z" fill="#00922E"/>
<path d="M18.0201 23.0984C16.4026 24.7159 15.6169 26.9154 15.8645 29.1332C16.0129 30.4619 15.5003 31.7837 14.4934 32.6691C14.2045 32.9231 13.8814 33.1333 13.5344 33.2948L14.0588 31.6138C14.2759 30.9178 14.2091 30.1789 13.8704 29.5332C13.5318 28.8875 12.9619 28.4124 12.2659 28.1952C11.5698 27.9781 10.831 28.045 10.1853 28.3836C9.5396 28.7222 9.06448 29.2921 8.84734 29.988L8.30559 31.7246C7.92619 31.1072 7.71816 30.3979 7.70641 29.6532C7.6888 28.5359 8.11415 27.4855 8.90409 26.6956C9.36807 26.2316 9.91772 25.8952 10.5378 25.6956C11.6929 25.3239 12.7451 24.6857 13.5807 23.85L16.9687 20.4619C17.218 20.2127 17.218 19.8086 16.9687 19.5595C16.7195 19.3103 16.3154 19.3103 16.0663 19.5595L12.6783 22.9476C11.9852 23.6406 11.1099 24.1708 10.1469 24.4808C9.34356 24.7394 8.60169 25.1932 8.00175 25.7932C6.96531 26.8297 6.40732 28.2076 6.43037 29.6734C6.45343 31.1392 7.05601 32.5002 8.12691 33.5056C8.28713 33.6561 8.51371 33.7135 8.72609 33.6575C8.93863 33.6016 9.10745 33.4402 9.17288 33.2304L10.0658 30.3682C10.1813 29.9976 10.4344 29.6943 10.7781 29.514C11.1219 29.3337 11.5153 29.298 11.8859 29.4137C12.2565 29.5293 12.5599 29.7823 12.7402 30.126C12.9205 30.4698 12.9562 30.8632 12.8405 31.2337L11.9578 34.0632C11.892 34.2744 11.9401 34.5046 12.0851 34.6717C12.2074 34.8125 12.3838 34.8914 12.567 34.8914C12.6011 34.8914 12.6354 34.8887 12.6697 34.8831C13.6643 34.721 14.5865 34.2868 15.3363 33.6276C16.656 32.4673 17.3276 30.7343 17.133 28.9917C16.9288 27.1618 17.5811 25.3427 18.9228 24.001C19.172 23.7518 19.172 23.3478 18.9228 23.0986C18.6734 22.8492 18.2694 22.8492 18.0201 23.0984Z" fill="#00922E"/>
</svg>
