<svg width="30" height="29" viewBox="0 0 30 29" fill="none" xmlns="http://www.w3.org/2000/svg">
<path fill-rule="evenodd" clip-rule="evenodd" d="M20.145 6.5835H9.85544C8.21327 6.5835 6.87695 7.86274 6.87695 9.43495V19.2856C6.87695 20.858 8.21327 22.1374 9.85544 22.1374H20.145C21.7875 22.1374 23.1238 20.858 23.1238 19.2856V9.43495C23.1238 7.86282 21.7875 6.5835 20.145 6.5835ZM15 19.4806C12.0512 19.4806 9.65179 17.1835 9.65179 14.3601C9.65179 11.5371 12.0512 9.23998 15 9.23998C17.9492 9.23998 20.3486 11.5371 20.3486 14.3601C20.3486 17.1835 17.9492 19.4806 15 19.4806ZM20.5207 10.2988C19.8225 10.2988 19.2548 9.75529 19.2548 9.0873C19.2548 8.41924 19.8225 7.87576 20.5207 7.87576C21.2184 7.87576 21.7861 8.41924 21.7861 9.0873C21.7861 9.75537 21.2184 10.2988 20.5207 10.2988Z" fill="#88A590"/>
<path fill-rule="evenodd" clip-rule="evenodd" d="M14.9997 11.4038C13.2974 11.4038 11.9111 12.7303 11.9111 14.36C11.9111 15.9904 13.2974 17.3172 14.9997 17.3172C16.7027 17.3172 18.088 15.9904 18.088 14.36C18.088 12.7303 16.7027 11.4038 14.9997 11.4038Z" fill="#88A590"/>
<path fill-rule="evenodd" clip-rule="evenodd" d="M0 0V28.7205H30V0H0ZM25.3833 19.2856C25.3833 22.0513 23.0337 24.3007 20.1448 24.3007H9.85525C6.96659 24.3007 4.6167 22.0513 4.6167 19.2856V9.43491C4.6167 6.66946 6.96659 4.41979 9.85525 4.41979H20.1448C23.0337 4.41979 25.3833 6.66946 25.3833 9.43491V19.2856Z" fill="#88A590"/>
</svg>
