<svg width="29" height="29" viewBox="0 0 29 29" fill="none" xmlns="http://www.w3.org/2000/svg">
<g clip-path="url(#clip0)">
<path d="M23.5734 9.49098C23.4932 9.32489 23.3257 9.21977 23.1414 9.21977H16.2194L20.2147 0.784835C20.2852 0.636029 20.2747 0.461781 20.1863 0.322575C20.099 0.183849 19.9459 0.0993652 19.7812 0.0993652H10.1808C9.94941 0.0993652 9.75068 0.264492 9.70892 0.492023L7.30881 13.4526C7.28289 13.5928 7.32033 13.7372 7.41202 13.8467C7.50274 13.9566 7.63811 14.02 7.78068 14.02H13.3206L7.81284 28.2473C7.72739 28.4686 7.8162 28.7192 8.02213 28.8368C8.09653 28.88 8.17909 28.9006 8.26022 28.9006C8.40278 28.9006 8.54247 28.8373 8.63655 28.7192L23.5172 9.99836C23.6315 9.85388 23.6535 9.65707 23.5734 9.49098ZM9.84621 25.6543L14.4688 13.7132C14.5259 13.5654 14.5067 13.3993 14.4175 13.2683C14.3277 13.1382 14.1794 13.0599 14.021 13.0599H8.35766L10.5802 1.05941H19.0228L15.0276 9.49434C14.957 9.64314 14.9676 9.81739 15.0559 9.9566C15.1432 10.0953 15.2964 10.1798 15.461 10.1798H22.1468L9.84621 25.6543Z" fill="#00922E"/>
<path d="M4.89982 14.02H0.0996094V14.98H4.89982V14.02Z" fill="#00922E"/>
<path d="M28.9018 14.02H24.1016V14.98H28.9018V14.02Z" fill="#00922E"/>
<path d="M28.3208 0.240558L24.9609 3.60046L25.6398 4.27931L28.9997 0.919404L28.3208 0.240558Z" fill="#00922E"/>
<path d="M3.36186 24.2409L0.00195312 27.6008L0.680799 28.2797L4.04071 24.9198L3.36186 24.2409Z" fill="#00922E"/>
<path d="M25.6398 24.7211L24.9609 25.4L28.3208 28.7599L28.9997 28.081L25.6398 24.7211Z" fill="#00922E"/>
<path d="M0.678846 0.239611L0 0.918457L3.3599 4.27836L4.03875 3.59952L0.678846 0.239611Z" fill="#00922E"/>
</g>
<defs>
<clipPath id="clip0">
<rect width="29" height="29" fill="white"/>
</clipPath>
</defs>
</svg>
