<svg width="21" height="22" viewBox="0 0 21 22" fill="none" xmlns="http://www.w3.org/2000/svg">
<path d="M20.8781 5.95547L15.2027 0.128906C15.12 0.0472656 15.0112 0 14.8937 0H6.43275C5.48394 0 4.71358 0.760547 4.71358 1.69297V7.61406H1.28394C0.574508 7.61406 0 8.18555 0 8.88164V15.2281C0 15.9328 0.574508 16.5 1.28394 16.5H4.71358V20.307C4.71358 21.2395 5.48394 22 6.43275 22H19.2808C20.2296 22 21 21.2395 21 20.307V6.24766C21 6.13594 20.9565 6.03281 20.8781 5.95547ZM14.9981 1.14297L19.6595 5.92539H14.9981V1.14297ZM1.28394 15.6535C1.04891 15.6535 0.857409 15.4645 0.857409 15.2324V8.88164C0.857409 8.64961 1.04891 8.46055 1.28394 8.46055H12.8568C13.0918 8.46055 13.2833 8.64961 13.2833 8.88164V15.2281C13.2833 15.4602 13.0918 15.6492 12.8568 15.6492H1.28394V15.6535ZM20.1426 20.307C20.1426 20.7711 19.7552 21.1535 19.2808 21.1535H6.43275C5.95834 21.1535 5.57098 20.7754 5.57098 20.307V16.5H12.8568C13.5662 16.5 14.1407 15.9328 14.1407 15.2324V8.88164C14.1407 8.18125 13.5662 7.61406 12.8568 7.61406H5.57098V1.69297C5.57098 1.22461 5.95834 0.842188 6.43275 0.842188H14.1451V6.34219C14.1451 6.57422 14.3366 6.76328 14.5716 6.76328H20.1426V20.307Z" fill="#00922E"/>
<path d="M5.05227 11.3222C4.97393 11.0901 4.85642 10.8925 4.69974 10.7335C4.5474 10.5745 4.36025 10.4628 4.14264 10.3983C3.9816 10.3511 3.74657 10.3296 3.44191 10.3296H2.08398V13.9647H3.48108C3.75528 13.9647 3.9729 13.939 4.13828 13.8874C4.3559 13.8187 4.52999 13.7198 4.66056 13.5995C4.83031 13.4362 4.96088 13.2214 5.05663 12.9593C5.13062 12.7444 5.16979 12.4866 5.16979 12.1858C5.16979 11.8378 5.13062 11.5542 5.05227 11.3222ZM4.32544 12.8132C4.27321 12.9765 4.21227 13.0925 4.12958 13.1655C4.05124 13.2386 3.95113 13.2858 3.82927 13.3159C3.73787 13.3374 3.58554 13.3503 3.38098 13.3503H2.82823V10.944H3.16336C3.46803 10.944 3.66823 10.9569 3.77269 10.9784C3.91196 11.0085 4.02512 11.0644 4.11652 11.1503C4.20792 11.2362 4.27756 11.3522 4.32544 11.5026C4.37766 11.653 4.39942 11.8679 4.39942 12.1515C4.40378 12.4265 4.37766 12.6499 4.32544 12.8132Z" fill="#00922E"/>
<path d="M12.1566 12.6243C12.0957 12.8907 11.9912 13.084 11.8519 13.2086C11.7083 13.3332 11.5386 13.3934 11.3427 13.3934C11.0729 13.3934 10.8553 13.2946 10.6899 13.1012C10.5245 12.9079 10.4374 12.577 10.4374 12.1215C10.4374 11.6875 10.5245 11.3739 10.6942 11.1805C10.864 10.9872 11.0859 10.8883 11.3601 10.8883C11.556 10.8883 11.7257 10.9442 11.865 11.0516C12.0043 11.159 12.0957 11.3094 12.1392 11.4985L12.8747 11.3266C12.792 11.0344 12.6658 10.811 12.4961 10.6563C12.2132 10.3942 11.8476 10.261 11.3993 10.261C10.8857 10.261 10.4679 10.4286 10.1502 10.7637C9.83246 11.0989 9.67578 11.5672 9.67578 12.1731C9.67578 12.7446 9.83246 13.1957 10.1458 13.5266C10.4592 13.8575 10.864 14.0207 11.3514 14.0207C11.7475 14.0207 12.0739 13.9262 12.3307 13.7329C12.5875 13.5395 12.7703 13.2473 12.8834 12.8477L12.1566 12.6243Z" fill="#00922E"/>
<path d="M8.73575 10.7636C8.40932 10.4327 7.97409 10.2651 7.4344 10.2651C7.13409 10.2651 6.8686 10.3124 6.64228 10.4069C6.46818 10.48 6.3115 10.5874 6.16787 10.7335C6.02425 10.8796 5.90673 11.0472 5.82404 11.2319C5.71088 11.4812 5.6543 11.7948 5.6543 12.1644C5.6543 12.7444 5.81533 13.1956 6.13741 13.5265C6.45948 13.8573 6.89471 14.0206 7.44311 14.0206C7.98279 14.0206 8.41368 13.853 8.7401 13.5222C9.06217 13.1913 9.22321 12.7315 9.22321 12.1472C9.22321 11.5585 9.05782 11.0944 8.73575 10.7636ZM8.16994 13.0796C7.97844 13.2901 7.73471 13.3976 7.43875 13.3976C7.14279 13.3976 6.89906 13.2901 6.70756 13.0796C6.51606 12.869 6.42031 12.5554 6.42031 12.1429C6.42031 11.7261 6.51606 11.4124 6.70321 11.2062C6.89036 10.9999 7.13844 10.8968 7.44311 10.8968C7.74777 10.8968 7.99585 10.9999 8.17865 11.2062C8.3658 11.4124 8.4572 11.7218 8.4572 12.1386C8.45285 12.5554 8.35709 12.869 8.16994 13.0796Z" fill="#00922E"/>
</svg>
