<svg width="36" height="36" viewBox="0 0 36 36" fill="none" xmlns="http://www.w3.org/2000/svg">
<g clip-path="url(#clip0)">
<path d="M20.4004 0.599976L20.4004 35.4C20.4004 35.7318 20.6686 36 21.0004 36L28.2004 36C28.5322 36 28.8003 35.7318 28.8003 35.4L28.8003 0.600048C28.8003 0.268242 28.5322 7.21238e-05 28.2004 7.21383e-05L21.0004 7.2453e-05C20.6686 -1.17252e-08 20.4004 0.268169 20.4004 0.599976ZM27.6004 1.20002L27.6004 34.8L21.6004 34.8L21.6004 33L22.8004 33.0006C23.1316 33.0006 23.4004 32.7324 23.4004 32.4006C23.4004 32.0695 23.1322 31.8007 22.8004 31.8007L21.6004 31.8L21.6004 29.4L24.0004 29.4C24.3322 29.4 24.6004 29.1319 24.6004 28.8001C24.6004 28.4683 24.3322 28.2001 24.0004 28.2001L21.6004 28.2001L21.6004 25.8001L22.8004 25.8001C23.1322 25.8001 23.4004 25.5319 23.4004 25.2001C23.4004 24.8683 23.1322 24.6002 22.8004 24.6002L21.6004 24.6002L21.6004 22.2002L24.0004 22.2002C24.3322 22.2002 24.6004 21.932 24.6004 21.6002C24.6004 21.2684 24.3322 21.0002 24.0004 21.0002L21.6004 21.0002L21.6004 18.6003L22.8004 18.6003C23.1322 18.6003 23.4004 18.3321 23.4004 18.0003C23.4004 17.6685 23.1322 17.4003 22.8004 17.4003L21.6004 17.4003L21.6004 15.0003L24.0004 15.0003C24.3322 15.0003 24.6004 14.7322 24.6004 14.4004C24.6004 14.0685 24.3322 13.8004 24.0004 13.8004L21.6004 13.8004L21.6004 11.4004L22.8004 11.4004C23.1322 11.4004 23.4004 11.1322 23.4004 10.8004C23.4004 10.4686 23.1322 10.2004 22.8004 10.2004L21.6004 10.2004L21.6004 7.80047L24.0004 7.80047C24.3322 7.80047 24.6004 7.5323 24.6004 7.20049C24.6004 6.86869 24.3322 6.60052 24.0004 6.60052L21.6004 6.60052L21.6004 4.19934L22.8004 4.19998C23.1316 4.19998 23.4004 3.9318 23.4004 3.6C23.4004 3.26883 23.1322 3.00002 22.8004 3.00002L21.6004 2.99939L21.6004 1.20059L27.6004 1.20059L27.6004 1.20002Z" fill="#00922E"/>
<path d="M7.19922 35.4C7.19922 35.7318 7.46739 36 7.7992 36L17.9992 36C18.331 36 18.5992 35.7318 18.5992 35.4C18.5992 35.0682 18.331 34.8 17.9992 34.8L13.1992 34.8L7.7992 34.8C7.46739 34.8 7.19922 35.0682 7.19922 35.4Z" fill="#00922E"/>
<path d="M7.19922 0.600219C7.19922 0.932023 7.46739 1.2002 7.7992 1.2002L13.1992 1.2002L17.9992 1.20019C18.331 1.20019 18.5992 0.932022 18.5992 0.600218C18.5992 0.268414 18.331 0.000243654 17.9992 0.000243669L7.7992 0.000244114C7.46739 0.000244129 7.19922 0.268415 7.19922 0.600219Z" fill="#00922E"/>
<path d="M12.8159 2.52988L9.21587 5.31566C9.02146 5.46627 8.95128 5.71349 9.03587 5.93364C9.12228 6.15386 9.34785 6.30081 9.60048 6.30081L12.6005 6.30081L12.6005 29.7009L9.59992 29.7009C9.34728 29.7009 9.12172 29.8479 9.03594 30.068C8.95016 30.2883 9.02096 30.5349 9.21594 30.686L12.8165 33.4718C12.9275 33.5576 13.0643 33.6008 13.2005 33.6008C13.3367 33.6008 13.4735 33.5577 13.5851 33.4718L17.1851 30.686C17.3243 30.578 17.4005 30.4202 17.4005 30.2582C17.4005 30.1946 17.3884 30.1304 17.3645 30.0686C17.278 29.8484 17.0525 29.7014 16.8005 29.7014L13.8005 29.7014L13.8005 6.30144L16.8005 6.30144C17.0531 6.30144 17.2787 6.15442 17.3645 5.93427C17.3884 5.87246 17.4005 5.80827 17.4005 5.74464C17.4005 5.58264 17.3242 5.42486 17.1851 5.31622L13.5851 2.53044C13.4735 2.44403 13.3373 2.40086 13.2005 2.40086C13.0636 2.40086 12.9275 2.4441 12.8159 2.52988ZM15.1433 30.815L13.2005 32.3187L11.2577 30.815L15.1433 30.815ZM15.1433 5.18671L11.2577 5.18671L13.2005 3.68307L15.1433 5.18671Z" fill="#00922E"/>
</g>
<defs>
<clipPath id="clip0">
<rect width="36" height="36" fill="white" transform="translate(0 36) rotate(-90)"/>
</clipPath>
</defs>
</svg>
