<svg width="33" height="33" viewBox="0 0 33 33" fill="none" xmlns="http://www.w3.org/2000/svg">
<path d="M16.5 0C7.40186 0 0 7.40186 0 16.5C0 25.5981 7.40186 33 16.5 33C25.5981 33 33 25.5981 33 16.5C33 7.40186 25.5981 0 16.5 0ZM16.5 31.282C8.34919 31.282 1.718 24.6508 1.718 16.5C1.718 8.34919 8.34919 1.718 16.5 1.718C24.6508 1.718 31.282 8.34919 31.282 16.5C31.282 24.6508 24.6508 31.282 16.5 31.282Z" fill="#00922E"/>
<path d="M21.833 7.41763C21.4242 7.17709 20.8976 7.3138 20.6571 7.72269C20.4166 8.13158 20.5532 8.6581 20.9622 8.89857C23.6464 10.4772 25.3139 13.3899 25.3139 16.5C25.3139 21.3594 21.3606 25.3126 16.5012 25.3126C11.6419 25.3126 7.68864 21.3592 7.68864 16.5C7.68864 13.3899 9.35604 10.4772 12.0403 8.89857C12.4493 8.65816 12.5859 8.13165 12.3454 7.72269C12.105 7.31374 11.5785 7.17729 11.1695 7.41763C7.96276 9.3036 5.9707 12.7837 5.9707 16.5C5.9707 22.3066 10.6947 27.0306 16.5013 27.0306C22.308 27.0306 27.0319 22.3066 27.0318 16.5C27.0318 12.7838 25.0397 9.3036 21.833 7.41763Z" fill="#00922E"/>
<path d="M16.4997 4.82312C16.0252 4.82312 15.6406 5.20778 15.6406 5.68215V16.5C15.6406 16.9744 16.0252 17.359 16.4997 17.359C16.9741 17.359 17.3587 16.9744 17.3587 16.5V5.68215C17.3587 5.20784 16.9741 4.82312 16.4997 4.82312Z" fill="#00922E"/>
</svg>
