<svg width="30" height="30" viewBox="0 0 30 30" fill="none" xmlns="http://www.w3.org/2000/svg">
<path d="M19.7988 14.4141C20.1224 14.4141 20.3848 14.1517 20.3848 13.8281C20.3848 13.5045 20.1224 13.2422 19.7988 13.2422C19.4752 13.2422 19.2129 13.5045 19.2129 13.8281C19.2129 14.1517 19.4752 14.4141 19.7988 14.4141Z" fill="#00922E"/>
<path d="M19.901 16.3387C19.5812 16.2912 19.283 16.5124 19.2356 16.8325C19.0754 17.9138 18.1614 18.8107 16.7905 19.2316C15.3253 19.6815 13.2914 19.5307 12.0507 18.1796C11.8318 17.9412 11.4611 17.9255 11.2228 18.1443C10.9845 18.3632 10.9687 18.7339 11.1876 18.9722C11.9058 19.7544 12.8813 20.2875 14.0087 20.5138C14.4068 20.5937 14.8197 20.6334 15.2354 20.6334C15.8775 20.6334 16.5259 20.5388 17.1345 20.3518C18.948 19.795 20.1668 18.5436 20.3948 17.0042C20.4422 16.6841 20.2211 16.3861 19.901 16.3387Z" fill="#00922E"/>
<path d="M28.0441 11.1569C26.9791 9.92227 25.5092 9.12176 23.7399 8.80025C25.4339 7.65709 26.895 6.51943 27.9368 5.52674C29.5252 4.0132 30.0578 2.94961 29.6131 2.17975C29.1182 1.32229 27.6896 1.3282 25.117 2.19855C22.9434 2.93391 20.2355 4.21107 17.4924 5.79486C17.0185 6.06838 16.5491 6.34846 16.0899 6.6307C15.7493 5.66877 15.9739 4.56996 16.7254 3.61717C17.2884 2.9035 17.414 1.99705 17.0535 1.25145C16.6756 0.46998 15.8461 0.00210937 14.8333 0H14.8058C11.2312 0 7.73488 1.41041 4.96087 3.97143C2.18341 6.53561 0.483021 9.93006 0.172943 13.5294C-0.200124 17.8642 1.1855 21.9853 4.07447 25.1336C6.9124 28.2263 10.9357 30 15.1128 30C17.3617 30 19.4728 29.5886 21.3875 28.777C23.1382 28.0349 24.693 26.9753 26.0085 25.6274C27.2283 24.3777 28.19 22.939 28.8669 21.3513C29.5111 19.8405 29.863 18.2395 29.8848 16.7214C29.9165 14.5137 29.28 12.5896 28.0441 11.1569ZM16.1584 7.96805C16.7785 7.57693 17.4244 7.18723 18.0783 6.80977C20.6145 5.34539 23.1402 4.13924 25.19 3.41344C27.4464 2.61451 28.3703 2.66666 28.5856 2.76979C28.567 2.90613 28.3977 3.51275 26.917 4.87635C25.6805 6.015 23.8749 7.35404 21.8329 8.6468C21.1874 9.05561 20.5155 9.46189 19.8361 9.85424C18.8995 10.3948 17.9636 10.9003 17.045 11.3631C16.8617 10.8282 16.6268 10.3092 16.341 9.81393C16.0639 9.33398 15.7425 8.8834 15.3832 8.4665C15.6375 8.29986 15.8962 8.13322 16.1584 7.96805ZM15.9834 11.8829C14.3289 12.6676 12.8107 13.2657 11.5984 13.6127C11.5353 13.3096 11.4243 13.0167 11.2669 12.7437C11.1176 12.485 10.9304 12.2538 10.714 12.0543C11.6216 11.1784 12.8991 10.1636 14.4033 9.12533C14.7525 9.51562 15.0621 9.94254 15.3261 10.3997C15.5991 10.8726 15.8188 11.3699 15.9834 11.8829ZM28.713 16.7046C28.6295 22.5352 23.406 28.8281 15.1128 28.8281C11.2631 28.8281 7.55453 27.1928 4.93796 24.3414C2.27353 21.4378 0.996009 17.6337 1.34054 13.63C1.93228 6.76055 7.97277 1.17188 14.8058 1.17188H14.8321C15.3927 1.17305 15.8178 1.38797 15.9985 1.76162C16.1646 2.1051 16.0924 2.52744 15.8053 2.89143C14.7493 4.23029 14.4844 5.87695 15.0811 7.26533C14.7669 7.46771 14.4582 7.67098 14.1599 7.8726C14.1585 7.87353 14.1571 7.87447 14.1558 7.87541C12.2925 9.13266 10.7192 10.3832 9.67234 11.4356C8.87839 11.1643 8.00605 11.2434 7.2646 11.6713C6.04726 12.3745 4.44882 15.6514 4.14079 16.3011C4.05829 16.475 4.06656 16.6784 4.16277 16.8451C4.25904 17.0118 4.43101 17.1206 4.62285 17.1362C4.94669 17.1625 5.86632 17.2288 6.8899 17.2288C8.13197 17.2288 9.52697 17.1311 10.1944 16.7456C10.9173 16.3283 11.4184 15.631 11.5919 14.8294C13.0288 14.4523 14.9062 13.7144 16.9395 12.7237C18.0788 12.1693 19.2504 11.5453 20.4221 10.8691C21.0164 10.5259 21.604 10.1721 22.175 9.81516C22.1785 9.81533 22.1818 9.81586 22.1853 9.81598C27.069 9.95602 28.7595 13.4663 28.713 16.7046ZM10.4845 14.3186C10.447 14.9078 10.1196 15.4356 9.60841 15.7307C9.05429 16.0508 7.1507 16.0939 5.58771 16.0225C6.30695 14.6336 7.29595 13.0066 7.85066 12.6862C8.37437 12.3839 9.00753 12.3707 9.54472 12.6509C9.83998 12.8047 10.0844 13.0392 10.2518 13.3293C10.4259 13.6311 10.5063 13.9731 10.4845 14.3186Z" fill="#00922E"/>
<path d="M10.4258 3.62341C9.13344 3.62341 8.08203 4.67482 8.08203 5.96716C8.08203 7.25951 9.13344 8.31091 10.4258 8.31091C11.7181 8.31091 12.7695 7.25951 12.7695 5.96716C12.7695 4.67482 11.7181 3.62341 10.4258 3.62341ZM10.4258 7.13904C9.77961 7.13904 9.25391 6.61333 9.25391 5.96716C9.25391 5.32099 9.77961 4.79529 10.4258 4.79529C11.072 4.79529 11.5977 5.32099 11.5977 5.96716C11.5977 6.61333 11.072 7.13904 10.4258 7.13904Z" fill="#00922E"/>
<path d="M7.49609 19.3682C6.20375 19.3682 5.15234 20.4196 5.15234 21.7119C5.15234 23.0043 6.20375 24.0557 7.49609 24.0557C8.78844 24.0557 9.83984 23.0043 9.83984 21.7119C9.83984 20.4196 8.78844 19.3682 7.49609 19.3682ZM7.49609 22.8838C6.84992 22.8838 6.32422 22.3581 6.32422 21.7119C6.32422 21.0657 6.84992 20.54 7.49609 20.54C8.14226 20.54 8.66797 21.0657 8.66797 21.7119C8.66797 22.3581 8.14226 22.8838 7.49609 22.8838Z" fill="#00922E"/>
<path d="M13.3555 22.8838C12.0631 22.8838 11.0117 23.9352 11.0117 25.2275C11.0117 26.5199 12.0631 27.5713 13.3555 27.5713C14.6478 27.5713 15.6992 26.5199 15.6992 25.2275C15.6992 23.9352 14.6478 22.8838 13.3555 22.8838ZM13.3555 26.3994C12.7093 26.3994 12.1836 25.8737 12.1836 25.2275C12.1836 24.5814 12.7093 24.0557 13.3555 24.0557C14.0016 24.0557 14.5273 24.5814 14.5273 25.2275C14.5273 25.8737 14.0016 26.3994 13.3555 26.3994Z" fill="#00922E"/>
<path d="M20.3867 21.7119C19.0944 21.7119 18.043 22.7633 18.043 24.0557C18.043 25.348 19.0944 26.3994 20.3867 26.3994C21.6791 26.3994 22.7305 25.348 22.7305 24.0557C22.7305 22.7633 21.6791 21.7119 20.3867 21.7119ZM20.3867 25.2275C19.7405 25.2275 19.2148 24.7018 19.2148 24.0557C19.2148 23.4095 19.7405 22.8838 20.3867 22.8838C21.0329 22.8838 21.5586 23.4095 21.5586 24.0557C21.5586 24.7018 21.0329 25.2275 20.3867 25.2275Z" fill="#00922E"/>
<path d="M25.0742 15.8525C23.7819 15.8525 22.7305 16.9039 22.7305 18.1963C22.7305 19.4886 23.7819 20.54 25.0742 20.54C26.3666 20.54 27.418 19.4886 27.418 18.1963C27.418 16.9039 26.3666 15.8525 25.0742 15.8525ZM25.0742 19.3682C24.428 19.3682 23.9023 18.8425 23.9023 18.1963C23.9023 17.5501 24.428 17.0244 25.0742 17.0244C25.7204 17.0244 26.2461 17.5501 26.2461 18.1963C26.2461 18.8425 25.7204 19.3682 25.0742 19.3682Z" fill="#00922E"/>
</svg>
