<svg width="30" height="48" viewBox="0 0 30 48" fill="none" xmlns="http://www.w3.org/2000/svg">
<path d="M29.9659 32.6257C29.9819 28.2039 29.9655 14.0081 29.9653 13.8673C29.9734 11.842 28.4308 10.2494 26.4534 10.2414H26.4386C25.6603 10.2414 24.9377 10.4896 24.3464 10.9108V7.67227C24.3503 6.70788 23.9848 5.80074 23.3171 5.11813C22.6448 4.43085 21.7432 4.05021 20.7784 4.04635H20.7635C19.9931 4.04635 19.2777 4.29209 18.6912 4.70968V3.62572C18.6951 2.66113 18.3232 1.75277 17.6439 1.06792C16.9645 0.383177 16.0592 0.00395865 15.0946 0H15.0798C13.0799 0 11.4463 1.61351 11.4384 3.59973V4.66552C10.8549 4.24956 10.1441 4.00352 9.37845 4.00047H9.36373C7.35223 4.00047 5.70929 5.61398 5.70127 7.6003V15.5989C5.11407 15.1801 4.39756 14.9322 3.62582 14.9291H3.611C1.62792 14.9291 0.00802092 16.5426 2.11471e-06 18.5303C0.000103619 18.6295 0.0169533 28.4993 2.11471e-06 32.7173C-9.93892e-05 32.7598 0.00345364 32.8018 0.0105589 32.8431C0.0768409 41.0504 6.8034 47.7068 15.0621 47.7068C19.0652 47.7068 22.8169 46.1597 25.6263 43.3506C28.4357 40.5414 29.9829 36.7897 29.9829 32.7867C29.9829 32.7313 29.9771 32.6775 29.9659 32.6257ZM20.7722 5.56891C21.3263 5.57114 21.8435 5.78917 22.2286 6.1828C22.6148 6.57755 22.8262 7.10436 22.8239 7.66923V22.9917L18.6912 22.9785V7.64933C18.6959 6.50224 19.6256 5.56891 20.7722 5.56891ZM15.0621 46.1843C7.60193 46.1843 1.53261 40.1444 1.53261 32.7204C1.53261 32.6798 1.52936 32.64 1.52307 32.6011C1.53931 28.3138 1.52276 18.6261 1.52266 18.5321C1.52723 17.385 2.46411 16.4516 3.61973 16.4516C4.76297 16.4562 5.6968 17.3892 5.70137 18.5285V30.2878C5.70137 30.7071 6.04029 31.0474 6.45961 31.0491C8.57637 31.0576 10.5546 31.8913 12.0298 33.3966C13.5029 34.8997 14.3094 36.9002 14.3009 39.0298C14.2992 39.4502 14.6387 39.7925 15.0591 39.7941C15.4813 39.7941 15.8218 39.4553 15.8234 39.0359C15.8337 36.503 14.8726 34.1218 13.1172 32.3308C11.5325 30.7139 9.4624 29.7455 7.22393 29.5594V7.60335C7.2285 6.47564 8.20842 5.52293 9.37236 5.52293C10.507 5.52749 11.4338 6.46042 11.4384 7.59949V17.624C11.4384 18.0444 11.7792 18.3853 12.1997 18.3853C12.6201 18.3853 12.9609 18.0444 12.9609 17.624V3.60278C12.9655 2.45568 13.9161 1.52256 15.0884 1.52256C15.6464 1.52479 16.17 1.74414 16.5629 2.14021C16.9558 2.53628 17.1709 3.06166 17.1687 3.62257V22.9736L12.9608 22.9602V20.6692C12.9608 20.2488 12.62 19.908 12.1995 19.908C11.7791 19.908 11.4383 20.2488 11.4383 20.6692V22.9555L10.6794 22.9531C10.2577 22.9531 9.91703 23.2923 9.91571 23.7119C9.91439 24.1323 10.2541 24.4743 10.6746 24.4756L23.4996 24.5164C23.5277 24.5196 23.5562 24.5215 23.5851 24.5215C23.6128 24.5215 23.6403 24.5198 23.6673 24.5169L25.1053 24.5215C25.527 24.5215 25.8677 24.1823 25.869 23.7627C25.8703 23.3422 25.5306 23.0003 25.1101 22.9989L24.3464 22.9965V13.8442C24.351 12.6971 25.2896 11.7639 26.4472 11.7639C27.5709 11.7684 28.4474 12.6896 28.4427 13.865C28.4428 14.0115 28.4597 28.5652 28.4427 32.7834C28.4425 32.8382 28.4482 32.8924 28.4595 32.9452C28.3744 40.2602 22.3971 46.1843 15.0621 46.1843Z" fill="#00922E"/>
</svg>
