<svg width="28" height="28" viewBox="0 0 28 28" fill="none" xmlns="http://www.w3.org/2000/svg">
<path d="M12.1671 20.899C12.0221 20.899 11.883 20.8413 11.7805 20.7388L5.83405 14.7926C5.62042 14.5789 5.62042 14.2327 5.83405 14.019L8.92752 10.9256C9.14114 10.7119 9.48743 10.7119 9.70105 10.9256L12.1671 13.3916L18.2972 7.26129C18.3998 7.15875 18.5391 7.10107 18.6841 7.10107C18.8289 7.10107 18.9682 7.15875 19.0708 7.26129L22.1642 10.355C22.3779 10.5684 22.3779 10.9147 22.1642 11.1283L12.5538 20.739C12.4512 20.8415 12.3122 20.899 12.1671 20.899ZM6.99423 14.4059L12.1671 19.5788L21.0043 10.7416L18.6841 8.42126L12.5538 14.5516C12.3401 14.7652 11.9939 14.7652 11.7805 14.5516L9.31439 12.0855L6.99423 14.4059Z" fill="#00922E"/>
<path d="M13.9966 28C13.6394 28 13.2818 27.9863 12.9236 27.959C9.59659 27.7039 6.46317 26.2622 4.10049 23.8997C1.45627 21.2553 0 17.7397 0 14C0 10.2605 1.45627 6.74472 4.10049 4.10049C6.74472 1.45627 10.2605 0 14 0C17.7397 0 21.2553 1.45627 23.8997 4.10049C26.2622 6.46317 27.7039 9.59659 27.959 12.9236C28.2113 16.2144 27.2948 19.4946 25.3786 22.1602C25.2024 22.4054 24.8606 22.4612 24.6154 22.2849C24.3701 22.1087 24.3144 21.7669 24.4906 21.5217C28.1944 16.3697 27.6206 9.36844 23.1262 4.87381C18.0941 -0.158295 9.90613 -0.158295 4.87402 4.87381C-0.158295 9.90613 -0.158295 18.0939 4.87402 23.1262C9.36844 27.6204 16.3699 28.1944 21.5219 24.4904C21.7671 24.3141 22.1087 24.3701 22.2852 24.6154C22.4614 24.8606 22.4054 25.2022 22.1602 25.3786C19.7847 27.0863 16.9209 28 13.9966 28Z" fill="#00922E"/>
<path d="M23.5137 24.0599C23.3697 24.0599 23.2287 24.0014 23.127 23.8997C23.0253 23.7978 22.9668 23.6568 22.9668 23.5131C22.9668 23.3691 23.0253 23.2281 23.127 23.1264C23.2287 23.0247 23.3697 22.9662 23.5137 22.9662C23.6574 22.9662 23.7984 23.0247 23.9003 23.1264C24.002 23.2281 24.0605 23.3691 24.0605 23.5131C24.0605 23.6568 24.002 23.7978 23.9003 23.8997C23.7984 24.0014 23.6574 24.0599 23.5137 24.0599Z" fill="#00922E"/>
</svg>
