<svg width="50" height="50" viewBox="0 0 50 50" fill="none" xmlns="http://www.w3.org/2000/svg">
<g clip-path="url(#clip0)">
<path d="M49.4759 30.8905C49.1581 30.7643 48.7953 30.8432 48.5592 31.0904L45.0001 34.8315V12.6105H45.0043L48.4001 8.94382C48.7125 8.60622 48.6919 8.07865 48.354 7.76623C48.354 7.76623 48.3536 7.76584 48.3532 7.76546L47.131 6.62792L48.8293 4.79458C49.1413 4.4566 49.1203 3.9294 48.7823 3.61736L45.1157 0.221519C44.7781 -0.0909042 44.2509 -0.0706863 43.9384 0.267296L38.0135 6.66492H9.16672C9.16405 4.36466 7.30019 2.5008 4.99992 2.49813H4.16679C1.86653 2.5008 0.00267029 4.36466 0 6.66492V42.4983C0 42.9583 0.373077 43.3314 0.833511 43.3314H13.4483L11.6982 45.4329C11.404 45.7869 11.4521 46.3122 11.8057 46.6063L15.6483 49.8057C16.0019 50.1002 16.5276 50.0521 16.8221 49.6985L16.8224 49.6981L21.0876 44.5739C21.3821 44.2191 21.5717 43.7884 21.6343 43.3314H36.9041L31.8958 48.5907C31.5788 48.9241 31.5922 49.4517 31.9256 49.7687C32.0805 49.916 32.2861 49.9984 32.5001 49.998H49.1665C49.6269 49.998 50 49.6249 50 49.1648V31.6649C50 31.3239 49.7925 31.0172 49.4759 30.8905ZM46.611 8.41472L45.0001 10.1573V8.93162L45.9999 7.84824L46.611 8.41472ZM43.3334 8.26633V8.27816L36.2858 15.895L33.8383 13.6306L42.3283 4.45545L44.7758 6.71985L43.3434 8.26633H43.3334ZM34.6851 16.6831L32.7682 17.2423L33.1776 15.2873L34.6851 16.6831ZM44.5927 2.00909L47.039 4.27235L45.9068 5.49801L43.4601 3.23246L44.5927 2.00909ZM4.16679 4.16477H4.99992C6.38084 4.16477 7.50008 5.284 7.50008 6.66492V38.3532C6.78291 37.8016 5.90439 37.501 4.99992 37.498H4.16679C3.26195 37.501 2.3838 37.8016 1.66664 38.3532V6.66492C1.66664 5.284 2.78587 4.16477 4.16679 4.16477ZM4.16679 39.1646H4.99992C6.38084 39.1646 7.50008 40.2842 7.50008 41.6648H1.66664C1.66664 40.2842 2.78587 39.1646 4.16679 39.1646ZM19.8074 43.508L19.2741 44.1481L16.7126 42.0157L17.2451 41.3749C17.5396 41.0212 18.0649 40.9732 18.4185 41.2677C18.4189 41.2677 18.4189 41.268 18.4193 41.268L19.6999 42.3316C20.0539 42.6257 20.1023 43.151 19.8082 43.505C19.8078 43.5054 19.8078 43.5054 19.8074 43.5057V43.508ZM16.0751 47.9914L13.5132 45.859L15.646 43.2963L18.2076 45.4291L16.0751 47.9914ZM21.2841 41.6648C21.1456 41.434 20.9705 41.2276 20.7657 41.0533L19.4851 39.9874C18.4238 39.104 16.8476 39.2478 15.9641 40.309L14.8335 41.6648H9.16672V8.33156H36.4716L32.0492 13.1106C31.9859 13.182 31.9355 13.2643 31.9008 13.3532C31.8909 13.3773 31.8832 13.3998 31.8748 13.4249C31.8668 13.4497 31.8542 13.4749 31.8481 13.5016L30.8533 18.2582C30.7594 18.7087 31.0486 19.15 31.4991 19.2439C31.633 19.2717 31.7715 19.2664 31.9023 19.2282L36.5692 17.8683C36.591 17.8614 36.6093 17.8489 36.6299 17.8416C36.6508 17.834 36.6726 17.8233 36.6951 17.8122C36.7886 17.7699 36.8732 17.71 36.945 17.6364L43.3334 10.7322V36.5813L38.4918 41.6648H21.2841ZM48.3334 48.3313H34.444L48.3334 33.7481V48.3313Z" fill="black"/>
<path d="M39.2299 46.1506C39.3589 46.4619 39.6629 46.6649 40.0001 46.6649H45.8332C46.2936 46.6649 46.6667 46.2918 46.6667 45.8317V39.9983C46.6667 39.5379 46.2932 39.1652 45.8332 39.1652C45.6123 39.1652 45.4002 39.2529 45.2442 39.4093L39.4107 45.2424C39.1723 45.4808 39.101 45.8394 39.2299 46.1506ZM45 42.0098V44.9982H42.0116L45 42.0098Z" fill="black"/>
<path d="M36.6665 31.665H30.8334V22.4983C30.8323 22.277 30.7442 22.0649 30.5882 21.9082L25.5882 16.9082C25.2628 16.5828 24.7353 16.5828 24.4099 16.9082L19.4099 21.9082C19.2547 22.0653 19.1673 22.2774 19.1666 22.4983V31.665H13.3335C12.8731 31.665 12.5 32.0381 12.5 32.4981C12.5 32.9586 12.8731 33.3316 13.3335 33.3316H36.6669C37.1269 33.3316 37.5 32.9586 37.5 32.4981C37.5 32.0381 37.1269 31.665 36.6665 31.665ZM25 18.6763L27.9884 21.6648H22.0116L25 18.6763ZM20.8332 23.3314H29.1668V31.665H20.8332V23.3314Z" fill="black"/>
<path d="M24.1665 13.3315H25.8335V14.9982H24.1665V13.3315Z" fill="black"/>
<path d="M24.1665 34.9983H25.8335V36.6649H24.1665V34.9983Z" fill="black"/>
</g>
<defs>
<clipPath id="clip0">
<rect width="50" height="50" fill="white"/>
</clipPath>
</defs>
</svg>
