<svg xmlns="http://www.w3.org/2000/svg">
    <symbol id="arrow-green" viewBox="0 0 12 8" fill="none">
        <path d="M12 1.41L10.59 -6.16331e-08L6 4.58L1.41 -4.62904e-07L-6.16331e-08 1.41L6 7.41L12 1.41Z" fill="#00922E"/>
    </symbol>
    <symbol id="map-map" viewBox="0 0 43 43" fill="none">
        <path d="M41.572 38.3221V11.5261C41.5924 11.0866 41.2527 10.7138 40.8133 10.6934C40.7196 10.689 40.6259 10.7013 40.5365 10.7296V10.7694L36.952 11.8925C37.3273 10.8879 37.5501 9.83264 37.6132 8.76208C37.6132 3.92292 33.6902 0 28.8511 0C24.0119 0 20.089 3.92292 20.089 8.76208C20.145 9.78256 20.3516 10.7892 20.7024 11.7492L14.776 9.63032C14.7072 9.62186 14.6377 9.62186 14.5689 9.63032H14.5052C14.4097 9.63201 14.3152 9.65093 14.2264 9.68608L1.93557 14.4654C1.6521 14.5732 1.45446 14.8326 1.42578 15.1345V27.9431V41.9624C1.42708 42.4023 1.78473 42.7578 2.22472 42.7565C2.322 42.7563 2.41839 42.7381 2.50909 42.7032L14.5211 38.0513L28.2218 42.9581C28.3872 43.0139 28.5662 43.0139 28.7316 42.9581L41.0144 39.1187C41.3596 39.0106 41.5886 38.6835 41.572 38.3221ZM28.8511 1.59311C32.8105 1.59311 36.0201 4.80271 36.0201 8.76208C36.0201 11.8766 31.3443 20.4794 28.8511 24.6931C26.3579 20.4475 21.6821 11.8368 21.6821 8.76208C21.6821 4.80271 24.8917 1.59311 28.8511 1.59311ZM40.0028 37.7725L29.2812 41.126V35.0483C29.2812 34.6084 28.9246 34.2518 28.4847 34.2518C28.0448 34.2518 27.6881 34.6084 27.6881 35.0483V41.0703L15.3097 36.6414V31.5435C15.3097 31.1036 14.953 30.7469 14.5131 30.7469C14.0732 30.7469 13.7166 31.1036 13.7166 31.5435V36.6414L3.01889 40.8074V28.4927L6.95386 26.8996C7.37493 26.7721 7.6129 26.3275 7.48546 25.9064C7.35801 25.4853 6.91333 25.2473 6.49225 25.3748C6.44824 25.3881 6.40543 25.4052 6.36431 25.426L3.01879 26.7721V15.6841L13.7165 11.542V13.9317C13.7165 14.3716 14.0731 14.7283 14.513 14.7283C14.9529 14.7283 15.3096 14.3716 15.3096 13.9317V11.5102L21.4192 13.7007C23.3785 18.1782 25.6323 22.521 28.166 26.7004C28.3941 27.0766 28.8839 27.1965 29.2601 26.9684C29.3696 26.902 29.4615 26.81 29.5281 26.7004C32.0492 22.5455 34.295 18.2295 36.251 13.7804L39.9788 12.6094L40.0027 25.6649L35.9642 26.6447C35.5243 26.6975 35.2105 27.0969 35.2632 27.5368C35.316 27.9767 35.7155 28.2906 36.1554 28.2378C36.2189 28.2455 36.283 28.2455 36.3465 28.2378L40.0027 27.3456V37.7725H40.0028Z" fill="white"/>
        <path d="M28.8194 4.13416C26.2634 4.13416 24.1914 6.20619 24.1914 8.76213C24.1914 11.3181 26.2634 13.3901 28.8194 13.3901C31.3735 13.3857 33.443 11.3163 33.4473 8.76213C33.4473 6.20619 31.3753 4.13416 28.8194 4.13416ZM28.8194 11.797C27.1576 11.7753 25.8206 10.4241 25.8164 8.76213H25.7845C25.7845 7.08598 27.1432 5.72726 28.8194 5.72726C30.4955 5.72726 31.8542 7.08598 31.8542 8.76213C31.8542 10.4383 30.4955 11.797 28.8194 11.797Z" fill="white"/>
        <path d="M18.4026 24.0241V24.048L14.5473 22.3832C14.351 22.3013 14.1302 22.3013 13.9339 22.3832L10.676 23.6975C10.2669 23.8625 10.069 24.3278 10.234 24.737C10.3989 25.1461 10.8643 25.344 11.2735 25.1791L14.2207 23.9922L17.7654 25.4897C17.866 25.5326 17.9746 25.5543 18.084 25.5534C18.5239 25.557 18.8834 25.2034 18.887 24.7634C18.8896 24.4418 18.6985 24.1501 18.4026 24.0241Z" fill="white"/>
        <path d="M31.4247 28.5796C31.306 28.1959 30.9201 27.9606 30.5247 28.0307L30.5326 27.967L28.5572 28.4449L25.2117 26.9952C24.8069 26.8192 24.3361 27.0046 24.1602 27.4094C23.9843 27.8141 24.1697 28.2849 24.5744 28.4608L28.1589 30.0539C28.2596 30.0968 28.3681 30.1185 28.4775 30.1176H28.6687L30.899 29.576C31.3193 29.446 31.5546 28.9999 31.4247 28.5796Z" fill="white"/>
    </symbol>
    <symbol id="map-phone" viewBox="0 0 44 44" fill="none">
        <path d="M31.2343 0H12.7616C10.9811 0 9.53125 1.4498 9.53125 3.23033V40.7689C9.53125 42.5502 10.9811 44 12.7616 44H31.2335C33.0148 44 34.4646 42.5502 34.4646 40.7697V3.23033C34.4646 1.4498 33.0148 0 31.2343 0ZM10.9979 5.86667H32.9979V33.7333H10.9979V5.86667ZM12.7616 1.46667H31.2335C32.2067 1.46667 32.9979 2.25793 32.9979 3.23033V4.4H10.9979V3.23033C10.9979 2.25793 11.7892 1.46667 12.7616 1.46667ZM31.2343 42.5333H12.7616C11.7892 42.5333 10.9979 41.7421 10.9979 40.7697V35.2H32.9979V40.7697C32.9979 41.7421 32.2067 42.5333 31.2343 42.5333Z" fill="white"/>
        <path d="M21.9997 35.9333C20.382 35.9333 19.0664 37.2489 19.0664 38.8667C19.0664 40.4844 20.382 41.8 21.9997 41.8C23.6175 41.8 24.9331 40.4844 24.9331 38.8667C24.9331 37.2489 23.6175 35.9333 21.9997 35.9333ZM21.9997 40.3333C21.1909 40.3333 20.5331 39.6755 20.5331 38.8667C20.5331 38.0578 21.1909 37.4 21.9997 37.4C22.8086 37.4 23.4664 38.0578 23.4664 38.8667C23.4664 39.6755 22.8086 40.3333 21.9997 40.3333Z" fill="white"/>
        <path d="M19.0654 3.66662H21.9987C22.4042 3.66662 22.732 3.33882 22.732 2.93328C22.732 2.52775 22.4042 2.19995 21.9987 2.19995H19.0654C18.6598 2.19995 18.332 2.52775 18.332 2.93328C18.332 3.33882 18.6598 3.66662 19.0654 3.66662Z" fill="white"/>
        <path d="M24.1982 3.66662H24.9315C25.337 3.66662 25.6648 3.33882 25.6648 2.93328C25.6648 2.52775 25.337 2.19995 24.9315 2.19995H24.1982C23.7926 2.19995 23.4648 2.52775 23.4648 2.93328C23.4648 3.33882 23.7926 3.66662 24.1982 3.66662Z" fill="white"/>
        <path d="M41.5137 3.35055C41.227 3.06381 40.7635 3.06381 40.4768 3.35055C40.19 3.63728 40.19 4.10075 40.4768 4.38748C43.2165 7.12721 43.2165 11.5851 40.4768 14.3256C40.19 14.6123 40.19 15.0758 40.4768 15.3625C40.6198 15.5055 40.8075 15.5774 40.9952 15.5774C41.183 15.5774 41.3707 15.5055 41.5137 15.3625C44.8254 12.0515 44.8254 6.66228 41.5137 3.35055Z" fill="white"/>
        <path d="M38.4278 5.01962C38.141 4.73288 37.6776 4.73288 37.3908 5.01962C37.1041 5.30635 37.1041 5.76982 37.3908 6.05655C38.298 6.96368 38.7974 8.17221 38.7974 9.45848C38.7974 10.7447 38.298 11.9525 37.3908 12.8597C37.1041 13.1464 37.1041 13.6099 37.3908 13.8966C37.5338 14.0396 37.7216 14.1115 37.9093 14.1115C38.097 14.1115 38.2848 14.0396 38.4278 13.8966C39.6121 12.713 40.264 11.1363 40.264 9.45848C40.264 7.78062 39.6128 6.20322 38.4278 5.01962Z" fill="white"/>
        <path d="M3.52073 4.38748C3.80747 4.10075 3.80747 3.63728 3.52073 3.35055C3.234 3.06381 2.77053 3.06381 2.4838 3.35055C-0.827933 6.66228 -0.827933 12.0508 2.4838 15.3625C2.6268 15.5055 2.81453 15.5774 3.00227 15.5774C3.19 15.5774 3.37773 15.5055 3.52073 15.3625C3.80747 15.0758 3.80747 14.6123 3.52073 14.3256C0.780266 11.5859 0.780266 7.12795 3.52073 4.38748Z" fill="white"/>
        <path d="M6.60757 4.81722C6.32084 4.53049 5.85737 4.53049 5.57064 4.81722C4.38631 6.00082 3.73438 7.57749 3.73438 9.25536C3.73438 10.9332 4.38631 12.5099 5.57064 13.6942C5.71364 13.8372 5.90137 13.9091 6.08911 13.9091C6.27684 13.9091 6.46457 13.8372 6.60757 13.6942C6.89431 13.4075 6.89431 12.944 6.60757 12.6573C5.70044 11.7502 5.20104 10.5416 5.20104 9.25536C5.20104 7.96909 5.69971 6.76129 6.60757 5.85416C6.89357 5.56816 6.89357 5.10396 6.60757 4.81722Z" fill="white"/>
    </symbol>
    <symbol id="map-email" viewBox="0 0 41 41" fill="none">
        <path d="M39.576 39.0781C39.576 39.0781 39.576 20.9965 39.576 14.9746C39.576 14.7264 39.2637 14.4141 38.9594 14.1818L32.6572 9.60938V4.55645C32.6572 4.05996 32.2408 3.72363 31.8244 3.72363H24.6414L20.9818 1.05703C20.7336 0.888867 20.3172 0.888867 20.0609 1.05703L16.4014 3.72363H9.21836C8.72188 3.72363 8.38555 4.14004 8.38555 4.55645V9.55332L2.00332 14.1898C1.62695 14.4221 1.38672 14.7264 1.38672 14.9826C1.38672 21.0445 1.38672 39.2463 1.38672 39.2463C1.38672 39.7188 1.76309 40.0471 2.15547 40.0791C2.17949 40.0791 2.19551 40.0791 2.21953 40.0791H38.7352C39.2717 40.0711 39.576 39.6547 39.576 39.0781ZM37.9904 16.4721V37.5807L24.209 26.5459L37.9904 16.4721ZM37.3738 15.0066L32.6572 18.442V11.5393L37.3738 15.0066ZM20.4854 2.63457L21.9508 3.71563H19.0119L20.4854 2.63457ZM30.9916 5.38926V19.6592L20.4854 27.3146L9.9791 19.6592V5.38926H30.9916ZM2.98027 16.4721L16.7617 26.5459L2.98027 37.6447V16.4721ZM8.39356 18.5061L3.55684 14.9826L8.39356 11.4672V18.5061ZM4.47774 38.4855L18.099 27.5229L19.9809 28.9002C20.3412 29.1725 20.6135 29.1725 20.9818 28.9002L22.8637 27.5229L36.565 38.4855H4.47774Z" fill="white"/>
        <path d="M26.1533 9.47327H14.9023V11.0588H26.1533V9.47327Z" fill="white"/>
        <path d="M26.1533 14.5582H14.9023V16.1438H26.1533V14.5582Z" fill="white"/>
        <path d="M26.1533 19.6432H14.9023V21.2287H26.1533V19.6432Z" fill="white"/>
    </symbol>
    <symbol id="vk" viewBox="0 0 30 29" fill="white">
        <g clip-path="url(#clip0)">
            <path fill-rule="evenodd" clip-rule="evenodd" d="M0 0V28.7197H30V0H0ZM22.49 15.8891C23.1787 16.5323 23.9069 17.1378 24.525 17.8489C24.7981 18.1631 25.0565 18.4872 25.2533 18.8513C25.5328 19.3729 25.2795 19.9444 24.7928 19.9759L21.7681 19.9747C20.9873 20.0361 20.3652 19.7347 19.8405 19.2234C19.4233 18.8163 19.0333 18.3805 18.6305 17.9595C18.4666 17.7862 18.2932 17.6241 18.0872 17.4949C17.674 17.2385 17.3156 17.3164 17.0794 17.7283C16.8392 18.148 16.7828 18.614 16.7606 19.0813C16.7277 19.7635 16.5127 19.9419 15.7975 19.9747C14.2673 20.0426 12.8161 19.82 11.4684 19.0826C10.2781 18.432 9.35703 17.5122 8.55514 16.4722C6.99237 14.4445 5.79547 12.2184 4.72081 9.92832C4.47791 9.41218 4.65534 9.13559 5.24822 9.12561C6.23657 9.10693 7.22453 9.1092 8.2115 9.12435C8.61297 9.13079 8.87934 9.35045 9.0329 9.71352C9.56703 10.97 10.2204 12.1657 11.0405 13.2752C11.2598 13.5704 11.4829 13.8644 11.799 14.0728C12.1493 14.304 12.4171 14.2284 12.5823 13.8528C12.6875 13.6142 12.7335 13.3605 12.7557 13.1054C12.8343 12.2323 12.8437 11.3582 12.7083 10.4876C12.6243 9.94346 12.3029 9.59163 11.7361 9.48874C11.4472 9.43598 11.4905 9.33435 11.6296 9.17579C11.8739 8.90343 12.1036 8.73357 12.5589 8.73357H15.9773C16.5165 8.83425 16.6374 9.06672 16.7107 9.58551L16.7134 13.2224C16.707 13.4234 16.8185 14.0187 17.1951 14.1506C17.4967 14.2461 17.6976 14.0135 17.8787 13.8302C18.6974 12.9985 19.2816 12.0151 19.8036 10.9976C20.0347 10.5502 20.2342 10.0855 20.4284 9.62048C20.5715 9.27634 20.7945 9.10687 21.2 9.11299L24.4912 9.11684C24.5883 9.11684 24.6881 9.11684 24.7838 9.13193C25.3374 9.22358 25.4897 9.45226 25.3176 9.97098C25.0489 10.7837 24.5225 11.4622 24.0095 12.1418C23.4595 12.8692 22.8744 13.5712 22.3285 14.3025C21.8299 14.9722 21.8692 15.3089 22.49 15.8891Z"/>
        </g>
        <defs>
            <clipPath id="clip0">
                <rect width="30" height="28.7197"/>
            </clipPath>
        </defs>
    </symbol>
    <symbol id="viber" viewBox="0 0 40 39" fill="white">
        <path d="M19.4903 6.64109C16.5109 6.09848 13.4894 6.09848 10.5094 6.64109C9.20598 6.91901 7.56619 8.42331 7.24561 9.63331C6.7124 11.9745 6.7124 14.3479 7.24561 16.6891C7.56619 17.8991 9.20598 19.4034 10.5094 19.6813C10.5097 19.6814 10.51 19.6814 10.5104 19.6815C10.5684 19.6924 10.6108 19.7406 10.6108 19.7972V23.2269C10.6108 23.3983 10.8293 23.4828 10.9537 23.3586L12.6554 21.6867C12.6554 21.6867 14.0114 20.3541 14.2552 20.1145C14.279 20.091 14.312 20.0783 14.346 20.0792C16.0641 20.1248 17.784 19.9919 19.4903 19.6814C20.7937 19.4035 22.4342 17.8992 22.7541 16.6892C23.288 14.3479 23.288 11.9746 22.7541 9.63337C22.4341 8.42331 20.7944 6.91901 19.4903 6.64109ZM19.5358 16.8637C19.2751 17.3936 18.8958 17.8344 18.3486 18.1158C18.1942 18.1952 18.0097 18.2209 17.8355 18.2722C17.6351 18.214 17.4441 18.1749 17.2668 18.1044C15.4291 17.3745 13.7379 16.4329 12.3982 14.9894C11.6364 14.1685 11.04 13.2418 10.536 12.2611C10.297 11.796 10.0956 11.3127 9.89026 10.8325C9.70298 10.3947 9.9788 9.9423 10.2692 9.61238C10.5416 9.30276 10.8922 9.06581 11.2719 8.89118C11.5683 8.75486 11.8606 8.83345 12.0771 9.07394C12.545 9.59386 12.9748 10.1404 13.3228 10.743C13.5368 11.1137 13.4781 11.5668 13.0902 11.8191C12.996 11.8804 12.9101 11.9524 12.8223 12.0217C12.7452 12.0824 12.6728 12.1437 12.62 12.2259C12.5235 12.3762 12.5189 12.5536 12.581 12.717C13.0593 13.9754 13.8655 14.954 15.1885 15.481C15.4003 15.5653 15.6129 15.6635 15.8567 15.6363C16.2652 15.5906 16.3975 15.1617 16.6837 14.9376C16.9634 14.7186 17.321 14.7157 17.6223 14.8982C17.9238 15.0809 18.216 15.2769 18.5064 15.4751C18.7915 15.6696 19.0754 15.8598 19.3383 16.0815C19.5911 16.2947 19.6781 16.5743 19.5358 16.8637ZM17.163 12.763C17.049 12.765 17.0938 12.7628 17.1372 12.7617C16.9533 12.7555 16.8533 12.6519 16.8336 12.4834C16.8192 12.3603 16.8078 12.2356 16.7771 12.1159C16.7167 11.8801 16.5857 11.6615 16.3786 11.517C16.2807 11.4487 16.1699 11.399 16.0538 11.3669C15.9062 11.3262 15.7531 11.3374 15.6059 11.3028C15.446 11.2654 15.3576 11.1415 15.3827 10.9979C15.4056 10.8673 15.5383 10.7653 15.6874 10.7756C16.6194 10.84 17.2854 11.3013 17.3805 12.3516C17.3872 12.4258 17.3951 12.504 17.3779 12.5749C17.35 12.6902 17.264 12.7502 17.177 12.7611C17.1841 12.7612 17.1827 12.7618 17.163 12.763ZM16.5836 10.3608C16.2976 10.2267 15.9883 10.1434 15.6749 10.0937C15.5379 10.0721 15.3994 10.0589 15.2618 10.0405C15.095 10.0184 15.006 9.91658 15.0138 9.75922C15.0212 9.61175 15.1338 9.50569 15.3016 9.51477C15.8533 9.54476 16.3861 9.65889 16.8765 9.90751C17.8738 10.4131 18.4435 11.2112 18.6098 12.2769C18.6173 12.3252 18.6294 12.373 18.6332 12.4215C18.6427 12.5411 18.6485 12.6609 18.6581 12.8186C18.6542 12.8474 18.6521 12.9149 18.6346 12.9786C18.5708 13.2096 18.2049 13.2385 18.1206 13.0054C18.0957 12.9362 18.0919 12.8574 18.0918 12.783C18.091 12.2956 17.9803 11.8087 17.7236 11.3846C17.4597 10.9489 17.0564 10.5825 16.5836 10.3608ZM19.6651 13.6543C19.4724 13.6565 19.3857 13.5021 19.3732 13.3367C19.3485 13.0093 19.3314 12.6804 19.2842 12.3556C19.0353 10.6414 17.6075 9.22317 15.8253 8.91884C15.5571 8.87303 15.2825 8.86099 15.0109 8.8337C14.8392 8.81643 14.6142 8.80648 14.5762 8.6021C14.5443 8.43075 14.6953 8.29431 14.8658 8.28555C14.9121 8.28315 14.9587 8.28517 15.0053 8.28536C17.3135 8.34731 15.1461 8.29015 15.0114 8.28567C17.4123 8.35266 19.3836 9.87902 19.8063 12.1521C19.8784 12.5397 19.9041 12.936 19.9361 13.3295C19.9496 13.4949 19.8517 13.6521 19.6651 13.6543Z"/>
        <path d="M0 0V28.7205H30V0H0ZM24.4879 17.0648L24.4819 17.0875C24.0027 18.9422 21.8422 20.9324 19.8582 21.3464L19.8358 21.3508C18.2315 21.6439 16.6155 21.7901 15 21.7901C14.5246 21.7901 14.0491 21.7759 13.5739 21.7504L11.3828 23.9309C10.8403 24.4716 9.88649 24.1036 9.88649 23.3543V21.2839C7.97648 20.7617 5.97688 18.863 5.51747 17.0874L5.5122 17.0647C4.91974 14.4746 4.91974 11.8479 5.5122 9.25773L5.51747 9.23504C5.99735 7.38035 8.15784 5.39016 10.1412 4.97611L10.1643 4.9717C13.3728 4.38561 16.6266 4.38561 19.8358 4.9717L19.8582 4.97611C21.8422 5.39016 24.0027 7.38035 24.4819 9.23504L24.4879 9.25773C25.0803 11.8479 25.0803 14.4746 24.4879 17.0648Z"/>
    </symbol>
    <symbol id="telegram" viewBox="0 0 30 29">
        <g clip-path="url(#clip0)">
            <path fill-rule="evenodd" clip-rule="evenodd" d="M0 0H30V28.7197H0V0ZM3.56068 13.8239L23.6221 6.33981C24.3856 6.05497 25.1748 6.69474 25.007 7.46262L21.5819 23.1392C21.4212 23.8749 20.5199 24.2053 19.887 23.7605L14.7156 20.1266L12.0799 22.7029C11.6173 23.1551 10.8182 22.9721 10.6195 22.3684L8.71695 16.5892L3.61914 15.148C2.95026 14.959 2.91089 14.0663 3.56068 13.8239ZM11.7885 17.7074L21.1069 9.81884C21.33 9.63004 21.0709 9.29654 20.8178 9.44691L9.81378 15.9805C9.62005 16.0955 9.5319 16.3213 9.59951 16.5298L11.0756 21.0831C11.1066 21.1788 11.2522 21.1656 11.2639 21.066L11.6227 18.0129C11.6365 17.8949 11.6956 17.7861 11.7885 17.7074Z" fill="white"/>
        </g>
        <defs>
            <clipPath id="clip0">
                <rect width="30" height="28.7197" fill="white"/>
            </clipPath>
        </defs>
    </symbol>
    <symbol id="exclude" viewBox="0 0 30 29" fill="none">
        <path fill-rule="evenodd" clip-rule="evenodd" d="M30 0H0V28.7197H30V0ZM4.50888 24.4141L5.97836 19.4177C5.0334 17.8808 4.53586 16.1322 4.53586 14.3359C4.53586 8.80506 9.23614 4.30538 15.0136 4.30538C20.791 4.30538 25.4912 8.80506 25.4912 14.3359C25.4912 19.8668 20.791 24.3665 15.0136 24.3665C13.2134 24.3665 11.4506 23.9253 9.8912 23.0877L4.50888 24.4141ZM10.1664 21.2629L10.4871 21.4503C11.8467 22.2449 13.412 22.665 15.0136 22.665C19.8109 22.665 23.7138 18.9286 23.7138 14.3359C23.7138 9.74329 19.8109 6.00689 15.0136 6.00689C10.2162 6.00689 6.31323 9.74329 6.31323 14.3359C6.31323 15.9362 6.78831 17.4902 7.687 18.8299L7.90298 19.1518L7.05676 22.0292L10.1664 21.2629ZM11.3904 9.632L12.0702 9.66748C12.2041 9.67448 12.3222 9.75363 12.375 9.87173L13.3654 12.0901C13.4183 12.2085 13.3961 12.3456 13.308 12.4431L12.4459 13.3978C12.3761 13.4753 12.3638 13.5855 12.4131 13.6763C13.5485 15.7701 15.6177 16.5997 16.2355 16.8075C16.3408 16.843 16.4574 16.8094 16.5256 16.7249L17.4276 15.6054C17.5279 15.4809 17.7048 15.4393 17.854 15.5051L20.1517 16.519C20.3014 16.5851 20.3832 16.7416 20.3487 16.8959L20.2402 17.3813C20.1178 17.9289 19.778 18.4133 19.2852 18.7151C18.6629 19.0962 17.8564 19.2833 16.8311 19.0058C13.6494 18.1445 11.8501 16.1279 10.8846 14.8675C9.9191 13.6071 9.54605 12.3467 9.78745 11.3174C9.94932 10.6271 10.4763 10.0974 10.8059 9.82339C10.9674 9.68916 11.1768 9.62085 11.3904 9.632Z" fill="white"/>
    </symbol>
    <symbol id="facebook" viewBox="0 0 30 29" fill="none">
        <g clip-path="url(#clip0)">
            <path d="M0 0V28.7197H15.9768V17.6259H12.0712V13.0971H15.9768V9.29369C15.9768 6.52759 18.3191 4.28524 21.2085 4.28524H25.2916V8.35767H22.37C21.4518 8.35767 20.7075 9.07022 20.7075 9.94915V13.0971H25.2182L24.5948 17.626H20.7075V28.7197H30V0H0Z" fill="white"/>
        </g>
        <defs>
            <clipPath id="clip0">
                <rect width="30" height="28.7197" fill="white"/>
            </clipPath>
        </defs>
    </symbol>
    <symbol id="instagram" viewBox="0 0 40 39" fill="none" xmlns="http://www.w3.org/2000/svg">
        <path fill-rule="evenodd" clip-rule="evenodd" d="M20.145 6.5835H9.85544C8.21327 6.5835 6.87695 7.86274 6.87695 9.43495V19.2856C6.87695 20.858 8.21327 22.1374 9.85544 22.1374H20.145C21.7875 22.1374 23.1238 20.858 23.1238 19.2856V9.43495C23.1238 7.86282 21.7875 6.5835 20.145 6.5835ZM15 19.4806C12.0512 19.4806 9.65179 17.1835 9.65179 14.3601C9.65179 11.5371 12.0512 9.23998 15 9.23998C17.9492 9.23998 20.3486 11.5371 20.3486 14.3601C20.3486 17.1835 17.9492 19.4806 15 19.4806ZM20.5207 10.2988C19.8225 10.2988 19.2548 9.75529 19.2548 9.0873C19.2548 8.41924 19.8225 7.87576 20.5207 7.87576C21.2184 7.87576 21.7861 8.41924 21.7861 9.0873C21.7861 9.75537 21.2184 10.2988 20.5207 10.2988Z" fill="white"/>
        <path fill-rule="evenodd" clip-rule="evenodd" d="M14.9997 11.4038C13.2974 11.4038 11.9111 12.7303 11.9111 14.36C11.9111 15.9904 13.2974 17.3172 14.9997 17.3172C16.7027 17.3172 18.088 15.9904 18.088 14.36C18.088 12.7303 16.7027 11.4038 14.9997 11.4038Z" fill="white"/>
        <path fill-rule="evenodd" clip-rule="evenodd" d="M0 0V28.7205H30V0H0ZM25.3833 19.2856C25.3833 22.0513 23.0337 24.3007 20.1448 24.3007H9.85525C6.96659 24.3007 4.6167 22.0513 4.6167 19.2856V9.43491C4.6167 6.66946 6.96659 4.41979 9.85525 4.41979H20.1448C23.0337 4.41979 25.3833 6.66946 25.3833 9.43491V19.2856Z" fill="white"/>
    </symbol>
    <symbol id="request" viewBox="0 0 50 50" fill="none">
        <g clip-path="url(#clip0)">
            <path d="M36.4255 12.5C30.108 12.5 24.9673 17.6407 24.9673 23.9582C24.9673 30.2761 30.108 35.4168 36.4255 35.4168C42.743 35.4168 47.8837 30.2761 47.8837 23.9582C47.8837 17.6407 42.743 12.5 36.4255 12.5ZM36.4255 33.3332C31.2566 33.3332 27.0505 29.1271 27.0505 23.9582C27.0505 18.7897 31.2566 14.5832 36.4255 14.5832C41.5944 14.5832 45.8005 18.7897 45.8005 23.9582C45.8005 29.1271 41.5944 33.3332 36.4255 33.3332Z" fill="#1C1C1C"/>
            <path d="M35.384 39.5832H28.0926C27.5173 39.5832 27.0508 40.0501 27.0508 40.625V47.9168H4.13399V2.08321H35.384V10.4168H37.4676V2.08321C37.4676 0.934219 36.533 0 35.384 0H4.13399C2.985 0 2.05078 0.934219 2.05078 2.08321V47.9168C2.05078 49.0658 2.985 50 4.13399 50H31.2176C31.4934 50 31.7593 49.8905 31.9538 49.6948L37.1624 44.4866C37.3581 44.2917 37.4676 44.0262 37.4676 43.75V37.5H35.384V39.5832ZM35.384 43.3189L30.7861 47.9168H29.134V41.6668H35.384V43.3189Z" fill="#1C1C1C"/>
            <path d="M31.2176 12.4999V9.37492C31.2176 8.80005 30.7507 8.33313 30.1758 8.33313H9.34258C8.76732 8.33313 8.30078 8.80005 8.30078 9.37492V21.8749C8.30078 22.4498 8.76732 22.9167 9.34258 22.9167H22.884V20.8331H10.384V10.4167H29.134V12.4999H31.2176Z" fill="#1C1C1C"/>
            <path d="M8.3335 27.381H23.8097V29.7619H8.3335V27.381Z" fill="#1C1C1C"/>
            <path d="M8.3335 33.3334H27.3811V35.7143H8.3335V33.3334Z" fill="#1C1C1C"/>
            <path d="M8.3335 39.2858H25.0002V41.6667H8.3335V39.2858Z" fill="#1C1C1C"/>
            <path d="M37.4673 18.75H35.3837V22.9168H31.2173V25H35.3837V29.1668H37.4673V25H41.6337V22.9168H37.4673V18.75Z" fill="#1C1C1C"/>
        </g>
        <defs>
            <clipPath id="clip0">
                <rect width="50" height="50" fill="white"/>
            </clipPath>
        </defs>
    </symbol>
    <symbol id="project" viewBox="0 0 50 50" fill="none">
        <g clip-path="url(#clip0)">
            <path d="M49.4759 30.8905C49.1581 30.7643 48.7953 30.8432 48.5592 31.0904L45.0001 34.8315V12.6105H45.0043L48.4001 8.94382C48.7125 8.60622 48.6919 8.07865 48.354 7.76623C48.354 7.76623 48.3536 7.76584 48.3532 7.76546L47.131 6.62792L48.8293 4.79458C49.1413 4.4566 49.1203 3.9294 48.7823 3.61736L45.1157 0.221519C44.7781 -0.0909042 44.2509 -0.0706863 43.9384 0.267296L38.0135 6.66492H9.16672C9.16405 4.36466 7.30019 2.5008 4.99992 2.49813H4.16679C1.86653 2.5008 0.00267029 4.36466 0 6.66492V42.4983C0 42.9583 0.373077 43.3314 0.833511 43.3314H13.4483L11.6982 45.4329C11.404 45.7869 11.4521 46.3122 11.8057 46.6063L15.6483 49.8057C16.0019 50.1002 16.5276 50.0521 16.8221 49.6985L16.8224 49.6981L21.0876 44.5739C21.3821 44.2191 21.5717 43.7884 21.6343 43.3314H36.9041L31.8958 48.5907C31.5788 48.9241 31.5922 49.4517 31.9256 49.7687C32.0805 49.916 32.2861 49.9984 32.5001 49.998H49.1665C49.6269 49.998 50 49.6249 50 49.1648V31.6649C50 31.3239 49.7925 31.0172 49.4759 30.8905ZM46.611 8.41472L45.0001 10.1573V8.93162L45.9999 7.84824L46.611 8.41472ZM43.3334 8.26633V8.27816L36.2858 15.895L33.8383 13.6306L42.3283 4.45545L44.7758 6.71985L43.3434 8.26633H43.3334ZM34.6851 16.6831L32.7682 17.2423L33.1776 15.2873L34.6851 16.6831ZM44.5927 2.00909L47.039 4.27235L45.9068 5.49801L43.4601 3.23246L44.5927 2.00909ZM4.16679 4.16477H4.99992C6.38084 4.16477 7.50008 5.284 7.50008 6.66492V38.3532C6.78291 37.8016 5.90439 37.501 4.99992 37.498H4.16679C3.26195 37.501 2.3838 37.8016 1.66664 38.3532V6.66492C1.66664 5.284 2.78587 4.16477 4.16679 4.16477ZM4.16679 39.1646H4.99992C6.38084 39.1646 7.50008 40.2842 7.50008 41.6648H1.66664C1.66664 40.2842 2.78587 39.1646 4.16679 39.1646ZM19.8074 43.508L19.2741 44.1481L16.7126 42.0157L17.2451 41.3749C17.5396 41.0212 18.0649 40.9732 18.4185 41.2677C18.4189 41.2677 18.4189 41.268 18.4193 41.268L19.6999 42.3316C20.0539 42.6257 20.1023 43.151 19.8082 43.505C19.8078 43.5054 19.8078 43.5054 19.8074 43.5057V43.508ZM16.0751 47.9914L13.5132 45.859L15.646 43.2963L18.2076 45.4291L16.0751 47.9914ZM21.2841 41.6648C21.1456 41.434 20.9705 41.2276 20.7657 41.0533L19.4851 39.9874C18.4238 39.104 16.8476 39.2478 15.9641 40.309L14.8335 41.6648H9.16672V8.33156H36.4716L32.0492 13.1106C31.9859 13.182 31.9355 13.2643 31.9008 13.3532C31.8909 13.3773 31.8832 13.3998 31.8748 13.4249C31.8668 13.4497 31.8542 13.4749 31.8481 13.5016L30.8533 18.2582C30.7594 18.7087 31.0486 19.15 31.4991 19.2439C31.633 19.2717 31.7715 19.2664 31.9023 19.2282L36.5692 17.8683C36.591 17.8614 36.6093 17.8489 36.6299 17.8416C36.6508 17.834 36.6726 17.8233 36.6951 17.8122C36.7886 17.7699 36.8732 17.71 36.945 17.6364L43.3334 10.7322V36.5813L38.4918 41.6648H21.2841ZM48.3334 48.3313H34.444L48.3334 33.7481V48.3313Z" fill="black"/>
            <path d="M39.2299 46.1506C39.3589 46.4619 39.6629 46.6649 40.0001 46.6649H45.8332C46.2936 46.6649 46.6667 46.2918 46.6667 45.8317V39.9983C46.6667 39.5379 46.2932 39.1652 45.8332 39.1652C45.6123 39.1652 45.4002 39.2529 45.2442 39.4093L39.4107 45.2424C39.1723 45.4808 39.101 45.8394 39.2299 46.1506ZM45 42.0098V44.9982H42.0116L45 42.0098Z" fill="black"/>
            <path d="M36.6665 31.665H30.8334V22.4983C30.8323 22.277 30.7442 22.0649 30.5882 21.9082L25.5882 16.9082C25.2628 16.5828 24.7353 16.5828 24.4099 16.9082L19.4099 21.9082C19.2547 22.0653 19.1673 22.2774 19.1666 22.4983V31.665H13.3335C12.8731 31.665 12.5 32.0381 12.5 32.4981C12.5 32.9586 12.8731 33.3316 13.3335 33.3316H36.6669C37.1269 33.3316 37.5 32.9586 37.5 32.4981C37.5 32.0381 37.1269 31.665 36.6665 31.665ZM25 18.6763L27.9884 21.6648H22.0116L25 18.6763ZM20.8332 23.3314H29.1668V31.665H20.8332V23.3314Z" fill="black"/>
            <path d="M24.1665 13.3315H25.8335V14.9982H24.1665V13.3315Z" fill="black"/>
            <path d="M24.1665 34.9983H25.8335V36.6649H24.1665V34.9983Z" fill="black"/>
        </g>
        <defs>
            <clipPath id="clip0">
                <rect width="50" height="50" fill="white"/>
            </clipPath>
        </defs>
    </symbol>
    <symbol id="contract" viewBox="0 0 50 50" fill="none" xmlns="http://www.w3.org/2000/svg">
        <path d="M47.8225 10.7576L46.6104 10.3788C46.3073 10.303 46.0043 10.2273 45.6255 10.2273C44.2619 10.2273 43.0498 11.1363 42.5952 12.4242L41.9134 14.4696V12.9545V12.8788C41.9134 12.6515 41.7619 12.4242 41.6104 12.2727L29.1862 0.227291C29.0346 0.0757635 28.8074 0 28.6558 0H4.33765C3.88307 0 3.58012 0.303054 3.58012 0.757535V3.106H0.777066C0.322485 3.106 0.0195312 3.40906 0.0195312 3.86354V49.2424C0.0195312 49.6969 0.322585 49.9999 0.777066 49.9999H37.5952C38.0498 49.9999 38.3528 49.6968 38.3528 49.2424V46.8939H41.1558C41.6104 46.8939 41.9133 46.5908 41.9133 46.1364V35.9091L44.0345 33.0303L44.1103 32.803L49.7921 14.6969C50.3983 13.0303 49.4892 11.2879 47.8225 10.7576ZM29.4134 2.57576L39.3376 12.1213H29.4134V2.57576ZM36.8377 48.4848H1.5346V4.62117H3.58001V46.1364C3.58001 46.5909 3.88307 46.8939 4.33755 46.8939H36.8376V48.4848H36.8377ZM40.474 45.3788H40.3983H5.09518V1.51517H27.8982V12.8788C27.8982 13.3334 28.2012 13.6363 28.6557 13.6363H40.4739V19.3182L36.9133 30.5303V30.7576L37.0649 40.3788C37.0649 40.6819 37.2922 40.9849 37.5952 41.0606C37.8983 41.1364 38.277 41.0606 38.4285 40.7576L40.4739 38.0303V45.3788H40.474ZM38.5043 38.0303L38.3528 31.7424L42.1406 32.9545L38.5043 38.0303ZM48.4286 14.2424L42.974 31.591L38.58 30.1516L44.0346 12.8788C44.3377 12.0455 45.2467 11.5152 46.08 11.8182L47.2921 12.197C48.2013 12.4242 48.7316 13.4091 48.4286 14.2424Z" fill="black"/>
        <path d="M10.2468 13.6364H21.1559C21.6105 13.6364 21.9135 13.3333 21.9135 12.8789V5.15158C21.9135 4.697 21.6104 4.39404 21.1559 4.39404H10.2468C9.79221 4.39404 9.48926 4.6971 9.48926 5.15158V12.8789C9.48926 13.2577 9.86808 13.6364 10.2468 13.6364ZM11.0044 5.90911H20.3984V12.1212H11.0044V5.90911Z" fill="black"/>
        <path d="M8.73166 20.7576H31.7619C32.2165 20.7576 32.5195 20.4546 32.5195 20.0001C32.5195 19.5455 32.2164 19.2426 31.7619 19.2426H8.73166C8.27707 19.2426 7.97412 19.5456 7.97412 20.0001C7.97402 20.4546 8.27707 20.7576 8.73166 20.7576Z" fill="black"/>
        <path d="M8.73166 26.2879H31.7619C32.2165 26.2879 32.5195 25.9848 32.5195 25.5304C32.5195 25.0759 32.2164 24.7728 31.7619 24.7728H8.73166C8.27707 24.7728 7.97412 25.0759 7.97412 25.5304C7.97412 25.9848 8.27707 26.2879 8.73166 26.2879Z" fill="black"/>
        <path d="M8.73166 31.8182H31.7619C32.2165 31.8182 32.5195 31.5151 32.5195 31.0606C32.5195 30.6062 32.2164 30.3031 31.7619 30.3031H8.73166C8.27707 30.3031 7.97412 30.6062 7.97412 31.0606C7.97412 31.5151 8.27707 31.8182 8.73166 31.8182Z" fill="black"/>
        <path d="M32.4437 36.5909C32.4437 36.1363 32.1407 35.8334 31.6862 35.8334H8.73166C8.27707 35.8334 7.97412 36.1364 7.97412 36.5909C7.97412 37.0454 8.27718 37.3484 8.73166 37.3484H31.762C32.1407 37.3484 32.4437 36.9696 32.4437 36.5909Z" fill="black"/>
        <path d="M34.9435 41.3636H23.5041C23.0495 41.3636 22.7466 41.6667 22.7466 42.1212C22.7466 42.5757 23.0496 42.8787 23.5041 42.8787H34.8677C35.3223 42.8787 35.6253 42.5757 35.6253 42.1212C35.6253 41.6667 35.3223 41.3636 34.9435 41.3636Z" fill="black"/>
    </symbol>
    <symbol id="production" viewBox="0 0 50 50" fill="none">
        <path d="M43.1429 43.1965H42.225V40.5508C42.225 40.1035 41.8624 39.7408 41.415 39.7408H37.2866L27.5134 34.8542C27.5294 34.7394 27.5382 34.6224 27.5382 34.5032C27.5382 34.3841 27.5294 34.2671 27.5134 34.1523L37.4577 29.1801C37.732 29.043 37.9054 28.7625 37.9054 28.4557C37.9054 28.1489 37.7321 27.8685 37.4577 27.7313L27.5133 22.7592C27.5293 22.6444 27.5381 22.5273 27.5381 22.4082C27.5381 22.2891 27.5293 22.172 27.5133 22.0572L37.4576 17.0851C37.7319 16.9479 37.9053 16.6675 37.9053 16.3607C37.9053 16.0539 37.732 15.7735 37.4576 15.6363L27.5133 10.664C27.5293 10.5492 27.5381 10.4323 27.5381 10.3132C27.5381 10.1941 27.5293 10.077 27.5133 9.9622L37.2865 5.07559H41.415C41.8624 5.07559 42.225 4.71296 42.225 4.26566V0.809935C42.225 0.362635 41.8624 0 41.415 0H8.58565C8.13824 0 7.77571 0.362635 7.77571 0.809935V4.26566C7.77571 4.71296 8.13824 5.07559 8.58565 5.07559H12.714L22.4873 9.9622C22.4713 10.077 22.4624 10.1941 22.4624 10.3132C22.4624 10.4323 22.4713 10.5494 22.4873 10.6641L12.543 15.6363C12.2687 15.7734 12.0953 16.0539 12.0953 16.3607C12.0953 16.6675 12.2686 16.9479 12.543 17.0851L22.4873 22.0572C22.4713 22.172 22.4624 22.2891 22.4624 22.4082C22.4624 22.5273 22.4713 22.6444 22.4873 22.7592L12.543 27.7313C12.2687 27.8685 12.0953 28.1489 12.0953 28.4557C12.0953 28.7625 12.2686 29.043 12.543 29.1801L22.4873 34.1523C22.4713 34.2671 22.4624 34.3841 22.4624 34.5032C22.4624 34.6224 22.4713 34.7394 22.4873 34.8542L12.714 39.7408H8.58565C8.13824 39.7408 7.77571 40.1035 7.77571 40.5508V43.1965H6.85779C6.41038 43.1965 6.04785 43.5592 6.04785 44.0065V49.1901C6.04785 49.6374 6.41038 50 6.85779 50H43.1429C43.5903 50 43.9528 49.6374 43.9528 49.1901V44.0065C43.9528 43.5592 43.5903 43.1965 43.1429 43.1965ZM24.0824 34.5032C24.0824 33.9971 24.4942 33.5853 25.0003 33.5853C25.5065 33.5853 25.9183 33.9971 25.9183 34.5032C25.9183 35.0094 25.5065 35.4212 25.0003 35.4212C24.4942 35.4212 24.0824 35.0094 24.0824 34.5032ZM24.0824 22.4082C24.0824 21.9021 24.4942 21.4903 25.0003 21.4903C25.5065 21.4903 25.9183 21.9021 25.9183 22.4082C25.9183 22.9144 25.5065 23.3261 25.0003 23.3261C24.4942 23.3261 24.0824 22.9144 24.0824 22.4082ZM24.0824 10.3132C24.0824 9.80702 24.4942 9.39525 25.0003 9.39525C25.5065 9.39525 25.9183 9.80702 25.9183 10.3132C25.9183 10.8193 25.5065 11.2311 25.0003 11.2311C24.4942 11.2311 24.0824 10.8193 24.0824 10.3132ZM9.39558 1.61987H40.6051V3.45572H9.39558V1.61987ZM33.6644 5.07559L26.7879 8.51382C26.329 8.05767 25.697 7.77538 25.0003 7.77538C24.3037 7.77538 23.6717 8.05767 23.2126 8.51382L16.3363 5.07559H33.6644ZM23.2128 12.1125C23.6718 12.5686 24.3037 12.851 25.0003 12.851C25.6971 12.851 26.329 12.5686 26.788 12.1125L35.2842 16.3607L26.7879 20.6089C26.329 20.1527 25.697 19.8704 25.0003 19.8704C24.3037 19.8704 23.6717 20.1527 23.2126 20.6089L14.7164 16.3607L23.2128 12.1125ZM23.2126 24.2076C23.6717 24.6636 24.3036 24.946 25.0003 24.946C25.6971 24.946 26.329 24.6637 26.788 24.2076L35.2844 28.4557L26.788 32.7039C26.329 32.2477 25.697 31.9654 25.0003 31.9654C24.3037 31.9654 23.6717 32.2477 23.2128 32.7039L14.7164 28.4557L23.2126 24.2076ZM23.2126 36.3026C23.6717 36.7586 24.3036 37.041 25.0003 37.041C25.6971 37.041 26.329 36.7587 26.788 36.3026L33.6644 39.7408H16.3363L23.2126 36.3026ZM9.39558 41.3607H12.9037C12.9044 41.3607 12.9052 41.3608 12.906 41.3608C12.9069 41.3608 12.9078 41.3607 12.9088 41.3607H37.092C37.093 41.3607 37.0939 41.3608 37.0948 41.3608C37.0956 41.3608 37.0963 41.3607 37.0971 41.3607H40.6051V43.1965H9.39558V41.3607ZM42.3329 48.3801H7.66772V44.8164H42.3329V48.3801Z" fill="black"/>
    </symbol>
    <symbol id="install" viewBox="0 0 50 50" fill="none">
        <path d="M48.214 6.25H24.9997V0.892857C24.9997 0.4 24.6006 0 24.1069 0H15.1783C14.6845 0 14.2854 0.4 14.2854 0.892857V4.40536C14.2828 4.44464 14.2828 4.48214 14.2854 4.52143V6.25H1.78544C1.29169 6.25 0.892578 6.65 0.892578 7.14286V14.2857C0.892578 14.7786 1.29169 15.1786 1.78544 15.1786H6.24972V39.2857H3.57115C3.0774 39.2857 2.67829 39.6857 2.67829 40.1786V43.75H1.78544C1.29169 43.75 0.892578 44.15 0.892578 44.6429V49.1071C0.892578 49.6 1.29169 50 1.78544 50H12.4997C12.9935 50 13.3926 49.6 13.3926 49.1071V44.6429C13.3926 44.15 12.9935 43.75 12.4997 43.75H11.6069V40.1786C11.6069 39.6857 11.2078 39.2857 10.714 39.2857H8.03543V15.1786H14.2854V21.3821C14.2828 21.4214 14.2828 21.4589 14.2854 21.4982V30.3205C14.2828 30.3598 14.2828 30.3973 14.2854 30.4366V39.2491C14.2836 39.2705 14.2747 39.2911 14.2756 39.3134C14.2756 39.3348 14.2845 39.3554 14.2854 39.3777V48.1902C14.2828 48.2295 14.2828 48.267 14.2854 48.3063V49.1071C14.2854 49.6 14.6845 50 15.1783 50H24.1069C24.6006 50 24.9997 49.6 24.9997 49.1071V15.1786H41.0711V25.9304H41.0783C41.0988 26.4045 41.4836 26.7857 41.964 26.7857C43.4408 26.7857 44.6426 27.9875 44.6426 29.4643C44.6426 30.9411 43.4408 32.1429 41.964 32.1429C40.4872 32.1429 39.2854 30.9411 39.2854 29.4643C39.2854 28.9714 38.8863 28.5714 38.3926 28.5714C37.8988 28.5714 37.4997 28.9714 37.4997 29.4643C37.4997 31.9259 39.5024 33.9286 41.964 33.9286C44.4256 33.9286 46.4283 31.9259 46.4283 29.4643C46.4283 27.3089 44.8917 25.5054 42.8569 25.0902V15.1786H48.214C48.7078 15.1786 49.1069 14.7786 49.1069 14.2857V7.14286C49.1069 6.65 48.7078 6.25 48.214 6.25ZM11.6069 48.2143H2.67829V45.5357H3.57115H10.714H11.6069V48.2143ZM9.82115 41.0714V43.75H4.46401V41.0714H6.24972H8.03543H9.82115ZM16.0711 7.14286V6.63036L18.3747 8.93393L16.0711 11.2375V7.14286ZM23.214 7.14286V11.2482L20.8997 8.93393L23.214 6.61964V7.14286ZM22.3926 12.9518L19.6372 15.7071L16.8819 12.9518L19.6372 10.1964L22.3926 12.9518ZM16.0711 14.6661L18.3747 16.9696L16.0711 19.2732V14.6661ZM19.6372 18.2321L22.8444 21.4393L19.6363 24.6473L16.4292 21.4402L19.6372 18.2321ZM18.3738 25.9089L16.0711 28.2125V23.6071L18.3738 25.9089ZM19.6363 27.1723L22.8444 30.3795L19.6372 33.5866L16.4292 30.3795L19.6363 27.1723ZM18.3747 34.8491L16.0711 37.1527V32.5455L18.3747 34.8491ZM19.6372 36.1116L22.839 39.3134L19.6372 42.5152L16.4354 39.3134L19.6372 36.1116ZM18.3747 43.7777L16.0711 46.0812V41.4741L18.3747 43.7777ZM19.6372 45.0402L22.8113 48.2143H16.4631L19.6372 45.0402ZM20.8997 43.7777L23.214 41.4634V46.092L20.8997 43.7777ZM20.8997 34.8491L23.214 32.5348V37.1634L20.8997 34.8491ZM20.8988 25.9089L23.214 23.5946V28.2241L20.8988 25.9089ZM20.8997 16.9696L23.214 14.6554V19.2839L20.8997 16.9696ZM23.214 1.78571V4.09464L19.6372 7.67143L16.0711 4.10536V1.78571H23.214ZM2.67829 8.03571H14.2854V12.4411C14.2828 12.4804 14.2828 12.5179 14.2854 12.5571V13.3455C14.2845 13.3616 14.2765 13.3768 14.2765 13.392H2.67829V8.03571ZM47.3211 13.3929H42.8569H41.0711H24.9997V8.03571H47.3211V13.3929Z" fill="black"/>
    </symbol>





</svg>
