<svg width="36" height="36" viewBox="0 0 36 36" fill="none" xmlns="http://www.w3.org/2000/svg">
<g clip-path="url(#clip0)">
<path d="M2.20509 20.3899C2.19755 27.2277 6.64633 33.2724 13.1772 35.2986C19.708 37.3248 26.7967 34.8593 30.6611 29.2179C34.5252 23.5766 34.2628 16.0759 30.0142 10.7181L30.9444 9.78788C31.4133 10.2551 32.1716 10.2548 32.6399 9.78704L33.4889 8.93859C33.9553 8.46943 33.955 7.71169 33.4883 7.24308L30.9433 4.69801C30.4741 4.23192 29.7166 4.2322 29.2478 4.69857L28.3999 5.5473C27.9321 6.01534 27.9318 6.77392 28.3993 7.24253L27.4691 8.17303C25.2014 6.36979 22.4744 5.2375 19.5964 4.90454V3.5981H20.7956C21.4579 3.59726 21.9943 3.06084 21.9952 2.39882V1.19927C21.9943 0.537259 21.4579 0.00083729 20.7956 0H14.7987C14.1367 0.00083729 13.6003 0.537259 13.5994 1.19927V2.39882C13.6003 3.06084 14.1367 3.59726 14.7987 3.5981H15.9983V4.90454C8.14117 5.82612 2.21541 12.4789 2.20509 20.3899ZM17.7973 34.7825C10.0826 34.7828 3.74011 28.6999 3.41832 20.9919C3.09652 13.2841 8.91008 6.69354 16.5978 6.05107C16.9938 6.01813 17.3929 5.99692 17.7973 5.99692C18.2017 5.99692 18.6008 6.01786 18.9966 6.05107C26.6845 6.69354 32.4978 13.2841 32.1763 20.9919C31.8545 28.6999 25.5118 34.7828 17.7973 34.7825ZM30.0956 5.54674L32.6404 8.09126L31.7923 8.9397L29.2478 6.39519L30.0956 5.54674ZM29.2472 8.0907L30.0965 8.9397L29.2321 9.80406C28.9597 9.51046 28.6767 9.22717 28.3828 8.95506L29.2472 8.0907ZM14.7987 1.19927H20.7956L20.797 2.39882H14.7987V1.19927ZM17.1975 3.5981H18.3971V4.81272C18.1978 4.80519 17.9983 4.79765 17.7973 4.79765C17.5961 4.79765 17.3968 4.80519 17.1975 4.81272V3.5981Z" fill="#00922E"/>
<path d="M27.1263 11.0606C27.1171 11.0513 27.1051 11.0486 27.0956 11.0402C21.9558 5.91515 13.6382 5.91515 8.49836 11.0402C8.48887 11.0486 8.47687 11.0513 8.46766 11.0606C8.45873 11.0695 8.45566 11.0815 8.44729 11.091C3.32226 16.2308 3.32226 24.5487 8.44729 29.6885C8.45566 29.698 8.45845 29.71 8.46766 29.7189C8.47687 29.7281 8.48887 29.7309 8.49836 29.7393C13.6382 34.8643 21.9558 34.8643 27.0956 29.7393C27.1051 29.7312 27.1171 29.7281 27.1263 29.7189C27.1352 29.71 27.1383 29.698 27.1467 29.6885C32.2717 24.5487 32.2717 16.2308 27.1467 11.091C27.1383 11.0815 27.1352 11.0695 27.1263 11.0606ZM25.8299 11.5088L24.5815 12.7572C24.4258 12.9076 24.3633 13.1306 24.418 13.3402C24.4729 13.5501 24.6368 13.7136 24.8464 13.7686C25.056 13.8236 25.279 13.7611 25.4297 13.6051L26.6778 12.357C28.5355 14.4027 29.625 17.0301 29.7604 19.7901H27.9918C27.6605 19.7901 27.392 20.0586 27.392 20.3899C27.392 20.7209 27.6605 20.9894 27.9918 20.9894H29.7604C29.625 23.7493 28.5355 26.3768 26.6781 28.4225L25.4297 27.1744C25.1944 26.9472 24.8204 26.9503 24.589 27.1817C24.3577 27.413 24.3546 27.787 24.5818 28.0223L25.8299 29.2707C23.7841 31.1283 21.1567 32.2179 18.3968 32.3533V30.5847C18.3968 30.2534 18.1283 29.9849 17.797 29.9849C17.4657 29.9849 17.1972 30.2534 17.1972 30.5847V32.3533C14.4372 32.2179 11.8098 31.1283 9.76406 29.271L11.0122 28.0226C11.1682 27.8721 11.2307 27.6491 11.1757 27.4393C11.121 27.2297 10.9572 27.0658 10.7476 27.0111C10.5377 26.9562 10.3147 27.0187 10.1643 27.1747L8.91589 28.4225C7.05851 26.3768 5.96892 23.7493 5.83328 20.9894H7.60219C7.93319 20.9894 8.20168 20.7209 8.20168 20.3899C8.20168 20.0586 7.93319 19.7901 7.60219 19.7901H5.83328C5.96892 17.0301 7.05823 14.4027 8.91589 12.357L10.164 13.6051C10.3147 13.7611 10.5377 13.8236 10.7473 13.7686C10.9569 13.7136 11.1207 13.5501 11.1757 13.3402C11.2304 13.1306 11.1679 12.9076 11.0122 12.7572L9.76406 11.5088C14.315 7.35808 21.279 7.35808 25.8299 11.5088Z" fill="#00922E"/>
<path d="M17.7973 22.7885C19.0044 22.791 20.0245 21.8945 20.1769 20.6969C20.3293 19.4996 19.5662 18.376 18.3971 18.0762V10.1948C18.3971 9.86383 18.1286 9.59534 17.7973 9.59534C17.466 9.59534 17.1976 9.86383 17.1976 10.1948V18.0762C16.0284 18.376 15.2654 19.4996 15.4178 20.6969C15.5702 21.8945 16.5902 22.791 17.7973 22.7885ZM17.7973 19.1904C18.4596 19.1904 18.9966 19.7273 18.9966 20.3899C18.9966 21.0522 18.4596 21.5892 17.7973 21.5892C17.1348 21.5892 16.5978 21.0522 16.5978 20.3899C16.5989 19.7276 17.1353 19.1912 17.7973 19.1904Z" fill="#00922E"/>
</g>
<defs>
<clipPath id="clip0">
<rect width="36" height="36" fill="white"/>
</clipPath>
</defs>
</svg>
