<svg width="30" height="29" viewBox="0 0 30 29" fill="none" xmlns="http://www.w3.org/2000/svg">
<g clip-path="url(#clip0)">
<path fill-rule="evenodd" clip-rule="evenodd" d="M0 0H30V28.7197H0V0ZM3.56068 13.8239L23.6221 6.33981C24.3856 6.05497 25.1748 6.69474 25.007 7.46262L21.5819 23.1392C21.4212 23.8749 20.5199 24.2053 19.887 23.7605L14.7156 20.1266L12.0799 22.7029C11.6173 23.1551 10.8182 22.9721 10.6195 22.3684L8.71695 16.5892L3.61914 15.148C2.95026 14.959 2.91089 14.0663 3.56068 13.8239ZM11.7885 17.7074L21.1069 9.81884C21.33 9.63004 21.0709 9.29654 20.8178 9.44691L9.81378 15.9805C9.62005 16.0955 9.5319 16.3213 9.59951 16.5298L11.0756 21.0831C11.1066 21.1788 11.2522 21.1656 11.2639 21.066L11.6227 18.0129C11.6365 17.8949 11.6956 17.7861 11.7885 17.7074Z" fill="white"/>
</g>
<defs>
<clipPath id="clip0">
<rect width="30" height="28.7197" fill="white"/>
</clipPath>
</defs>
</svg>
