<svg width="40" height="39" viewBox="0 0 40 39" fill="none" xmlns="http://www.w3.org/2000/svg">
<path d="M19.4903 6.64109C16.5109 6.09848 13.4894 6.09848 10.5094 6.64109C9.20598 6.91901 7.56619 8.42331 7.24561 9.63331C6.7124 11.9745 6.7124 14.3479 7.24561 16.6891C7.56619 17.8991 9.20598 19.4034 10.5094 19.6813C10.5097 19.6814 10.51 19.6814 10.5104 19.6815C10.5684 19.6924 10.6108 19.7406 10.6108 19.7972V23.2269C10.6108 23.3983 10.8293 23.4828 10.9537 23.3586L12.6554 21.6867C12.6554 21.6867 14.0114 20.3541 14.2552 20.1145C14.279 20.091 14.312 20.0783 14.346 20.0792C16.0641 20.1248 17.784 19.9919 19.4903 19.6814C20.7937 19.4035 22.4342 17.8992 22.7541 16.6892C23.288 14.3479 23.288 11.9746 22.7541 9.63337C22.4341 8.42331 20.7944 6.91901 19.4903 6.64109ZM19.5358 16.8637C19.2751 17.3936 18.8958 17.8344 18.3486 18.1158C18.1942 18.1952 18.0097 18.2209 17.8355 18.2722C17.6351 18.214 17.4441 18.1749 17.2668 18.1044C15.4291 17.3745 13.7379 16.4329 12.3982 14.9894C11.6364 14.1685 11.04 13.2418 10.536 12.2611C10.297 11.796 10.0956 11.3127 9.89026 10.8325C9.70298 10.3947 9.9788 9.9423 10.2692 9.61238C10.5416 9.30276 10.8922 9.06581 11.2719 8.89118C11.5683 8.75486 11.8606 8.83345 12.0771 9.07394C12.545 9.59386 12.9748 10.1404 13.3228 10.743C13.5368 11.1137 13.4781 11.5668 13.0902 11.8191C12.996 11.8804 12.9101 11.9524 12.8223 12.0217C12.7452 12.0824 12.6728 12.1437 12.62 12.2259C12.5235 12.3762 12.5189 12.5536 12.581 12.717C13.0593 13.9754 13.8655 14.954 15.1885 15.481C15.4003 15.5653 15.6129 15.6635 15.8567 15.6363C16.2652 15.5906 16.3975 15.1617 16.6837 14.9376C16.9634 14.7186 17.321 14.7157 17.6223 14.8982C17.9238 15.0809 18.216 15.2769 18.5064 15.4751C18.7915 15.6696 19.0754 15.8598 19.3383 16.0815C19.5911 16.2947 19.6781 16.5743 19.5358 16.8637ZM17.163 12.763C17.049 12.765 17.0938 12.7628 17.1372 12.7617C16.9533 12.7555 16.8533 12.6519 16.8336 12.4834C16.8192 12.3603 16.8078 12.2356 16.7771 12.1159C16.7167 11.8801 16.5857 11.6615 16.3786 11.517C16.2807 11.4487 16.1699 11.399 16.0538 11.3669C15.9062 11.3262 15.7531 11.3374 15.6059 11.3028C15.446 11.2654 15.3576 11.1415 15.3827 10.9979C15.4056 10.8673 15.5383 10.7653 15.6874 10.7756C16.6194 10.84 17.2854 11.3013 17.3805 12.3516C17.3872 12.4258 17.3951 12.504 17.3779 12.5749C17.35 12.6902 17.264 12.7502 17.177 12.7611C17.1841 12.7612 17.1827 12.7618 17.163 12.763ZM16.5836 10.3608C16.2976 10.2267 15.9883 10.1434 15.6749 10.0937C15.5379 10.0721 15.3994 10.0589 15.2618 10.0405C15.095 10.0184 15.006 9.91658 15.0138 9.75922C15.0212 9.61175 15.1338 9.50569 15.3016 9.51477C15.8533 9.54476 16.3861 9.65889 16.8765 9.90751C17.8738 10.4131 18.4435 11.2112 18.6098 12.2769C18.6173 12.3252 18.6294 12.373 18.6332 12.4215C18.6427 12.5411 18.6485 12.6609 18.6581 12.8186C18.6542 12.8474 18.6521 12.9149 18.6346 12.9786C18.5708 13.2096 18.2049 13.2385 18.1206 13.0054C18.0957 12.9362 18.0919 12.8574 18.0918 12.783C18.091 12.2956 17.9803 11.8087 17.7236 11.3846C17.4597 10.9489 17.0564 10.5825 16.5836 10.3608ZM19.6651 13.6543C19.4724 13.6565 19.3857 13.5021 19.3732 13.3367C19.3485 13.0093 19.3314 12.6804 19.2842 12.3556C19.0353 10.6414 17.6075 9.22317 15.8253 8.91884C15.5571 8.87303 15.2825 8.86099 15.0109 8.8337C14.8392 8.81643 14.6142 8.80648 14.5762 8.6021C14.5443 8.43075 14.6953 8.29431 14.8658 8.28555C14.9121 8.28315 14.9587 8.28517 15.0053 8.28536C17.3135 8.34731 15.1461 8.29015 15.0114 8.28567C17.4123 8.35266 19.3836 9.87902 19.8063 12.1521C19.8784 12.5397 19.9041 12.936 19.9361 13.3295C19.9496 13.4949 19.8517 13.6521 19.6651 13.6543Z" fill="white"/>
<path d="M0 0V28.7205H30V0H0ZM24.4879 17.0648L24.4819 17.0875C24.0027 18.9422 21.8422 20.9324 19.8582 21.3464L19.8358 21.3508C18.2315 21.6439 16.6155 21.7901 15 21.7901C14.5246 21.7901 14.0491 21.7759 13.5739 21.7504L11.3828 23.9309C10.8403 24.4716 9.88649 24.1036 9.88649 23.3543V21.2839C7.97648 20.7617 5.97688 18.863 5.51747 17.0874L5.5122 17.0647C4.91974 14.4746 4.91974 11.8479 5.5122 9.25773L5.51747 9.23504C5.99735 7.38035 8.15784 5.39016 10.1412 4.97611L10.1643 4.9717C13.3728 4.38561 16.6266 4.38561 19.8358 4.9717L19.8582 4.97611C21.8422 5.39016 24.0027 7.38035 24.4819 9.23504L24.4879 9.25773C25.0803 11.8479 25.0803 14.4746 24.4879 17.0648Z" fill="white"/>
</svg>
