<svg width="30" height="29" viewBox="0 0 30 29" fill="none" xmlns="http://www.w3.org/2000/svg">
<g clip-path="url(#clip0)">
<path fill-rule="evenodd" clip-rule="evenodd" d="M0 0V28.7197H30V0H0ZM22.49 15.8891C23.1787 16.5323 23.9069 17.1378 24.525 17.8489C24.7981 18.1631 25.0565 18.4872 25.2533 18.8513C25.5328 19.3729 25.2795 19.9444 24.7928 19.9759L21.7681 19.9747C20.9873 20.0361 20.3652 19.7347 19.8405 19.2234C19.4233 18.8163 19.0333 18.3805 18.6305 17.9595C18.4666 17.7862 18.2932 17.6241 18.0872 17.4949C17.674 17.2385 17.3156 17.3164 17.0794 17.7283C16.8392 18.148 16.7828 18.614 16.7606 19.0813C16.7277 19.7635 16.5127 19.9419 15.7975 19.9747C14.2673 20.0426 12.8161 19.82 11.4684 19.0826C10.2781 18.432 9.35703 17.5122 8.55514 16.4722C6.99237 14.4445 5.79547 12.2184 4.72081 9.92832C4.47791 9.41218 4.65534 9.13559 5.24822 9.12561C6.23657 9.10693 7.22453 9.1092 8.2115 9.12435C8.61297 9.13079 8.87934 9.35045 9.0329 9.71352C9.56703 10.97 10.2204 12.1657 11.0405 13.2752C11.2598 13.5704 11.4829 13.8644 11.799 14.0728C12.1493 14.304 12.4171 14.2284 12.5823 13.8528C12.6875 13.6142 12.7335 13.3605 12.7557 13.1054C12.8343 12.2323 12.8437 11.3582 12.7083 10.4876C12.6243 9.94346 12.3029 9.59163 11.7361 9.48874C11.4472 9.43598 11.4905 9.33435 11.6296 9.17579C11.8739 8.90343 12.1036 8.73357 12.5589 8.73357H15.9773C16.5165 8.83425 16.6374 9.06672 16.7107 9.58551L16.7134 13.2224C16.707 13.4234 16.8185 14.0187 17.1951 14.1506C17.4967 14.2461 17.6976 14.0135 17.8787 13.8302C18.6974 12.9985 19.2816 12.0151 19.8036 10.9976C20.0347 10.5502 20.2342 10.0855 20.4284 9.62048C20.5715 9.27634 20.7945 9.10687 21.2 9.11299L24.4912 9.11684C24.5883 9.11684 24.6881 9.11684 24.7838 9.13193C25.3374 9.22358 25.4897 9.45226 25.3176 9.97098C25.0489 10.7837 24.5225 11.4622 24.0095 12.1418C23.4595 12.8692 22.8744 13.5712 22.3285 14.3025C21.8299 14.9722 21.8692 15.3089 22.49 15.8891Z" fill="#88A590"/>
</g>
<defs>
<clipPath id="clip0">
<rect width="30" height="28.7197" fill="white"/>
</clipPath>
</defs>
</svg>
