<svg width="31" height="37" viewBox="0 0 31 37" fill="none" xmlns="http://www.w3.org/2000/svg">
<path d="M26.9005 16.0893L29.0852 12.3052C30.5683 9.73666 30.5683 6.66989 29.0852 4.10192C27.6023 1.53339 24.9463 0 21.9808 0H8.21648C5.25048 0 2.59443 1.5331 1.11214 4.10136C-0.370714 6.66961 -0.370714 9.73666 1.11214 12.3052L3.29677 16.089C3.73149 16.8427 3.70778 17.7689 3.23523 18.5068C1.78653 20.7693 1.02096 23.3906 1.02096 26.0879C1.02096 29.7994 2.43522 32.6384 5.22479 34.526C7.61633 36.1444 11.0306 37 15.0984 37C19.3942 37 22.9409 36.0509 25.3542 34.255C25.5978 34.0738 25.6483 33.7294 25.4671 33.4861C25.2858 33.2425 24.9415 33.1919 24.6978 33.3732C22.4757 35.0268 19.1562 35.9008 15.0984 35.9008C11.2511 35.9008 8.04993 35.1106 5.84102 33.6157C3.37214 31.9448 2.12019 29.4121 2.12019 26.0879C2.12019 23.6012 2.82591 21.1846 4.16085 19.0996C4.85612 18.0147 4.88972 16.6507 4.24892 15.5394L2.33896 12.2315L5.19515 10.5824L6.36693 12.612C7.17229 14.0077 8.85614 14.5906 10.3706 13.9975C11.8766 13.4081 13.467 13.1092 15.0984 13.1092C16.73 13.1092 18.3207 13.4081 19.8267 13.9975C20.2247 14.1533 20.6343 14.2281 21.0368 14.2281C22.1654 14.2281 23.2364 13.641 23.8304 12.612L25.0021 10.5824L27.8583 12.2315L25.9487 15.5394C25.3073 16.6493 25.3406 18.0133 26.0356 19.0993C27.3714 21.1843 28.0771 23.6007 28.0771 26.0879C28.0771 28.4487 27.4408 30.4241 26.1863 31.9592C25.9944 32.1943 26.0291 32.5407 26.2643 32.7327C26.4994 32.9249 26.8458 32.8899 27.0377 32.655C28.4568 30.9181 29.1766 28.7086 29.1766 26.0879C29.1766 23.3901 28.4105 20.7685 26.9615 18.5065C26.489 17.7686 26.4655 16.8421 26.9005 16.0893ZM22.8782 12.0627C22.3464 12.9841 21.2313 13.3672 20.2275 12.9739C18.5934 12.3343 16.8675 12.0099 15.0984 12.0099C13.3293 12.0099 11.6039 12.3343 9.97005 12.9739C8.96567 13.3672 7.85091 12.9841 7.31908 12.0627L5.87236 9.55685C5.38315 8.70942 5.38315 7.6977 5.87236 6.84999C6.1984 6.28485 6.71019 5.85803 7.31316 5.64801C7.59996 5.54808 7.75155 5.23474 7.65162 4.94794C7.55169 4.66113 7.23835 4.50983 6.95154 4.60976C6.09932 4.90644 5.37779 5.50715 4.9202 6.30066C4.32542 7.33101 4.2461 8.53355 4.67969 9.61048L1.8077 11.2689C0.78723 9.15092 0.872198 6.71506 2.06402 4.65097C3.34786 2.42711 5.64794 1.09923 8.21648 1.09923H21.9808C24.5491 1.09923 26.8489 2.42739 28.1333 4.65182C29.3251 6.71562 29.4101 9.1512 28.3896 11.2689L25.5176 9.61076C25.9503 8.53581 25.8719 7.33496 25.2799 6.30602C24.603 5.1286 23.3186 4.39748 21.928 4.39748H9.3157C9.01224 4.39748 8.76609 4.64335 8.76609 4.94709C8.76609 5.25055 9.01224 5.4967 9.3157 5.4967H21.928C22.9262 5.4967 23.8453 6.01668 24.3269 6.85394C24.8141 7.70052 24.8133 8.71111 24.3249 9.55685L22.8782 12.0627Z" fill="#00922E"/>
<path d="M13.7211 24.943L14.876 23.498C14.9259 23.4336 14.9319 23.3681 14.9319 23.3244C14.9319 23.0949 14.6422 22.8707 14.426 22.8707C14.3204 22.8707 14.2414 22.9122 14.1776 23.0017L12.8071 24.8668V23.1488C12.8071 22.9568 12.5858 22.8707 12.3664 22.8707C12.1632 22.8707 11.9258 22.9436 11.9258 23.1488V27.3721C11.9258 27.5677 12.1542 27.6569 12.3664 27.6569C12.5855 27.6569 12.8071 27.5592 12.8071 27.3721V26.1052L13.1385 25.688L14.3456 27.518C14.413 27.6284 14.5225 27.6894 14.6535 27.6894C14.9138 27.6894 15.1789 27.4669 15.1789 27.2487C15.1789 27.188 15.1622 27.1341 15.1303 27.0892L13.7211 24.943Z" fill="#00922E"/>
<path d="M17.3965 23.6479C17.9439 23.6479 18.0353 23.9827 18.054 24.2734C18.0599 24.4594 18.2123 24.5577 18.4946 24.5577C18.7667 24.5577 18.9353 24.4871 18.9353 24.1365C18.9353 23.3791 18.3041 22.8707 17.3641 22.8707C16.048 22.8707 15.8516 23.8141 15.8516 24.3767V26.1896C15.8516 27.1607 16.3981 27.6956 17.39 27.6956C18.3865 27.6956 18.9353 27.1607 18.9353 26.1896V25.4164C18.9353 25.2716 18.8376 25.1251 18.6507 25.1251H17.5461C17.3655 25.1251 17.2678 25.3052 17.2678 25.4748C17.2678 25.6484 17.3635 25.8243 17.5461 25.8243H18.054V26.1896C18.054 26.6664 17.8245 26.9184 17.39 26.9184C16.9539 26.9184 16.7326 26.6731 16.7326 26.1896V24.3767C16.7326 23.8932 16.9562 23.6479 17.3965 23.6479Z" fill="#00922E"/>
<path d="M15.098 18.4413C11.4684 18.4413 8.51562 21.394 8.51562 25.0237C8.51562 28.653 11.4684 31.606 15.098 31.606C18.7274 31.606 21.6801 28.653 21.6801 25.0237C21.6801 21.394 18.7274 18.4413 15.098 18.4413ZM15.098 30.5065C12.0747 30.5065 9.61485 28.047 9.61485 25.0237C9.61485 22.0004 12.0747 19.5405 15.098 19.5405C18.121 19.5405 20.5809 22.0004 20.5809 25.0237C20.5809 28.047 18.1213 30.5065 15.098 30.5065Z" fill="#00922E"/>
</svg>
