<svg width="39" height="49" viewBox="0 0 39 49" fill="none" xmlns="http://www.w3.org/2000/svg">
<path d="M35.5827 21.4978C34.9833 20.6195 34.3131 19.7916 33.5787 19.0226L35.3327 10.6928C36.3431 5.90316 33.2794 1.2013 28.4897 0.190827C27.8879 0.0639476 27.2745 -0.000101383 26.6594 1.20456e-07H12.3141C7.41896 -0.000101383 3.45066 3.96809 3.45056 8.86311C3.45056 9.47691 3.51431 10.089 3.64078 10.6896L5.39477 19.0194C-2.03897 26.8033 -1.75506 39.1396 6.02886 46.5733C6.79785 47.3077 7.62572 47.9779 8.50403 48.5773V48.5806C8.63903 48.6726 8.7986 48.722 8.96202 48.7219H30.0115C30.1749 48.7219 30.3345 48.6726 30.4695 48.5806C39.3602 42.5139 41.6494 30.3884 35.5827 21.4978ZM5.22993 10.355C4.77651 8.22059 5.31427 5.99553 6.69239 4.30376C8.06401 2.6056 10.1311 1.6202 12.3141 1.62406H26.6594C30.6576 1.62396 33.8988 4.86498 33.899 8.86311C33.899 9.36444 33.8469 9.86445 33.7436 10.355L33.53 11.3684H29.9189L30.2137 9.59983C30.5823 7.38796 29.0881 5.29607 26.8762 4.9274C26.6557 4.89066 26.4324 4.87219 26.2087 4.87219H12.7648C10.5224 4.87219 8.70461 6.68992 8.70461 8.93234C8.70461 9.15595 8.72308 9.37926 8.75982 9.59983L9.05459 11.3684H5.44349L5.22993 10.355ZM28.6446 8.93254C28.6446 9.06663 28.6336 9.20041 28.6115 9.33267L27.6996 14.8049C22.4822 12.4285 16.4913 12.4285 11.2739 14.8049L10.362 9.33836C10.1377 8.0118 11.0314 6.75457 12.3579 6.53035C12.4923 6.50762 12.6284 6.49625 12.7648 6.49625H26.2087C27.5542 6.49635 28.6447 7.58711 28.6446 8.93254ZM32.1164 45.1154C31.3886 45.8429 30.5993 46.5062 29.7573 47.0978H9.21294C1.14013 41.4254 -0.805698 30.2828 4.86674 22.21C5.45841 21.368 6.12164 20.5787 6.84911 19.8509C7.04441 19.6576 7.12876 19.3786 7.07324 19.1095V19.1152L5.78535 12.9925H9.325L9.85282 16.1594C9.91829 16.5506 10.2568 16.8374 10.6535 16.8375C10.7878 16.8374 10.9199 16.8042 11.0384 16.7408C16.3154 13.9117 22.6581 13.9117 27.9351 16.7408C28.3301 16.9533 28.8225 16.8053 29.0349 16.4103C29.077 16.332 29.1061 16.2472 29.1207 16.1594L29.6485 12.9925H33.1881L31.9003 19.1095C31.8439 19.3781 31.927 19.6569 32.1211 19.8509C39.0964 26.8288 39.0942 38.1401 32.1164 45.1154Z" fill="#00922E"/>
<path d="M10.5547 31.6692H12.1787C12.1837 27.635 15.4529 24.3658 19.487 24.3609V22.7368C14.5563 22.7426 10.5605 26.7384 10.5547 31.6692Z" fill="#00922E"/>
<path d="M26.7946 31.6692C26.7897 35.7034 23.5205 38.9725 19.4863 38.9775V40.6015C24.4171 40.5957 28.4129 36.5999 28.4187 31.6692H26.7946Z" fill="#00922E"/>
</svg>
