<?xml version="1.0" encoding="utf-8"?>
<!-- Generator: Adobe Illustrator 22.1.0, SVG Export Plug-In . SVG Version: 6.00 Build 0)  -->
<svg version="1.1" id="Capa_1" xmlns="http://www.w3.org/2000/svg" xmlns:xlink="http://www.w3.org/1999/xlink" x="0px" y="0px"
	 viewBox="0 0 520.9 479" style="enable-background:new 0 0 520.9 479;" xml:space="preserve">
<style type="text/css">
	.st0{fill:#00922E;}
</style>
<g>
	<path class="st0" d="M453.1,463V16h38.3V0h-99.5L74.3,49l1.2,15.9h112.9v27.7h-49.1v50.5h-6.8v-37.4H18.4v53.4h0.4V463H0v16h18.8
		h283.3h94.6h56.4h67.8v-16H453.1z M393.1,16h3.6v32.9h-217L393.1,16z M155.3,108.6h82.1v34.5h-82.1L155.3,108.6L155.3,108.6z
		 M34.4,121.8h82.1v21.4H34.4V121.8z M34.8,463V159.1h97.7h6.8h114.1h32.7V463H34.8z M302.1,463V143.1h-48.7V92.6h-49.1V64.9h192.3
		V463H302.1z M412.7,463V19.7h24.4V463H412.7z"/>
	<path class="st0" d="M67.5,277h84.4V175.7H67.5V277z M83.5,191.7h52.4V261H83.5V191.7z"/>
	<path class="st0" d="M67.5,399h84.4V297.8H67.5V399z M83.5,313.8h52.4V383H83.5V313.8z"/>
	<path class="st0" d="M169,277h84.4V175.7H169V277z M185,191.7h52.4V261H185V191.7z"/>
	<path class="st0" d="M169,399h84.4V297.8H169V399z M185,313.8h52.4V383H185V313.8z"/>
</g>
</svg>
