<svg width="39" height="33" viewBox="0 0 39 33" fill="none" xmlns="http://www.w3.org/2000/svg">
<path fill-rule="evenodd" clip-rule="evenodd" d="M30.992 32.9399C30.8095 32.9401 30.6326 32.8765 30.492 32.76L22.677 26.1399H5.35999C3.93502 26.1341 2.57054 25.5634 1.56574 24.553C0.560945 23.5426 -0.00212402 22.175 6.02136e-06 20.75V5.37988C-0.00158856 3.95599 0.561995 2.58977 1.56696 1.58105C2.57193 0.572338 3.93611 0.00370854 5.35999 0H33.1961C34.6199 0.00370854 35.9841 0.572338 36.9891 1.58105C37.994 2.58977 38.5576 3.95599 38.556 5.37988V20.75C38.5582 22.175 37.9951 23.5426 36.9903 24.553C35.9855 25.5634 34.621 26.1341 33.1961 26.1399H31.778V32.1599C31.7774 32.3089 31.7346 32.4547 31.6546 32.5803C31.5746 32.706 31.4607 32.8063 31.326 32.8699C31.2213 32.918 31.1072 32.942 30.992 32.9399ZM5.35999 1.57007C4.35187 1.57325 3.38619 1.97617 2.67475 2.69043C1.96331 3.40469 1.56421 4.37176 1.56501 5.37988V20.75C1.56209 21.7597 1.9602 22.7293 2.67182 23.4456C3.38344 24.1619 4.3503 24.5664 5.35999 24.5701H22.96C23.1427 24.5691 23.3199 24.6328 23.46 24.75L30.206 30.47V25.3499C30.2065 25.1426 30.2893 24.9441 30.4361 24.7979C30.5829 24.6516 30.7818 24.5698 30.989 24.5701H33.189C34.1987 24.5664 35.1656 24.1619 35.8773 23.4456C36.5889 22.7293 36.9869 21.7597 36.984 20.75V5.37988C36.9848 4.37176 36.5857 3.40469 35.8743 2.69043C35.1628 1.97617 34.1972 1.57325 33.189 1.57007H5.35999ZM31.881 8.80005H6.67805C6.46985 8.80005 6.27015 8.71728 6.12293 8.57007C5.97572 8.42285 5.89301 8.22309 5.89301 8.01489C5.89301 7.8067 5.97572 7.60718 6.12293 7.45996C6.27015 7.31275 6.46985 7.22998 6.67805 7.22998H31.878C32.0862 7.22998 32.2859 7.31275 32.4331 7.45996C32.5803 7.60718 32.663 7.8067 32.663 8.01489C32.663 8.22309 32.5803 8.42285 32.4331 8.57007C32.2859 8.71728 32.0862 8.80005 31.878 8.80005H31.881ZM31.881 13.8401H6.67805C6.46852 13.8401 6.26754 13.7568 6.11939 13.6086C5.97124 13.4605 5.88801 13.2596 5.88801 13.05C5.88801 12.8405 5.97124 12.6396 6.11939 12.4915C6.26754 12.3433 6.46852 12.26 6.67805 12.26H31.878C32.0875 12.26 32.2885 12.3433 32.4367 12.4915C32.5848 12.6396 32.668 12.8405 32.668 13.05C32.668 13.2596 32.5848 13.4605 32.4367 13.6086C32.2885 13.7568 32.0875 13.8401 31.878 13.8401H31.881ZM31.881 18.8699H6.67805C6.46985 18.8699 6.27015 18.7874 6.12293 18.6401C5.97572 18.4929 5.89301 18.2932 5.89301 18.085C5.89301 17.8768 5.97572 17.677 6.12293 17.5298C6.27015 17.3826 6.46985 17.3 6.67805 17.3H31.878C32.0862 17.3 32.2859 17.3826 32.4331 17.5298C32.5803 17.677 32.663 17.8768 32.663 18.085C32.663 18.2932 32.5803 18.4929 32.4331 18.6401C32.2859 18.7874 32.0862 18.8699 31.878 18.8699H31.881Z" fill="#1C931E"/>
</svg>
