<svg width="50" height="50" viewBox="0 0 50 50" fill="none" xmlns="http://www.w3.org/2000/svg">
<path d="M47.8225 10.7576L46.6104 10.3788C46.3073 10.303 46.0043 10.2273 45.6255 10.2273C44.2619 10.2273 43.0498 11.1363 42.5952 12.4242L41.9134 14.4696V12.9545V12.8788C41.9134 12.6515 41.7619 12.4242 41.6104 12.2727L29.1862 0.227291C29.0346 0.0757635 28.8074 0 28.6558 0H4.33765C3.88307 0 3.58012 0.303054 3.58012 0.757535V3.106H0.777066C0.322485 3.106 0.0195312 3.40906 0.0195312 3.86354V49.2424C0.0195312 49.6969 0.322585 49.9999 0.777066 49.9999H37.5952C38.0498 49.9999 38.3528 49.6968 38.3528 49.2424V46.8939H41.1558C41.6104 46.8939 41.9133 46.5908 41.9133 46.1364V35.9091L44.0345 33.0303L44.1103 32.803L49.7921 14.6969C50.3983 13.0303 49.4892 11.2879 47.8225 10.7576ZM29.4134 2.57576L39.3376 12.1213H29.4134V2.57576ZM36.8377 48.4848H1.5346V4.62117H3.58001V46.1364C3.58001 46.5909 3.88307 46.8939 4.33755 46.8939H36.8376V48.4848H36.8377ZM40.474 45.3788H40.3983H5.09518V1.51517H27.8982V12.8788C27.8982 13.3334 28.2012 13.6363 28.6557 13.6363H40.4739V19.3182L36.9133 30.5303V30.7576L37.0649 40.3788C37.0649 40.6819 37.2922 40.9849 37.5952 41.0606C37.8983 41.1364 38.277 41.0606 38.4285 40.7576L40.4739 38.0303V45.3788H40.474ZM38.5043 38.0303L38.3528 31.7424L42.1406 32.9545L38.5043 38.0303ZM48.4286 14.2424L42.974 31.591L38.58 30.1516L44.0346 12.8788C44.3377 12.0455 45.2467 11.5152 46.08 11.8182L47.2921 12.197C48.2013 12.4242 48.7316 13.4091 48.4286 14.2424Z" fill="black"/>
<path d="M10.2468 13.6364H21.1559C21.6105 13.6364 21.9135 13.3333 21.9135 12.8789V5.15158C21.9135 4.697 21.6104 4.39404 21.1559 4.39404H10.2468C9.79221 4.39404 9.48926 4.6971 9.48926 5.15158V12.8789C9.48926 13.2577 9.86808 13.6364 10.2468 13.6364ZM11.0044 5.90911H20.3984V12.1212H11.0044V5.90911Z" fill="black"/>
<path d="M8.73166 20.7576H31.7619C32.2165 20.7576 32.5195 20.4546 32.5195 20.0001C32.5195 19.5455 32.2164 19.2426 31.7619 19.2426H8.73166C8.27707 19.2426 7.97412 19.5456 7.97412 20.0001C7.97402 20.4546 8.27707 20.7576 8.73166 20.7576Z" fill="black"/>
<path d="M8.73166 26.2879H31.7619C32.2165 26.2879 32.5195 25.9848 32.5195 25.5304C32.5195 25.0759 32.2164 24.7728 31.7619 24.7728H8.73166C8.27707 24.7728 7.97412 25.0759 7.97412 25.5304C7.97412 25.9848 8.27707 26.2879 8.73166 26.2879Z" fill="black"/>
<path d="M8.73166 31.8182H31.7619C32.2165 31.8182 32.5195 31.5151 32.5195 31.0606C32.5195 30.6062 32.2164 30.3031 31.7619 30.3031H8.73166C8.27707 30.3031 7.97412 30.6062 7.97412 31.0606C7.97412 31.5151 8.27707 31.8182 8.73166 31.8182Z" fill="black"/>
<path d="M32.4437 36.5909C32.4437 36.1363 32.1407 35.8334 31.6862 35.8334H8.73166C8.27707 35.8334 7.97412 36.1364 7.97412 36.5909C7.97412 37.0454 8.27718 37.3484 8.73166 37.3484H31.762C32.1407 37.3484 32.4437 36.9696 32.4437 36.5909Z" fill="black"/>
<path d="M34.9435 41.3636H23.5041C23.0495 41.3636 22.7466 41.6667 22.7466 42.1212C22.7466 42.5757 23.0496 42.8787 23.5041 42.8787H34.8677C35.3223 42.8787 35.6253 42.5757 35.6253 42.1212C35.6253 41.6667 35.3223 41.3636 34.9435 41.3636Z" fill="black"/>
</svg>
