<svg width="38" height="38" viewBox="0 0 38 38" fill="none" xmlns="http://www.w3.org/2000/svg">
<g clip-path="url(#clip0)">
<path d="M27.6833 9.5C22.882 9.5 18.9751 13.4069 18.9751 18.2082C18.9751 23.0098 22.882 26.9168 27.6833 26.9168C32.4847 26.9168 36.3916 23.0098 36.3916 18.2082C36.3916 13.4069 32.4847 9.5 27.6833 9.5ZM27.6833 25.3332C23.755 25.3332 20.5583 22.1366 20.5583 18.2082C20.5583 14.2802 23.755 11.0832 27.6833 11.0832C31.6117 11.0832 34.8083 14.2802 34.8083 18.2082C34.8083 22.1366 31.6117 25.3332 27.6833 25.3332Z" fill="#FEEDAB"/>
<path d="M26.8918 30.0832H21.3504C20.9132 30.0832 20.5586 30.4381 20.5586 30.875V36.4168H3.14183V1.58324H26.8918V7.91676H28.4754V1.58324C28.4754 0.710007 27.7651 0 26.8918 0H3.14183C2.2686 0 1.55859 0.710007 1.55859 1.58324V36.4168C1.55859 37.29 2.2686 38 3.14183 38H23.7254C23.935 38 24.137 37.9168 24.2849 37.7681L28.2434 33.8098C28.3922 33.6617 28.4754 33.4599 28.4754 33.25V28.5H26.8918V30.0832ZM26.8918 32.9224L23.3975 36.4168H22.1418V31.6668H26.8918V32.9224Z" fill="#FEEDAB"/>
<path d="M23.7254 9.50002V7.12502C23.7254 6.68811 23.3705 6.33325 22.9336 6.33325H7.10036C6.66316 6.33325 6.30859 6.68811 6.30859 7.12502V16.625C6.30859 17.0619 6.66316 17.4168 7.10036 17.4168H17.3918V15.8333H7.89183V7.91678H22.1418V9.50002H23.7254Z" fill="#FEEDAB"/>
<path d="M6.3335 20.8096H18.0954V22.6191H6.3335V20.8096Z" fill="#FEEDAB"/>
<path d="M6.3335 25.3333H20.8097V27.1428H6.3335V25.3333Z" fill="#FEEDAB"/>
<path d="M6.3335 29.8572H19.0002V31.6667H6.3335V29.8572Z" fill="#FEEDAB"/>
<path d="M28.4751 14.25H26.8916V17.4168H23.7251V19H26.8916V22.1668H28.4751V19H31.6416V17.4168H28.4751V14.25Z" fill="#FEEDAB"/>
</g>
<defs>
<clipPath id="clip0">
<rect width="38" height="38" fill="white"/>
</clipPath>
</defs>
</svg>
