<svg width="50" height="50" viewBox="0 0 50 50" fill="none" xmlns="http://www.w3.org/2000/svg">
<path d="M48.214 6.25H24.9997V0.892857C24.9997 0.4 24.6006 0 24.1069 0H15.1783C14.6845 0 14.2854 0.4 14.2854 0.892857V4.40536C14.2828 4.44464 14.2828 4.48214 14.2854 4.52143V6.25H1.78544C1.29169 6.25 0.892578 6.65 0.892578 7.14286V14.2857C0.892578 14.7786 1.29169 15.1786 1.78544 15.1786H6.24972V39.2857H3.57115C3.0774 39.2857 2.67829 39.6857 2.67829 40.1786V43.75H1.78544C1.29169 43.75 0.892578 44.15 0.892578 44.6429V49.1071C0.892578 49.6 1.29169 50 1.78544 50H12.4997C12.9935 50 13.3926 49.6 13.3926 49.1071V44.6429C13.3926 44.15 12.9935 43.75 12.4997 43.75H11.6069V40.1786C11.6069 39.6857 11.2078 39.2857 10.714 39.2857H8.03543V15.1786H14.2854V21.3821C14.2828 21.4214 14.2828 21.4589 14.2854 21.4982V30.3205C14.2828 30.3598 14.2828 30.3973 14.2854 30.4366V39.2491C14.2836 39.2705 14.2747 39.2911 14.2756 39.3134C14.2756 39.3348 14.2845 39.3554 14.2854 39.3777V48.1902C14.2828 48.2295 14.2828 48.267 14.2854 48.3063V49.1071C14.2854 49.6 14.6845 50 15.1783 50H24.1069C24.6006 50 24.9997 49.6 24.9997 49.1071V15.1786H41.0711V25.9304H41.0783C41.0988 26.4045 41.4836 26.7857 41.964 26.7857C43.4408 26.7857 44.6426 27.9875 44.6426 29.4643C44.6426 30.9411 43.4408 32.1429 41.964 32.1429C40.4872 32.1429 39.2854 30.9411 39.2854 29.4643C39.2854 28.9714 38.8863 28.5714 38.3926 28.5714C37.8988 28.5714 37.4997 28.9714 37.4997 29.4643C37.4997 31.9259 39.5024 33.9286 41.964 33.9286C44.4256 33.9286 46.4283 31.9259 46.4283 29.4643C46.4283 27.3089 44.8917 25.5054 42.8569 25.0902V15.1786H48.214C48.7078 15.1786 49.1069 14.7786 49.1069 14.2857V7.14286C49.1069 6.65 48.7078 6.25 48.214 6.25ZM11.6069 48.2143H2.67829V45.5357H3.57115H10.714H11.6069V48.2143ZM9.82115 41.0714V43.75H4.46401V41.0714H6.24972H8.03543H9.82115ZM16.0711 7.14286V6.63036L18.3747 8.93393L16.0711 11.2375V7.14286ZM23.214 7.14286V11.2482L20.8997 8.93393L23.214 6.61964V7.14286ZM22.3926 12.9518L19.6372 15.7071L16.8819 12.9518L19.6372 10.1964L22.3926 12.9518ZM16.0711 14.6661L18.3747 16.9696L16.0711 19.2732V14.6661ZM19.6372 18.2321L22.8444 21.4393L19.6363 24.6473L16.4292 21.4402L19.6372 18.2321ZM18.3738 25.9089L16.0711 28.2125V23.6071L18.3738 25.9089ZM19.6363 27.1723L22.8444 30.3795L19.6372 33.5866L16.4292 30.3795L19.6363 27.1723ZM18.3747 34.8491L16.0711 37.1527V32.5455L18.3747 34.8491ZM19.6372 36.1116L22.839 39.3134L19.6372 42.5152L16.4354 39.3134L19.6372 36.1116ZM18.3747 43.7777L16.0711 46.0812V41.4741L18.3747 43.7777ZM19.6372 45.0402L22.8113 48.2143H16.4631L19.6372 45.0402ZM20.8997 43.7777L23.214 41.4634V46.092L20.8997 43.7777ZM20.8997 34.8491L23.214 32.5348V37.1634L20.8997 34.8491ZM20.8988 25.9089L23.214 23.5946V28.2241L20.8988 25.9089ZM20.8997 16.9696L23.214 14.6554V19.2839L20.8997 16.9696ZM23.214 1.78571V4.09464L19.6372 7.67143L16.0711 4.10536V1.78571H23.214ZM2.67829 8.03571H14.2854V12.4411C14.2828 12.4804 14.2828 12.5179 14.2854 12.5571V13.3455C14.2845 13.3616 14.2765 13.3768 14.2765 13.392H2.67829V8.03571ZM47.3211 13.3929H42.8569H41.0711H24.9997V8.03571H47.3211V13.3929Z" fill="black"/>
</svg>
