<?xml version="1.0" encoding="utf-8"?>
<!-- Generator: Adobe Illustrator 22.1.0, SVG Export Plug-In . SVG Version: 6.00 Build 0)  -->
<svg version="1.1" id="Capa_1" xmlns="http://www.w3.org/2000/svg" xmlns:xlink="http://www.w3.org/1999/xlink" x="0px" y="0px"
	 viewBox="0 0 463 463" style="enable-background:new 0 0 463 463;" xml:space="preserve">
<style type="text/css">
	.st0{fill:#00922E;}
</style>
<g>
	<path class="st0" d="M398.9,333.6c-0.1,0-0.2-0.1-0.3-0.1l-76.2-15.2c0.4-8.1-3.3-16.1-10.4-20.9l-11.4-7.6
		C326.4,265,343,226.6,343,183.5c0-8.2-0.6-16.4-1.8-24.5h26.3c4.1,0,7.5-3.4,7.5-7.5s-3.4-7.5-7.5-7.5H359v-8.5
		c0-29.5-10.3-58.2-29-80.9c-3.4-4.2-7.1-8.1-11-11.8v-3.3c0-4.1-3.4-7.5-7.5-7.5c-1.5,0-2.8,0.4-4,1.2c-13.4-10-28.7-17.3-45-21.3
		C260.9,5,254.8,0,247.5,0h-32c-7.3,0-13.4,5-15,11.8c-16.3,4.1-31.6,11.4-45,21.3c-1.2-0.7-2.5-1.2-4-1.2c-4.1,0-7.5,3.4-7.5,7.5
		v3.3c-3.9,3.7-7.6,7.6-11,11.8c-18.7,22.7-29,51.5-29,80.9v8.5h-8.5c-4.1,0-7.5,3.4-7.5,7.5s3.4,7.5,7.5,7.5h26.3
		c-1.2,8.1-1.8,16.3-1.8,24.5c0,43.1,16.6,81.5,42.5,106.3l-11.4,7.6c-7.1,4.7-10.8,12.8-10.4,20.9l-76.2,15.2c-0.1,0-0.2,0-0.3,0.1
		C35.8,340.7,16,366,16,395.2v44.3c0,13,10.5,23.5,23.5,23.5h384c13,0,23.5-10.5,23.5-23.5v-44.3C447,366,427.2,340.7,398.9,333.6z
		 M127,336.3l18.7-3.7l30.1,60.3c1.5,2.9,2.7,5.4,6.5,6c0.4,0.1,0.8,0.1,1.2,0.1c2,0,3.9-0.8,5.3-2.2c2.6-2.5,5.1-4.9,7.6-7
		c10.7,6,22.7,9.2,35.1,9.2c12.4,0,24.4-3.2,35.1-9.2c2.5,2.2,5,4.5,7.6,7c1.4,1.4,3.3,2.2,5.3,2.2c0.4,0,0.8,0,1.2-0.1
		c3.8-0.6,5-3.1,6.5-6l30.1-60.3l26.7,5.3V448H127V336.3z M112,448H95V342.7l17-3.4V448z M231.5,367.5c3.7,1.5,11.8,5.1,21.9,12.1
		c-6.9,2.9-14.3,4.4-21.9,4.4c-7.6,0-15-1.5-21.9-4.4C219.7,372.6,227.8,369,231.5,367.5z M359,340.9l17,3.4V448h-17V340.9z
		 M306.5,320.8c-16,32-24.7,49.4-29.2,58.4c-12.9-11.3-24.6-18.3-32.6-22.2l51.8-51.8l7.1,4.8C307.1,312.3,308.4,317,306.5,320.8z
		 M344,135.5v8.5h-25V64.8C335.1,84.7,344,109.8,344,135.5z M263,144V27.5c15,4.4,29,11.9,41,22V144H263z M215.5,15h32
		c0.3,0,0.5,0.2,0.5,0.5V144h-33V15.5C215,15.2,215.2,15,215.5,15z M159,144V49.5c12-10.1,26-17.6,41-22V144H159z M119,135.5
		c0-25.7,8.9-50.8,25-70.7V144h-13.2c0,0-0.1,0-0.1,0H119V135.5z M326,159c1.3,8,2,16.2,2,24.5c0,0.2,0,0.4,0,0.5
		c-0.2,0-0.3,0-0.5,0H303v-8.5c0-4.1-3.4-7.5-7.5-7.5h-48c-4.1,0-7.5,3.4-7.5,7.5v2.1c-2.6-1-5.5-1.6-8.5-1.6s-5.9,0.6-8.5,1.6v-2.1
		c0-4.1-3.4-7.5-7.5-7.5h-48c-4.1,0-7.5,3.4-7.5,7.5v8.5h-24.5c-0.2,0-0.3,0-0.5,0c0-0.2,0-0.3,0-0.5c0-8.3,0.7-16.5,2-24.5H326z
		 M135.8,199H160v0.5c0,4.1,3.4,7.5,7.5,7.5s7.5-3.4,7.5-7.5V183h9v8.5c0,4.1,3.4,7.5,7.5,7.5s7.5-3.4,7.5-7.5V183h9v16.5
		c0,4.1,3.4,7.5,7.5,7.5s7.5-3.4,7.5-7.5c0-4.7,3.8-8.5,8.5-8.5s8.5,3.8,8.5,8.5c0,4.1,3.4,7.5,7.5,7.5s7.5-3.4,7.5-7.5V183h9v8.5
		c0,4.1,3.4,7.5,7.5,7.5s7.5-3.4,7.5-7.5V183h9v16.5c0,4.1,3.4,7.5,7.5,7.5s7.5-3.4,7.5-7.5V199h24.2c-6.1,59.1-46.7,105-95.7,105
		S141.9,258.1,135.8,199z M231.5,319c13.3,0,26.1-2.9,38-8.1l-38,38l-38-38C205.4,316.1,218.2,319,231.5,319z M159.4,309.9l7.1-4.8
		l51.8,51.8c-8,4-19.8,10.9-32.6,22.2c-4.5-9-13.2-26.4-29.2-58.4C154.6,317,155.9,312.3,159.4,309.9z M31,439.5v-44.3
		c0-22.2,15-41.5,36.6-47l12.4-2.5V448H39.5C34.8,448,31,444.2,31,439.5z M432,439.5c0,4.7-3.8,8.5-8.5,8.5H391V347.3l4.4,0.9
		c21.5,5.5,36.6,24.8,36.6,47V439.5z"/>
	<path class="st0" d="M195.3,261.5c8.9,6,22.1,9.5,36.2,9.5s27.3-3.5,36.2-9.5c3.4-2.3,4.3-7,2-10.4c-2.3-3.4-7-4.3-10.4-2
		c-6.4,4.3-16.8,6.9-27.8,6.9s-21.4-2.6-27.8-6.9c-3.4-2.3-8.1-1.4-10.4,2C191,254.5,191.9,259.1,195.3,261.5z"/>
</g>
</svg>
