<svg width="50" height="50" viewBox="0 0 50 50" fill="none" xmlns="http://www.w3.org/2000/svg">
<g clip-path="url(#clip0)">
<path d="M36.4255 12.5C30.108 12.5 24.9673 17.6407 24.9673 23.9582C24.9673 30.2761 30.108 35.4168 36.4255 35.4168C42.743 35.4168 47.8837 30.2761 47.8837 23.9582C47.8837 17.6407 42.743 12.5 36.4255 12.5ZM36.4255 33.3332C31.2566 33.3332 27.0505 29.1271 27.0505 23.9582C27.0505 18.7897 31.2566 14.5832 36.4255 14.5832C41.5944 14.5832 45.8005 18.7897 45.8005 23.9582C45.8005 29.1271 41.5944 33.3332 36.4255 33.3332Z" fill="#1C1C1C"/>
<path d="M35.384 39.5832H28.0926C27.5173 39.5832 27.0508 40.0501 27.0508 40.625V47.9168H4.13399V2.08321H35.384V10.4168H37.4676V2.08321C37.4676 0.934219 36.533 0 35.384 0H4.13399C2.985 0 2.05078 0.934219 2.05078 2.08321V47.9168C2.05078 49.0658 2.985 50 4.13399 50H31.2176C31.4934 50 31.7593 49.8905 31.9538 49.6948L37.1624 44.4866C37.3581 44.2917 37.4676 44.0262 37.4676 43.75V37.5H35.384V39.5832ZM35.384 43.3189L30.7861 47.9168H29.134V41.6668H35.384V43.3189Z" fill="#1C1C1C"/>
<path d="M31.2176 12.4999V9.37492C31.2176 8.80005 30.7507 8.33313 30.1758 8.33313H9.34258C8.76732 8.33313 8.30078 8.80005 8.30078 9.37492V21.8749C8.30078 22.4498 8.76732 22.9167 9.34258 22.9167H22.884V20.8331H10.384V10.4167H29.134V12.4999H31.2176Z" fill="#1C1C1C"/>
<path d="M8.3335 27.381H23.8097V29.7619H8.3335V27.381Z" fill="#1C1C1C"/>
<path d="M8.3335 33.3334H27.3811V35.7143H8.3335V33.3334Z" fill="#1C1C1C"/>
<path d="M8.3335 39.2858H25.0002V41.6667H8.3335V39.2858Z" fill="#1C1C1C"/>
<path d="M37.4673 18.75H35.3837V22.9168H31.2173V25H35.3837V29.1668H37.4673V25H41.6337V22.9168H37.4673V18.75Z" fill="#1C1C1C"/>
</g>
<defs>
<clipPath id="clip0">
<rect width="50" height="50" fill="white"/>
</clipPath>
</defs>
</svg>
