<?xml version="1.0" encoding="utf-8"?>
<!-- Generator: Adobe Illustrator 22.1.0, SVG Export Plug-In . SVG Version: 6.00 Build 0)  -->
<svg version="1.1" id="Layer_1" xmlns="http://www.w3.org/2000/svg" xmlns:xlink="http://www.w3.org/1999/xlink" x="0px" y="0px"
	 viewBox="0 0 512 512" style="enable-background:new 0 0 512 512;" xml:space="preserve">
<style type="text/css">
	.st0{fill:#00922E;}
</style>
<path class="st0" d="M320.8,271.8c-29.2,0-52.9,23.7-52.9,52.9c0,29.2,23.7,52.9,52.9,52.9c29.2,0,52.9-23.7,52.9-52.9
	C373.7,295.5,350,271.8,320.8,271.8z M320.8,362.5c-20.8,0-37.8-16.9-37.8-37.8c0-20.8,16.9-37.8,37.8-37.8
	c20.8,0,37.8,16.9,37.8,37.8C358.6,345.5,341.6,362.5,320.8,362.5z"/>
<path class="st0" d="M482.5,275.3h-11.6c-2.4-7.5-5.4-14.8-8.9-21.8l8.1-8.2c4.8-4.8,7.5-11.2,7.5-18.1c0-6.8-2.7-13.3-7.5-18.1
	l-33.8-33.8c-10-9.9-26.2-9.9-36.1,0l-8.2,8.2c-7-3.5-14.3-6.5-21.8-8.9v-11.7c0-14.1-11.5-25.5-25.5-25.5h-17
	c-2.2-10.5-11.5-18.4-22.6-18.4h-9.3c-2-6-4.4-11.9-7.2-17.6l6.5-6.5c8.9-9,8.9-23.6,0-32.6L266,33.1c-4.3-4.4-10.1-6.8-16.3-6.8
	c-6.2,0-12,2.4-16.3,6.8l-6.5,6.5c-5.7-2.8-11.6-5.2-17.6-7.2v-9.3c0-12.7-10.3-23.1-23.1-23.1H145c-12.7,0-23.1,10.4-23.1,23.1v10
	c-5.8,2-11.4,4.4-16.8,7.2l-7.2-7.3c-4.4-4.4-10.2-6.8-16.3-6.8c-6.2,0-12,2.4-16.3,6.8L36,62.2c-9,9-9,23.6,0,32.7l8,8
	c-2.5,5.2-4.7,10.6-6.5,16.1H26.1C13.3,118.9,3,129.3,3,142v41.2c0,12.7,10.3,23.1,23.1,23.1h12.2c1.8,5.3,4,10.4,6.4,15.4l-8.7,8.7
	c-4.4,4.3-6.8,10.1-6.8,16.3c0,6.2,2.4,12,6.7,16.3l29.1,29.2c4.4,4.3,10.1,6.7,16.3,6.7c6.2,0,12-2.4,16.3-6.7l8.7-8.7
	c5,2.5,10.1,4.6,15.4,6.5v12.2c0,8.6,4.7,16.1,11.7,20v26.3c0,14.1,11.5,25.5,25.5,25.5h15c2.2,6.6,5,13,8.1,19.3l-10.7,10.7
	c-10,10-10,26.2,0,36.1l33.8,33.8c4.8,4.8,11.2,7.5,18.1,7.5c6.8,0,13.2-2.6,18.1-7.5l10.7-10.7c6.2,3.1,12.6,5.8,19.2,8.1v15.1
	c0,14.1,11.5,25.5,25.5,25.5h47.8c14.1,0,25.5-11.5,25.5-25.5v-14.2c6.9-2.2,13.6-4.9,20.1-8.1l9.9,9.9c9.9,9.9,26.2,10,36.1,0
	l33.7-33.8c4.8-4.8,7.5-11.2,7.5-18.1c0-6.8-2.7-13.3-7.5-18.1l-9-9.1c3.5-6.8,6.5-13.8,8.9-21h12.5c14.1,0,25.5-11.5,25.5-25.5
	v-47.8C508,286.7,496.5,275.3,482.5,275.3z M108.7,267.6c-1.1-0.6-2.4-0.9-3.6-0.9c-2,0-3.9,0.8-5.4,2.2l-12.6,12.6
	c-1.5,1.5-3.5,2.3-5.6,2.3c-2.1,0-4.1-0.8-5.6-2.3l-29.1-29.2c-1.5-1.5-2.3-3.5-2.3-5.6c0-2.1,0.8-4.1,2.3-5.6l12.6-12.7
	c2.4-2.4,2.9-6,1.3-9c-4-7.2-7.2-14.9-9.6-22.9c-1-3.2-3.9-5.4-7.2-5.4H26.1c-4.4,0-7.9-3.6-7.9-7.9V142c0-4.4,3.6-7.9,7.9-7.9h17.1
	c3.4,0,6.4-2.2,7.3-5.5c2.3-8.2,5.5-16.2,9.5-23.7c1.6-2.9,1-6.6-1.3-8.9L46.8,84.1c-3.1-3.1-3.1-8.1,0-11.2l29.1-29.1
	c1.5-1.5,3.5-2.3,5.6-2.3c2.1,0,4.1,0.8,5.6,2.3L98.3,55c2.4,2.4,6.1,2.9,9.1,1.2c7.7-4.3,15.8-7.8,24.3-10.4c3.2-1,5.4-3.9,5.4-7.2
	V23.1c0-4.4,3.6-7.9,7.9-7.9h41.2c4.4,0,7.9,3.6,7.9,7.9V38c0,3.4,2.2,6.4,5.5,7.3c8.7,2.5,17.1,5.9,25,10.2c3,1.6,6.6,1.1,9-1.3
	l10.5-10.5c1.5-1.5,3.5-2.3,5.6-2.3c2.1,0,4.1,0.8,5.6,2.3l29.1,29.1c3.1,3.1,3.1,8.2,0,11.3l-10.4,10.4c-2.4,2.4-2.9,6-1.3,9
	c4.3,7.9,7.8,16.3,10.2,25c0.9,3.3,3.9,5.5,7.3,5.5h14.9c4.4,0,7.9,3.6,7.9,7.9v41.2c0,4.4-3.6,7.9-7.9,7.9h-15.6
	c-3.3,0-6.3,2.2-7.2,5.4c-2.5,8.4-6,16.5-10.4,24.2c-1.7,3-1.2,6.7,1.2,9.1l11.2,11.2c3,3,3,8.2,0,11.2l-29.1,29.2
	c-1.5,1.5-3.5,2.3-5.6,2.3c-2.1,0-4.1-0.8-5.6-2.3l-11.9-11.9c-2.4-2.4-6-2.9-8.9-1.3c-7.5,4-15.4,7.2-23.6,9.5
	c-3.3,0.9-5.5,3.9-5.5,7.3v17.1c0,4.3-3.6,7.9-7.9,7.9H145c-4.4,0-7.9-3.6-7.9-7.9v-17.7c0-3.3-2.2-6.3-5.4-7.2
	C123.7,274.8,116,271.6,108.7,267.6z M492.9,348.6c0,5.7-4.7,10.4-10.4,10.4h-18c-3.3,0-6.3,2.2-7.2,5.4c-3,9.8-7.1,19.4-12.1,28.4
	c-1.7,3-1.2,6.7,1.2,9.1l13,13.1c2,1.9,3,4.6,3,7.3c0,2.8-1.1,5.4-3,7.4l-33.7,33.8c-4.1,4.1-10.7,4.1-14.7,0l-13.7-13.8
	c-2.4-2.4-6-2.9-8.9-1.3c-8.8,4.7-18.1,8.4-27.7,11.1c-3.3,0.9-5.5,3.9-5.5,7.3v19.8c0,5.7-4.7,10.4-10.4,10.4h-47.8
	c-5.7,0-10.4-4.7-10.4-10.4v-20.6c0-3.3-2.2-6.3-5.4-7.2c-9.3-2.8-18.4-6.6-26.8-11.3c-3-1.6-6.6-1.1-9,1.3l-14.6,14.6
	c-1.9,1.9-4.6,3-7.3,3c-2.8,0-5.4-1.1-7.3-3l-33.8-33.8c-4.1-4.1-4.1-10.7,0-14.7l14.6-14.7c2.4-2.4,2.9-6,1.3-9
	c-4.7-8.6-8.5-17.6-11.3-26.8c-1-3.2-3.9-5.4-7.2-5.4h-20.6c-5.7,0-10.4-4.7-10.4-10.4v-23.3h37.5c12.7,0,23.1-10.4,23.1-23.1v-11.5
	c5.5-1.8,10.9-4,16.1-6.5l4.5,4.5c-4.5,11.4-6.8,23.5-6.8,35.9c0,53.9,43.9,97.8,97.8,97.8c53.9,0,97.7-43.9,97.7-97.8
	c0-16.2-4-32.2-11.6-46.3c-2-3.7-6.6-5.1-10.3-3.1c-3.7,2-5.1,6.6-3.1,10.3c6.4,12,9.8,25.5,9.8,39.1c0,45.6-37.1,82.7-82.6,82.7
	c-45.6,0-82.6-37.1-82.6-82.7c0-9.2,1.5-18.2,4.5-26.8c2.2,0.7,4.6,1.1,7,1.1c6.2,0,12-2.4,16.3-6.7l29.1-29.2
	c5.1-5.1,7.3-12.1,6.6-18.8c6.3-1.5,12.6-2.2,19.1-2.2c20.8,0,40.6,7.7,55.9,21.8c1.5,1.3,3.3,2,5.1,2c2,0,4.1-0.8,5.6-2.4
	c2.8-3.1,2.6-7.9-0.4-10.7c-18.1-16.7-41.6-25.8-66.1-25.8c-8.7,0-17.4,1.2-25.8,3.5l-7.2-7.2c2.8-5.5,5.2-11.1,7.2-16.8h10.1
	c12.7,0,23.1-10.4,23.1-23.1v-30.7h16.5c5.7,0,10.4,4.7,10.4,10.4v17.3c0,3.4,2.3,6.4,5.5,7.3c10.1,2.9,19.9,6.9,29.2,12
	c3,1.6,6.6,1.1,9-1.3l12.1-12.1c4.1-4.1,10.7-4,14.7,0l33.8,33.8c2,1.9,3,4.6,3,7.3c0,2.8-1.1,5.4-3.1,7.4l-12.1,12.1
	c-2.4,2.4-2.9,6-1.3,9c5,9.1,9,19,12,29.2c0.9,3.3,3.9,5.5,7.3,5.5h17.3c5.7,0,10.4,4.7,10.4,10.4V348.6z"/>
<path class="st0" d="M165.6,115.9c-25.7,0-46.7,20.9-46.7,46.7c0,25.8,20.9,46.7,46.7,46.7c25.7,0,46.7-20.9,46.7-46.7
	C212.3,136.9,191.3,115.9,165.6,115.9z M165.6,194.2c-17.4,0-31.5-14.2-31.5-31.6s14.1-31.6,31.5-31.6s31.5,14.2,31.5,31.6
	S183,194.2,165.6,194.2z"/>
<path class="st0" d="M250.9,162.6c0-19.3-6.3-37.5-18.1-52.7c-2.6-3.3-7.3-3.9-10.6-1.3s-3.9,7.3-1.3,10.6
	c9.8,12.5,14.9,27.4,14.9,43.3c0,38.7-31.5,70.3-70.2,70.3c-38.7,0-70.3-31.5-70.3-70.3c0-38.8,31.5-70.3,70.3-70.3
	c11.8,0,23.5,3,33.8,8.7c3.7,2,8.3,0.7,10.3-3s0.7-8.3-3-10.3c-12.5-6.9-26.7-10.6-41.1-10.6c-47.1,0-85.4,38.3-85.4,85.4
	c0,47.1,38.3,85.4,85.4,85.4C212.6,248,250.9,209.7,250.9,162.6z"/>
</svg>
