<?xml version="1.0" encoding="utf-8"?>
<!-- Generator: Adobe Illustrator 22.1.0, SVG Export Plug-In . SVG Version: 6.00 Build 0)  -->
<svg version="1.1" id="Capa_1" xmlns="http://www.w3.org/2000/svg" xmlns:xlink="http://www.w3.org/1999/xlink" x="0px" y="0px"
	 viewBox="0 0 463 463" style="enable-background:new 0 0 463 463;" xml:space="preserve">
<style type="text/css">
	.st0{fill:#00922E;}
</style>
<g>
	<path class="st0" d="M423.5,316H423v-24.5c0-4.1-3.4-7.5-7.5-7.5H407v-54.4c0-14-9.4-26.4-22.8-30.3l-25.2-7.2v-11.5
		c5.1-4.4,8-10.8,8-17.7V139h8.5c4.1,0,7.5-3.4,7.5-7.5s-3.4-7.5-7.5-7.5H375v-0.5c0-23.6-17.4-43.3-40-46.9v-1.1
		c0-4.1-3.4-7.5-7.5-7.5s-7.5,3.4-7.5,7.5v1.1c-22.6,3.6-40,23.3-40,46.9v0.5h-0.5c-4.1,0-7.5,3.4-7.5,7.5c0,4.1,3.4,7.5,7.5,7.5
		h8.5v23.9c0,6.8,2.9,13.2,8,17.7v11.5l-25.2,7.2c-13.5,3.8-22.8,16.3-22.8,30.3V316h-9v-40.5c0-4.1-3.4-7.5-7.5-7.5H215v-38.4
		c0-14-9.4-26.4-22.8-30.3l-25.2-7.2v-11.5c5.1-4.4,8-10.8,8-17.7V139h8.5c4.1,0,7.5-3.4,7.5-7.5s-3.4-7.5-7.5-7.5H183v-0.5
		c0-23.6-17.4-43.3-40-46.9v-1.1c0-4.1-3.4-7.5-7.5-7.5s-7.5,3.4-7.5,7.5v1.1c-22.6,3.6-40,23.3-40,46.9v0.5h-0.5
		c-4.1,0-7.5,3.4-7.5,7.5c0,4.1,3.4,7.5,7.5,7.5H96v23.9c0,6.8,2.9,13.2,8,17.7v11.5l-25.2,7.2C65.4,203.2,56,215.6,56,229.6V316
		H39.5C17.7,316,0,333.7,0,355.5S17.7,395,39.5,395h384c21.8,0,39.5-17.7,39.5-39.5S445.3,316,423.5,316z M408,316h-81v-17h81V316z
		 M295,316v-72.5c0-0.3,0.2-0.5,0.5-0.5h64c0.3,0,0.5,0.2,0.5,0.5V284h-40.5c-4.1,0-7.5,3.4-7.5,7.5V316H295z M311.3,191.1
		c3.9,2.6,8.4,3.9,13,3.9h6.3c4.7,0,9.2-1.4,13-3.9l0.3-0.2v7c0,0.1,0,0.1,0,0.2v2c-1.4,1.3-7,4-16.5,4s-15.1-2.7-16.5-4v-9.2
		L311.3,191.1z M303,228v-15.2c5.6,3.9,14.2,6.2,24.5,6.2s18.9-2.3,24.5-6.2V228H303z M392,229.6V284h-17v-40.5
		c0-5.8-3.2-10.9-8-13.6V210l13,3.7C387.1,215.8,392,222.3,392,229.6z M360,123.5v0.5h-0.5H335V91.9C349.3,95.3,360,108.2,360,123.5
		z M295,123.5c0-15.3,10.7-28.2,25-31.6V124h-24.5H295V123.5z M352,139v23.9c0,2.8-1.4,5.5-3.8,7.1l-12.8,8.6
		c-1.4,0.9-3,1.4-4.7,1.4h-6.3c-1.7,0-3.3-0.5-4.7-1.4l-12.8-8.6c-2.4-1.6-3.8-4.2-3.8-7.1V139H352z M263,229.6
		c0-7.3,4.9-13.9,12-15.9l13-3.7v19.9c-4.8,2.6-8,7.7-8,13.6V316h-17V229.6z M224,316h-81v-33h81V316z M103,316v-72.5
		c0-0.3,0.2-0.5,0.5-0.5h64c0.3,0,0.5,0.2,0.5,0.5V268h-32.5c-4.1,0-7.5,3.4-7.5,7.5V316H103z M119.3,191.1c3.9,2.6,8.4,3.9,13,3.9
		h6.3c4.7,0,9.2-1.4,13-3.9l0.3-0.2v7c0,0.1,0,0.1,0,0.2v2c-1.4,1.3-7,4-16.5,4s-15.1-2.7-16.5-4v-9.2L119.3,191.1z M111,228v-15.2
		c5.6,3.9,14.2,6.2,24.5,6.2s18.9-2.3,24.5-6.2V228H111z M200,229.6V268h-17v-24.5c0-5.8-3.2-10.9-8-13.6V210l13,3.7
		C195.1,215.8,200,222.3,200,229.6z M168,123.5v0.5h-0.5H143V91.9C157.3,95.3,168,108.2,168,123.5z M103,123.5
		c0-15.3,10.7-28.2,25-31.6V124h-24.5H103V123.5z M160,139v23.9c0,2.8-1.4,5.5-3.8,7.1l-12.8,8.6c-1.4,0.9-3,1.4-4.7,1.4h-6.3
		c-1.7,0-3.3-0.5-4.7-1.4l-12.8-8.6c-2.4-1.6-3.8-4.2-3.8-7.1V139H160z M71,229.6c0-7.3,4.9-13.9,12-15.9l13-3.7v19.9
		c-4.8,2.6-8,7.7-8,13.6V316H71V229.6z M423.5,380h-384C26,380,15,369,15,355.5S26,331,39.5,331h384c13.5,0,24.5,11,24.5,24.5
		S437,380,423.5,380z"/>
	<path class="st0" d="M231.5,341c-8,0-14.5,6.5-14.5,14.5s6.5,14.5,14.5,14.5s14.5-6.5,14.5-14.5S239.5,341,231.5,341z"/>
	<path class="st0" d="M183.5,341c-8,0-14.5,6.5-14.5,14.5s6.5,14.5,14.5,14.5s14.5-6.5,14.5-14.5S191.5,341,183.5,341z"/>
	<path class="st0" d="M135.5,341c-8,0-14.5,6.5-14.5,14.5s6.5,14.5,14.5,14.5s14.5-6.5,14.5-14.5S143.5,341,135.5,341z"/>
	<path class="st0" d="M39.5,341c-8,0-14.5,6.5-14.5,14.5S31.5,370,39.5,370S54,363.5,54,355.5S47.5,341,39.5,341z"/>
	<path class="st0" d="M87.5,341c-8,0-14.5,6.5-14.5,14.5S79.5,370,87.5,370s14.5-6.5,14.5-14.5S95.5,341,87.5,341z"/>
	<path class="st0" d="M423.5,341c-8,0-14.5,6.5-14.5,14.5s6.5,14.5,14.5,14.5s14.5-6.5,14.5-14.5S431.5,341,423.5,341z"/>
	<path class="st0" d="M375.5,341c-8,0-14.5,6.5-14.5,14.5s6.5,14.5,14.5,14.5s14.5-6.5,14.5-14.5S383.5,341,375.5,341z"/>
	<path class="st0" d="M279.5,341c-8,0-14.5,6.5-14.5,14.5s6.5,14.5,14.5,14.5s14.5-6.5,14.5-14.5S287.5,341,279.5,341z"/>
	<path class="st0" d="M327.5,341c-8,0-14.5,6.5-14.5,14.5s6.5,14.5,14.5,14.5s14.5-6.5,14.5-14.5S335.5,341,327.5,341z"/>
</g>
</svg>
