<?xml version="1.0" encoding="utf-8"?>
<!-- Generator: Adobe Illustrator 22.1.0, SVG Export Plug-In . SVG Version: 6.00 Build 0)  -->
<svg version="1.1" id="Capa_1" xmlns="http://www.w3.org/2000/svg" xmlns:xlink="http://www.w3.org/1999/xlink" x="0px" y="0px"
	 viewBox="0 0 463 463" style="enable-background:new 0 0 463 463;" xml:space="preserve">
<style type="text/css">
	.st0{fill:#00922E;}
</style>
<g>
	<path class="st0" d="M446.8,453.7l-13-51.9c-2.6-10.5-12-17.8-22.8-17.8h-2.7l-131.7-80.5l111.2-68c6.9-4.2,11.2-11.9,11.2-20.1
		s-4.3-15.8-11.2-20.1l-111.2-67.9L408.3,47h23.2c4.1,0,7.5-3.4,7.5-7.5v-32c0-4.1-3.4-7.5-7.5-7.5h-400C27.4,0,24,3.4,24,7.5v32
		c0,4.1,3.4,7.5,7.5,7.5h23.2l131.7,80.5l-111.2,68c-6.9,4.2-11.2,11.9-11.2,20.1s4.3,15.8,11.2,20.1l111.2,67.9L54.7,384H52
		c-10.8,0-20.2,7.3-22.8,17.8l-13,51.9c-0.6,2.2-0.1,4.6,1.4,6.4s3.6,2.9,5.9,2.9h416c2.3,0,4.5-1.1,5.9-2.9
		S447.3,455.9,446.8,453.7z M207,127.5c0-13.5,11-24.5,24.5-24.5s24.5,11,24.5,24.5S245,152,231.5,152S207,141,207,127.5z
		 M246.3,90.9c-4.6-1.9-9.6-2.9-14.8-2.9s-10.2,1-14.8,2.9L144.8,47h173.3L246.3,90.9z M216.7,164.1c4.6,1.9,9.6,2.9,14.8,2.9
		c5.2,0,10.2-1,14.8-2.9l84.1,51.4l-84.1,51.4c-4.6-1.9-9.6-2.9-14.8-2.9s-10.2,1-14.8,2.9l-84.1-51.4L216.7,164.1z M207,303.5
		c0-13.5,11-24.5,24.5-24.5s24.5,11,24.5,24.5S245,328,231.5,328S207,317,207,303.5z M216.7,340.1c4.6,1.9,9.6,2.9,14.8,2.9
		s10.2-1,14.8-2.9l71.8,43.9H144.8L216.7,340.1z M346.9,384l-87-53.1c3.9-4.1,7-9,8.9-14.5L379.5,384H346.9z M384,215.5
		c0,2.9-1.6,5.7-4.1,7.3l-111.1,67.9c-1.9-5.5-5-10.4-8.9-14.5l88.8-54.2c2.2-1.4,3.6-3.8,3.6-6.4c0-2.6-1.4-5-3.6-6.4L260,154.9
		c3.9-4.1,7-9,8.9-14.5l111.1,67.9C382.4,209.8,384,212.6,384,215.5z M268.8,114.6c-1.9-5.5-5-10.4-8.9-14.5l87-53.1h32.6
		L268.8,114.6z M39,32V15h385v17 M116.1,47l87,53.1c-3.9,4.1-7,9-8.9,14.5L83.5,47H116.1z M79,215.5c0-2.9,1.6-5.7,4.1-7.3
		l111.1-67.9c1.9,5.5,5,10.4,8.9,14.5l-88.8,54.2c-2.2,1.4-3.6,3.8-3.6,6.4s1.4,5,3.6,6.4l88.8,54.2c-3.9,4.1-7,9-8.9,14.5
		L83.1,222.8C80.6,221.2,79,218.4,79,215.5z M194.2,316.4c1.9,5.5,5,10.4,8.9,14.5l-87,53.1H83.5L194.2,316.4z M33.1,448l10.6-42.6
		c0.9-3.8,4.3-6.4,8.2-6.4h359c3.9,0,7.3,2.6,8.2,6.4l10.6,42.6H33.1z"/>
	<path class="st0" d="M244,127.5c0-6.9-5.6-12.5-12.5-12.5s-12.5,5.6-12.5,12.5c0,6.9,5.6,12.5,12.5,12.5S244,134.4,244,127.5z"/>
	<path class="st0" d="M244,303.5c0-6.9-5.6-12.5-12.5-12.5s-12.5,5.6-12.5,12.5s5.6,12.5,12.5,12.5S244,310.4,244,303.5z"/>
</g>
</svg>
