<svg width="50" height="50" viewBox="0 0 50 50" fill="none" xmlns="http://www.w3.org/2000/svg">
<path d="M43.1429 43.1965H42.225V40.5508C42.225 40.1035 41.8624 39.7408 41.415 39.7408H37.2866L27.5134 34.8542C27.5294 34.7394 27.5382 34.6224 27.5382 34.5032C27.5382 34.3841 27.5294 34.2671 27.5134 34.1523L37.4577 29.1801C37.732 29.043 37.9054 28.7625 37.9054 28.4557C37.9054 28.1489 37.7321 27.8685 37.4577 27.7313L27.5133 22.7592C27.5293 22.6444 27.5381 22.5273 27.5381 22.4082C27.5381 22.2891 27.5293 22.172 27.5133 22.0572L37.4576 17.0851C37.7319 16.9479 37.9053 16.6675 37.9053 16.3607C37.9053 16.0539 37.732 15.7735 37.4576 15.6363L27.5133 10.664C27.5293 10.5492 27.5381 10.4323 27.5381 10.3132C27.5381 10.1941 27.5293 10.077 27.5133 9.9622L37.2865 5.07559H41.415C41.8624 5.07559 42.225 4.71296 42.225 4.26566V0.809935C42.225 0.362635 41.8624 0 41.415 0H8.58565C8.13824 0 7.77571 0.362635 7.77571 0.809935V4.26566C7.77571 4.71296 8.13824 5.07559 8.58565 5.07559H12.714L22.4873 9.9622C22.4713 10.077 22.4624 10.1941 22.4624 10.3132C22.4624 10.4323 22.4713 10.5494 22.4873 10.6641L12.543 15.6363C12.2687 15.7734 12.0953 16.0539 12.0953 16.3607C12.0953 16.6675 12.2686 16.9479 12.543 17.0851L22.4873 22.0572C22.4713 22.172 22.4624 22.2891 22.4624 22.4082C22.4624 22.5273 22.4713 22.6444 22.4873 22.7592L12.543 27.7313C12.2687 27.8685 12.0953 28.1489 12.0953 28.4557C12.0953 28.7625 12.2686 29.043 12.543 29.1801L22.4873 34.1523C22.4713 34.2671 22.4624 34.3841 22.4624 34.5032C22.4624 34.6224 22.4713 34.7394 22.4873 34.8542L12.714 39.7408H8.58565C8.13824 39.7408 7.77571 40.1035 7.77571 40.5508V43.1965H6.85779C6.41038 43.1965 6.04785 43.5592 6.04785 44.0065V49.1901C6.04785 49.6374 6.41038 50 6.85779 50H43.1429C43.5903 50 43.9528 49.6374 43.9528 49.1901V44.0065C43.9528 43.5592 43.5903 43.1965 43.1429 43.1965ZM24.0824 34.5032C24.0824 33.9971 24.4942 33.5853 25.0003 33.5853C25.5065 33.5853 25.9183 33.9971 25.9183 34.5032C25.9183 35.0094 25.5065 35.4212 25.0003 35.4212C24.4942 35.4212 24.0824 35.0094 24.0824 34.5032ZM24.0824 22.4082C24.0824 21.9021 24.4942 21.4903 25.0003 21.4903C25.5065 21.4903 25.9183 21.9021 25.9183 22.4082C25.9183 22.9144 25.5065 23.3261 25.0003 23.3261C24.4942 23.3261 24.0824 22.9144 24.0824 22.4082ZM24.0824 10.3132C24.0824 9.80702 24.4942 9.39525 25.0003 9.39525C25.5065 9.39525 25.9183 9.80702 25.9183 10.3132C25.9183 10.8193 25.5065 11.2311 25.0003 11.2311C24.4942 11.2311 24.0824 10.8193 24.0824 10.3132ZM9.39558 1.61987H40.6051V3.45572H9.39558V1.61987ZM33.6644 5.07559L26.7879 8.51382C26.329 8.05767 25.697 7.77538 25.0003 7.77538C24.3037 7.77538 23.6717 8.05767 23.2126 8.51382L16.3363 5.07559H33.6644ZM23.2128 12.1125C23.6718 12.5686 24.3037 12.851 25.0003 12.851C25.6971 12.851 26.329 12.5686 26.788 12.1125L35.2842 16.3607L26.7879 20.6089C26.329 20.1527 25.697 19.8704 25.0003 19.8704C24.3037 19.8704 23.6717 20.1527 23.2126 20.6089L14.7164 16.3607L23.2128 12.1125ZM23.2126 24.2076C23.6717 24.6636 24.3036 24.946 25.0003 24.946C25.6971 24.946 26.329 24.6637 26.788 24.2076L35.2844 28.4557L26.788 32.7039C26.329 32.2477 25.697 31.9654 25.0003 31.9654C24.3037 31.9654 23.6717 32.2477 23.2128 32.7039L14.7164 28.4557L23.2126 24.2076ZM23.2126 36.3026C23.6717 36.7586 24.3036 37.041 25.0003 37.041C25.6971 37.041 26.329 36.7587 26.788 36.3026L33.6644 39.7408H16.3363L23.2126 36.3026ZM9.39558 41.3607H12.9037C12.9044 41.3607 12.9052 41.3608 12.906 41.3608C12.9069 41.3608 12.9078 41.3607 12.9088 41.3607H37.092C37.093 41.3607 37.0939 41.3608 37.0948 41.3608C37.0956 41.3608 37.0963 41.3607 37.0971 41.3607H40.6051V43.1965H9.39558V41.3607ZM42.3329 48.3801H7.66772V44.8164H42.3329V48.3801Z" fill="black"/>
</svg>
