<svg width="85" height="86" viewBox="0 0 85 86" fill="none" xmlns="http://www.w3.org/2000/svg">
<path fill-rule="evenodd" clip-rule="evenodd" d="M79.52 83.22V15.83L42.5 0L5.47998 15.83V83.22H0V86H8.21503V17.66L42.505 3.01001L76.795 17.66V86H85V83.22H79.52ZM12.33 29.2V86H15.08V31.98H69.92V86H72.67V29.2H12.33ZM19.19 66.6V86H41.12V66.6H19.19ZM28.77 69.38H31.52V72.15H28.77V69.38ZM38.39 83.22H21.93V69.38H26.04V74.91H34.27V69.38H38.39V83.22ZM43.87 66.6V86H65.8101V66.6H43.87ZM53.46 69.38H56.21V72.15H53.46V69.38ZM63.0601 83.22H46.6V69.38H50.71V74.91H58.9399V69.38H63.0601V83.22ZM31.52 63.84H53.46V44.4399H31.52V63.84ZM41.12 47.22H43.87V49.99H41.12V47.22ZM34.27 47.22H38.38V52.75H46.6V47.22H50.71V61.0601H34.27V47.22ZM41.12 16.74H43.87V19.52H41.12V16.74ZM46.6 16.74H49.35V19.52H46.6V16.74ZM35.64 16.74H38.39V19.52H35.64V16.74Z" fill="#1C931E"/>
</svg>
