<svg width="82" height="82" viewBox="0 0 82 82" fill="none" xmlns="http://www.w3.org/2000/svg">
<g clip-path="url(#clip0)">
<path fill-rule="evenodd" clip-rule="evenodd" d="M79.219 26.84C77.662 25.12 72.027 22.18 67.131 27.78L63.407 24.0601L60.486 26.99V0.0200195H21.8L0 21.89V81.75H60.486V56.8101L79.219 38.03C79.9543 37.2956 80.5376 36.4234 80.9355 35.4634C81.3335 34.5033 81.5384 33.4743 81.5384 32.4351C81.5384 31.3958 81.3335 30.3666 80.9355 29.4066C80.5376 28.4466 79.9543 27.5744 79.219 26.84ZM21.045 4.52002V21.11H4.5L21.045 4.52002ZM57.869 79.13H2.633V23.75H23.677V2.65002H57.869V29.61L49.474 38.03L51.336 39.89L63.423 27.78L65.285 29.64L33.385 61.6L30.046 76.15L44.558 72.79L57.865 59.45V79.13H57.869ZM35.331 64.88L41.271 70.84L33.55 72.63L35.331 64.88ZM43.887 69.73L36.455 62.28L67.147 31.51L74.58 38.96L43.887 69.73ZM77.357 36.1801L76.426 37.11L68.993 29.66L69.924 28.72C70.9243 27.7623 72.2557 27.2277 73.6405 27.2277C75.0253 27.2277 76.3567 27.7623 77.357 28.72C78.3385 29.7133 78.8889 31.0535 78.8889 32.45C78.8889 33.8464 78.3385 35.1867 77.357 36.1801ZM50.429 53.86L52.291 51.99L54.152 53.86L52.291 55.72L50.429 53.86ZM54.152 50.11L56.013 48.25L57.875 50.11L56.013 51.98L54.152 50.11ZM57.87 46.39L59.731 44.53L61.593 46.39L59.732 48.26L57.87 46.39ZM6.58197 72.53H26.31V75.17H6.58197V72.53ZM38.141 11.89H40.773V14.53H38.141V11.89ZM43.39 11.89H46.022V14.53H43.39V11.89ZM32.875 11.89H35.508V14.53H32.875V11.89ZM6.58197 32.97H44.722V35.61H6.58197V32.97ZM6.58197 46.17H40.773V48.8101H6.58197V46.17ZM6.58197 59.35H30.259V61.99H6.58197V59.35Z" fill="#1C931E"/>
</g>
<defs>
<clipPath id="clip0">
<rect width="81.531" height="81.75" fill="white"/>
</clipPath>
</defs>
</svg>
