<svg width="45" height="27" viewBox="0 0 45 27" fill="none" xmlns="http://www.w3.org/2000/svg">
<path fill-rule="evenodd" clip-rule="evenodd" d="M29.9223 22.8H14.9673C14.7677 22.7979 14.5772 22.7167 14.4376 22.5742C14.2979 22.4317 14.2204 22.2396 14.2223 22.04C14.2199 21.8394 14.2968 21.6459 14.4363 21.5017C14.5759 21.3575 14.7667 21.2742 14.9673 21.27H29.9223C30.1229 21.2742 30.3138 21.3575 30.4533 21.5017C30.5928 21.6459 30.6697 21.8394 30.6673 22.04C30.6692 22.2396 30.5918 22.4317 30.4521 22.5742C30.3124 22.7167 30.1218 22.7979 29.9223 22.8ZM10.9333 26.95C9.95647 26.9764 8.994 26.711 8.16888 26.1875C7.34376 25.664 6.69352 24.9062 6.30133 24.0112C5.90913 23.1162 5.79275 22.1246 5.96716 21.1631C6.14156 20.2016 6.59883 19.314 7.28039 18.6138C7.96195 17.9135 8.83685 17.4325 9.79327 17.2322C10.7497 17.0318 11.7441 17.1212 12.6494 17.489C13.5547 17.8569 14.3297 18.4865 14.8753 19.2971C15.4209 20.1078 15.7124 21.0629 15.7123 22.04C15.7265 23.3239 15.2317 24.5611 14.3361 25.4812C13.4406 26.4013 12.2171 26.9294 10.9333 26.95ZM10.9333 18.6599C10.2609 18.6416 9.59845 18.8243 9.03045 19.1846C8.46246 19.5448 8.01478 20.0664 7.74475 20.6824C7.47471 21.2984 7.39456 21.981 7.51452 22.6428C7.63448 23.3046 7.94914 23.9157 8.41821 24.3977C8.88728 24.8798 9.48946 25.2109 10.1478 25.3489C10.8061 25.4869 11.4905 25.4252 12.1137 25.1721C12.7369 24.919 13.2704 24.4857 13.646 23.9277C14.0216 23.3698 14.2222 22.7126 14.2223 22.04C14.2324 21.1562 13.8921 20.3044 13.2757 19.6709C12.6593 19.0374 11.817 18.6739 10.9333 18.6599ZM33.9563 26.95C32.9795 26.976 32.0172 26.7103 31.1924 26.1865C30.3675 25.6628 29.7176 24.9048 29.3257 24.0098C28.9338 23.1147 28.8178 22.1232 28.9924 21.1619C29.1671 20.2005 29.6244 19.3131 30.3061 18.613C30.9877 17.913 31.8627 17.4321 32.819 17.2319C33.7754 17.0318 34.7697 17.1213 35.6749 17.4893C36.5801 17.8572 37.355 18.4867 37.9005 19.2974C38.446 20.108 38.7374 21.0629 38.7373 22.04C38.7517 23.3237 38.2573 24.5609 37.3621 25.481C36.4669 26.4011 35.2439 26.9291 33.9603 26.95H33.9563ZM33.9563 18.6599C33.284 18.642 32.6217 18.825 32.054 19.1855C31.4862 19.5461 31.0389 20.0678 30.7692 20.6838C30.4994 21.2999 30.4195 21.9823 30.5397 22.644C30.6599 23.3057 30.9747 23.9166 31.4439 24.3984C31.9131 24.8803 32.5153 25.2113 33.1735 25.3491C33.8318 25.4869 34.5162 25.4253 35.1392 25.1721C35.7623 24.9189 36.2956 24.4857 36.6711 23.9277C37.0467 23.3698 37.2473 22.7126 37.2473 22.04C37.2577 21.1565 36.9177 20.3048 36.3017 19.6714C35.6857 19.0379 34.8438 18.6741 33.9603 18.6599H33.9563ZM29.9283 22.8H14.9693C14.7698 22.7979 14.5793 22.7167 14.4396 22.5742C14.2999 22.4317 14.2224 22.2396 14.2243 22.04C14.2219 21.8394 14.2988 21.6459 14.4384 21.5017C14.5779 21.3575 14.7687 21.2742 14.9693 21.27H29.9283C30.129 21.2742 30.3198 21.3575 30.4593 21.5017C30.5988 21.6459 30.6758 21.8394 30.6733 22.04C30.6752 22.2396 30.5978 22.4317 30.4581 22.5742C30.3184 22.7167 30.1279 22.7979 29.9283 22.8ZM40.9553 22.8H37.9883C37.8895 22.7991 37.7918 22.7787 37.7008 22.74C37.6098 22.7013 37.5274 22.6451 37.4582 22.5745C37.3891 22.5039 37.3345 22.4203 37.2976 22.3286C37.2607 22.2369 37.2422 22.1389 37.2433 22.04C37.2409 21.8394 37.3178 21.6459 37.4573 21.5017C37.5969 21.3575 37.7877 21.2742 37.9883 21.27H40.9603C41.5161 21.2629 42.0463 21.0358 42.4349 20.6384C42.8234 20.241 43.0387 19.7057 43.0333 19.1499V16.1899C43.0305 15.0998 42.6054 14.0533 41.8473 13.27L38.5053 9.85986C38.4425 9.79568 38.3912 9.72131 38.3533 9.63989L35.6133 3.55005C35.3478 2.9542 34.9168 2.44695 34.3715 2.08887C33.8262 1.73079 33.1896 1.53692 32.5373 1.53003H3.8493C3.21451 1.54056 2.60979 1.80213 2.16748 2.25757C1.72516 2.71301 1.48129 3.32513 1.48931 3.95996V19.1499C1.48289 19.7064 1.69702 20.243 2.0849 20.6421C2.47277 21.0412 3.00286 21.2706 3.55932 21.28H6.89129C7.09083 21.2821 7.28139 21.3634 7.42108 21.5059C7.56077 21.6484 7.63815 21.8405 7.63629 22.04C7.6387 22.2407 7.56182 22.4342 7.4223 22.5784C7.28277 22.7226 7.0919 22.8059 6.89129 22.8101H3.5603C2.60428 22.7924 1.69391 22.3978 1.02722 21.7124C0.360522 21.027 -0.00856128 20.106 0.000300887 19.1499V3.95996C-0.0125302 2.9248 0.385471 1.92683 1.10711 1.18457C1.82875 0.44231 2.81523 0.0163276 3.85034 0H32.5333C33.473 0.00971675 34.3902 0.289057 35.1757 0.804932C35.9612 1.32081 36.582 2.05142 36.9643 2.90991L39.6473 8.86987L42.8953 12.1899C43.936 13.2616 44.5188 14.6961 44.5203 16.1899V19.1499C44.5297 20.1053 44.1605 21.0255 43.4934 21.7095C42.8263 22.3934 41.9156 22.7856 40.9603 22.8H40.9553ZM30.0273 12.29H10.5693C10.3664 12.29 10.1718 12.2094 10.0284 12.0659C9.88491 11.9225 9.80432 11.7278 9.80432 11.5249C9.80432 11.322 9.88491 11.1276 10.0284 10.9841C10.1718 10.8407 10.3664 10.76 10.5693 10.76H30.0273C30.2302 10.76 30.4248 10.8407 30.5682 10.9841C30.7117 11.1276 30.7923 11.322 30.7923 11.5249C30.7923 11.7278 30.7117 11.9225 30.5682 12.0659C30.4248 12.2094 30.2302 12.29 30.0273 12.29Z" fill="#1C931E"/>
</svg>
