<svg width="83" height="85" viewBox="0 0 83 85" fill="none" xmlns="http://www.w3.org/2000/svg">
<g clip-path="url(#clip0)">
<path fill-rule="evenodd" clip-rule="evenodd" d="M58.8983 60.71H46.8483V60.09C49.4975 59.487 52.0239 58.4351 54.3183 56.98L56.6383 59.3199L64.2183 51.6899L61.8883 49.35C63.3354 47.0321 64.3801 44.4862 64.9783 41.8199H68.2683V33.73H73.6283V31.03H70.9483C70.9634 24.2609 68.658 17.6911 64.4163 12.4158C60.1746 7.14047 54.2529 3.47846 47.6383 2.04004C47.2909 1.42447 46.787 0.911576 46.1776 0.553345C45.5683 0.195113 44.8752 0.00421845 44.1684 0H38.8183C38.1114 0.00421845 37.4183 0.195113 36.809 0.553345C36.1996 0.911576 35.6957 1.42447 35.3483 2.04004C28.7338 3.47846 22.8122 7.14047 18.5705 12.4158C14.3288 17.6911 12.0233 24.2609 12.0384 31.03H9.35831V33.73H14.7183V41.8199H18.0183C18.6086 44.4871 19.6502 47.0337 21.0983 49.35L18.7784 51.6899L26.3483 59.3199L28.6784 56.98C30.9692 58.435 33.4923 59.4869 36.1383 60.09V60.71H24.0883C23.8383 60.71 23.5883 60.74 23.3383 60.75L15.8183 53.16C15.9755 52.5423 16.0562 51.9075 16.0584 51.27C16.0709 49.9759 15.7695 48.698 15.1801 47.5458C14.5907 46.3936 13.7308 45.4014 12.674 44.6543C11.6172 43.9072 10.395 43.4273 9.11221 43.2559C7.82941 43.0844 6.52426 43.2266 5.30838 43.67L3.32828 44.39L7.46829 48.5699L5.3483 50.71L1.19827 46.53L0.488312 48.53C0.166616 49.4082 -0.00248949 50.3349 -0.0116885 51.27C-0.0175394 53.407 0.824645 55.459 2.33011 56.9757C3.83557 58.4924 5.88135 59.3499 8.01834 59.36C8.65254 59.3584 9.28408 59.2778 9.89835 59.12L13.8183 63.0601C9.67711 65.0387 6.18072 68.1491 3.73331 72.0317C1.2859 75.9143 -0.012507 80.4104 -0.0116885 85H2.66837C2.66548 82.0997 3.2476 79.2286 4.37991 76.5585C5.51222 73.8884 7.17143 71.474 9.25833 69.46C12.7851 73.8725 14.71 79.3513 14.7183 85H17.3983C17.3938 84.0981 17.3437 83.197 17.2483 82.3H40.1584V85H42.8283V82.3H65.7383C65.6429 83.197 65.5928 84.0981 65.5883 85H68.2683C68.2756 79.3494 70.2045 73.8692 73.7383 69.46C75.8219 71.476 77.4783 73.891 78.6088 76.5608C79.7393 79.2306 80.3206 82.1007 80.3183 85H82.9983C83.0159 78.5854 80.4885 72.4257 75.9705 67.8721C71.4525 63.3185 65.3129 60.7428 58.8983 60.71ZM14.7183 31.03C14.7077 25.0726 16.673 19.2798 20.3065 14.5587C23.9401 9.83764 29.0367 6.45479 34.7984 4.93994V20.24H37.4783V4.05005C37.4772 3.87331 37.5112 3.69804 37.578 3.53442C37.6449 3.37081 37.7433 3.222 37.8678 3.09656C37.9923 2.97112 38.1404 2.87153 38.3035 2.80347C38.4666 2.73541 38.6415 2.70021 38.8183 2.69995H44.1684C44.3451 2.70021 44.52 2.73541 44.6831 2.80347C44.8462 2.87153 44.9943 2.97112 45.1188 3.09656C45.2433 3.222 45.3419 3.37081 45.4087 3.53442C45.4756 3.69804 45.5094 3.87331 45.5083 4.05005V20.24H48.1883V4.93994C53.9499 6.45479 59.0465 9.83764 62.6801 14.5587C66.3136 19.2798 68.279 25.0726 68.2683 31.03H65.9683L64.6283 35.08H18.3583L17.0183 31.03H14.7183ZM53.4683 37.78C53.1595 40.7396 51.7652 43.4798 49.5546 45.4717C47.344 47.4636 44.4739 48.5659 41.4983 48.5659C38.5227 48.5659 35.6526 47.4636 33.442 45.4717C31.2315 43.4798 29.8372 40.7396 29.5284 37.78H53.4683ZM29.2683 54.14L28.3483 53.49L26.3483 55.51L22.5584 51.6899L24.5584 49.6801L23.9184 48.75C22.1511 46.2003 20.9602 43.2964 20.4284 40.24L20.2283 39.13H17.3983V37.78H26.8383C27.1423 41.4577 28.8181 44.8866 31.5329 47.3862C34.2477 49.8858 37.803 51.2734 41.4933 51.2734C45.1836 51.2734 48.739 49.8858 51.4538 47.3862C54.1686 44.8866 55.8443 41.4577 56.1483 37.78H65.5883V39.13H62.7583L62.5584 40.24C62.0266 43.2964 60.8355 46.2003 59.0683 48.75L58.4284 49.6801L60.4284 51.6899L56.6383 55.51L54.6383 53.49L53.7183 54.14C51.1957 55.9155 48.315 57.117 45.2784 57.66L44.1684 57.85V60.71H38.8183V57.85L37.7083 57.66C34.6717 57.117 31.7909 55.9155 29.2683 54.14ZM10.6283 56.03L9.82828 56.3199C9.24994 56.5399 8.63709 56.6552 8.01834 56.66C6.69621 56.6552 5.42234 56.1628 4.4407 55.2771C3.45907 54.3914 2.8386 53.1747 2.69827 51.86L5.3483 54.52L11.2583 48.5699L8.60831 45.9C9.41858 45.9875 10.1981 46.2591 10.8872 46.6941C11.5764 47.1291 12.157 47.7161 12.5845 48.4099C13.012 49.1038 13.2751 49.8862 13.3538 50.6974C13.4324 51.5086 13.3246 52.3269 13.0384 53.09L12.7483 53.89L19.9084 61.1C18.7557 61.3039 17.6193 61.5914 16.5083 61.96L10.6283 56.03ZM40.1584 79.6H16.8383C15.978 75.2507 14.0772 71.1746 11.2984 67.72C14.9794 64.9303 19.4696 63.4172 24.0883 63.41H28.7784L40.1584 78.7V79.6ZM41.4983 76L32.1183 63.41H50.8683L41.4983 76ZM66.1483 79.6H42.8283V78.7L54.2083 63.41H58.8983C63.5173 63.4156 68.008 64.9289 71.6883 67.72C68.9133 71.177 67.013 75.2522 66.1483 79.6ZM20.0683 28.33H62.9184V31.03H20.0683V28.33Z" fill="#1C931E"/>
</g>
<defs>
<clipPath id="clip0">
<rect width="83" height="85" fill="white"/>
</clipPath>
</defs>
</svg>
