<svg width="47" height="47" viewBox="0 0 47 47" fill="none" xmlns="http://www.w3.org/2000/svg">
<path d="M11.4252 19.3686L8.55317 16.4967C8.40829 16.351 8.21073 16.2697 8.00542 16.2697H1.03271C0.719708 16.2697 0.436926 16.4579 0.31684 16.7477C0.196754 17.0374 0.263382 17.3706 0.48496 17.5921L3.0362 20.1434L0.48496 22.6946C0.263382 22.9162 0.196754 23.2494 0.31684 23.5391C0.436926 23.8289 0.719708 24.0171 1.03271 24.0171H8.00542C8.21073 24.0171 8.40829 23.9358 8.55317 23.7901L11.4252 20.9181H26.5993V19.3686H11.4252ZM7.68468 22.4676H2.90294L4.67944 20.6911C4.98236 20.3882 4.98236 19.8986 4.67944 19.5956L2.90294 17.8191H7.68468L10.0089 20.1434L7.68468 22.4676Z" fill="#00922E"/>
<path d="M26.6014 4.64844C18.9477 4.64844 12.5196 10.136 11.3164 17.6975L12.8473 17.9408C13.9296 11.1362 19.7139 6.19793 26.6014 6.19793C34.2907 6.19793 40.5468 12.454 40.5468 20.1434C40.5468 27.8327 34.2907 34.0888 26.6014 34.0888C19.7139 34.0888 13.9296 29.1506 12.8473 22.346L11.3164 22.5892C12.5196 30.1508 18.9477 35.6383 26.6014 35.6383C35.1453 35.6383 42.0963 28.6873 42.0963 20.1434C42.0963 11.5995 35.1453 4.64844 26.6014 4.64844Z" fill="#00922E"/>
<path d="M26.5965 7.74744C20.7247 7.74744 15.616 11.9187 14.4492 17.665L15.9677 17.9733C16.9888 12.946 21.4584 9.29693 26.5965 9.29693C32.5775 9.29693 37.4429 14.1623 37.4429 20.1434C37.4429 26.1244 32.5775 30.9898 26.5965 30.9898C21.4584 30.9898 16.9888 27.3408 15.9677 22.3134L14.4492 22.6218C15.616 28.3681 20.7247 32.5393 26.5965 32.5393C33.4313 32.5393 38.9924 26.9782 38.9924 20.1434C38.9924 13.3086 33.4313 7.74744 26.5965 7.74744Z" fill="#00922E"/>
<path d="M26.5981 13.1707C23.7455 13.1707 21.209 14.8813 20.1367 17.5278L21.5731 18.1104C22.4075 16.0512 24.38 14.7201 26.5981 14.7201C29.5886 14.7201 32.0213 17.1536 32.0213 20.1434C32.0213 23.1331 29.5886 25.5666 26.5981 25.5666C24.38 25.5666 22.4075 24.2356 21.5731 22.1763L20.1367 22.7589C21.209 25.4055 23.7455 27.1161 26.5981 27.1161C30.4424 27.1161 33.5708 23.9884 33.5708 20.1434C33.5708 16.2983 30.4424 13.1707 26.5981 13.1707Z" fill="#00922E"/>
<path d="M26.599 16.2697C25.6732 16.2697 24.7714 16.6129 24.0586 17.2358L25.0782 18.4025C25.3826 18.136 25.894 17.8191 26.599 17.8191C27.8804 17.8191 28.9232 18.862 28.9232 20.1434C28.9232 21.4248 27.8804 22.4676 26.599 22.4676C25.894 22.4676 25.3826 22.1508 25.0789 21.8843L24.0594 23.051C24.7714 23.6739 25.6732 24.0171 26.599 24.0171C28.7349 24.0171 30.4727 22.2794 30.4727 20.1434C30.4727 18.0074 28.7349 16.2697 26.599 16.2697Z" fill="#00922E"/>
<path d="M46.7428 20.1434C46.7428 9.03587 37.7062 0 26.5994 0C17.7007 0 9.74865 5.964 7.26249 14.504L8.75001 14.9371C11.0448 7.05407 18.3848 1.54949 26.5994 1.54949C36.8516 1.54949 45.1933 9.89119 45.1933 20.1434C45.1933 30.3956 36.8516 38.7373 26.5994 38.7373C18.3848 38.7373 11.0448 33.2328 8.74923 25.3505L7.26172 25.7836C8.72754 30.8171 12.1008 34.9434 16.4386 37.4931L13.641 43.6469C13.3489 44.2892 13.3574 45.0213 13.6634 45.6574C13.9695 46.2934 14.5381 46.756 15.2238 46.9279C15.419 46.976 15.6143 47 15.8064 47C16.6873 47 17.507 46.5088 17.9176 45.6884L21.0243 39.4757C22.8117 39.994 24.6803 40.2868 26.5994 40.2868C28.5765 40.2868 30.4863 39.9955 32.2938 39.4617L35.4059 45.686C35.8165 46.5073 36.6362 46.9977 37.5171 46.9977C37.71 46.9977 37.9053 46.9744 38.1005 46.9249C38.7854 46.7536 39.354 46.2911 39.6601 45.655C39.9669 45.0205 39.9746 44.2868 39.6825 43.6446L36.8718 37.4598C42.7761 33.9455 46.7428 27.5004 46.7428 20.1434ZM16.5331 44.9934C16.3596 45.3397 15.9722 45.514 15.6011 45.4234C15.3601 45.363 15.168 45.2072 15.0603 44.9833C14.9526 44.7602 14.9495 44.5138 15.0526 44.2884L17.8068 38.2283C18.3724 38.5049 18.9503 38.7544 19.5415 38.9783L16.5331 44.9934ZM38.2725 44.2876C38.3748 44.5131 38.3717 44.7602 38.2647 44.9826C38.1571 45.2065 37.9649 45.3622 37.7255 45.4218C37.349 45.5202 36.9663 45.3397 36.792 44.9926L33.7759 38.9597C34.367 38.7335 34.945 38.4817 35.5074 38.2028L38.2725 44.2876Z" fill="#00922E"/>
<path d="M30.4753 41.8363H28.9258V43.3858H30.4753V41.8363Z" fill="#00922E"/>
<path d="M27.3737 41.8363H25.8242V43.3858H27.3737V41.8363Z" fill="#00922E"/>
<path d="M24.2761 41.8363H22.7266V43.3858H24.2761V41.8363Z" fill="#00922E"/>
</svg>
