<svg width="46" height="46" viewBox="0 0 46 46" fill="none" xmlns="http://www.w3.org/2000/svg">
<g clip-path="url(#clip0)">
<path d="M28.7863 23C28.7863 19.8045 26.1847 17.2123 22.9986 17.2123C19.8126 17.2123 17.2109 19.8045 17.2109 23C17.2109 26.1955 19.8126 28.7877 22.9986 28.7877C26.1847 28.7877 28.7863 26.1955 28.7863 23ZM22.9986 26.5254C21.0568 26.5254 19.4732 24.9418 19.4732 23C19.4732 21.0582 21.0568 19.4746 22.9986 19.4746C24.9404 19.4746 26.524 21.0582 26.524 23C26.524 24.9418 24.9404 26.5254 22.9986 26.5254Z" fill="#00922E"/>
<path d="M14.6194 21.8689C13.9973 21.8689 13.4883 22.3779 13.4883 23.0001C13.4883 23.6222 13.9973 24.1312 14.6194 24.1312C15.2416 24.1312 15.7506 23.6222 15.7506 23.0001C15.7506 22.3779 15.2416 21.8689 14.6194 21.8689Z" fill="#00922E"/>
<path d="M9.78516 23.0001C9.78516 23.6222 10.2942 24.1312 10.9163 24.1312C11.5384 24.1312 12.0475 23.6222 12.0475 23.0001C12.0475 22.3779 11.5384 21.8689 10.9163 21.8689C10.2942 21.8689 9.78516 22.3779 9.78516 23.0001Z" fill="#00922E"/>
<path d="M8.34221 23C8.34221 20.7 6.46639 18.8242 4.16639 18.8242C1.86639 18.8242 0 20.7 0 23C0 25.3 1.87582 27.1758 4.17582 27.1758C6.47582 27.1758 8.34221 25.3 8.34221 23ZM4.17582 24.9136C3.12008 24.9136 2.2623 24.0558 2.2623 23C2.2623 21.9443 3.12008 21.0865 4.17582 21.0865C5.23156 21.0865 6.08934 21.9443 6.08934 23C6.08934 24.0558 5.22213 24.9136 4.17582 24.9136Z" fill="#00922E"/>
<path d="M35.0843 24.1312C35.709 24.1312 36.2154 23.6248 36.2154 23.0001C36.2154 22.3753 35.709 21.8689 35.0843 21.8689C34.4596 21.8689 33.9531 22.3753 33.9531 23.0001C33.9531 23.6248 34.4596 24.1312 35.0843 24.1312Z" fill="#00922E"/>
<path d="M31.3811 24.1312C32.0033 24.1312 32.5123 23.6222 32.5123 23.0001C32.5123 22.3779 32.0033 21.8689 31.3811 21.8689C30.759 21.8689 30.25 22.3779 30.25 23.0001C30.25 23.6222 30.759 24.1312 31.3811 24.1312Z" fill="#00922E"/>
<path d="M41.8243 18.8242C39.5243 18.8242 37.6484 20.7 37.6484 23C37.6484 25.3 39.5243 27.1758 41.8243 27.1758C44.1243 27.1758 46.0001 25.3 46.0001 23C46.0001 20.7 44.1243 18.8242 41.8243 18.8242ZM41.8243 24.9136C40.7685 24.9136 39.9107 24.0558 39.9107 23C39.9107 21.9443 40.7685 21.0865 41.8243 21.0865C42.88 21.0865 43.7378 21.9443 43.7378 23C43.7378 24.0558 42.88 24.9136 41.8243 24.9136Z" fill="#00922E"/>
<path d="M22.9983 30.2488C22.3762 30.2488 21.8672 30.7578 21.8672 31.3799C21.8672 32.0021 22.3762 32.5111 22.9983 32.5111C23.6205 32.5111 24.1295 32.0021 24.1295 31.3799C24.1295 30.7578 23.6205 30.2488 22.9983 30.2488Z" fill="#00922E"/>
<path d="M22.9983 33.9534C22.3762 33.9534 21.8672 34.4624 21.8672 35.0845C21.8672 35.7066 22.3762 36.2157 22.9983 36.2157C23.6205 36.2157 24.1295 35.7066 24.1295 35.0845C24.1295 34.4624 23.6205 33.9534 22.9983 33.9534Z" fill="#00922E"/>
<path d="M23 37.6578C20.7 37.6578 18.8242 39.5337 18.8242 41.8337C18.8242 44.1337 20.7 46 23 46C25.3 46 27.1759 44.1242 27.1759 41.8242C27.1759 39.5242 25.3 37.6578 23 37.6578ZM23 43.7378C21.9443 43.7378 21.0865 42.88 21.0865 41.8242C21.0865 40.7685 21.9443 39.9107 23 39.9107C24.0558 39.9107 24.9136 40.7685 24.9136 41.8242C24.9136 42.88 24.0558 43.7378 23 43.7378Z" fill="#00922E"/>
<path d="M22.9983 15.7513C23.6205 15.7513 24.1295 15.2423 24.1295 14.6202C24.1295 13.998 23.6205 13.489 22.9983 13.489C22.3762 13.489 21.8672 13.998 21.8672 14.6202C21.8672 15.2423 22.3762 15.7513 22.9983 15.7513Z" fill="#00922E"/>
<path d="M22.9983 12.0467C23.6231 12.0467 24.1295 11.5403 24.1295 10.9156C24.1295 10.2909 23.6231 9.78442 22.9983 9.78442C22.3736 9.78442 21.8672 10.2909 21.8672 10.9156C21.8672 11.5403 22.3736 12.0467 22.9983 12.0467Z" fill="#00922E"/>
<path d="M23 8.34221C25.3 8.34221 27.1759 6.46639 27.1759 4.16639C27.1759 1.86639 25.3 0 23 0C20.7 0 18.8242 1.87582 18.8242 4.17582C18.8242 6.47582 20.7 8.34221 23 8.34221ZM23 2.2623C24.0558 2.2623 24.9136 3.12008 24.9136 4.17582C24.9136 5.23156 24.0558 6.08934 23 6.08934C21.9443 6.08934 21.0865 5.23156 21.0865 4.17582C21.0865 3.12008 21.9443 2.2623 23 2.2623Z" fill="#00922E"/>
<path d="M16.2776 28.1278C15.8346 28.5708 15.8346 29.2872 16.2776 29.7303C16.7206 30.1733 17.437 30.1733 17.8801 29.7303C18.3231 29.2872 18.3231 28.5708 17.8801 28.1278C17.4276 27.6848 16.7112 27.6848 16.2776 28.1278Z" fill="#00922E"/>
<path d="M14.4593 32.6714C15.084 32.6714 15.5904 32.1649 15.5904 31.5402C15.5904 30.9155 15.084 30.4091 14.4593 30.4091C13.8346 30.4091 13.3281 30.9155 13.3281 31.5402C13.3281 32.1649 13.8346 32.6714 14.4593 32.6714Z" fill="#00922E"/>
<path d="M6.74258 33.3594C5.11185 34.9902 5.11185 37.6295 6.74258 39.2602C8.37332 40.891 11.0127 40.891 12.6434 39.2602C14.2741 37.6295 14.2741 34.9902 12.6434 33.3594C11.0127 31.7381 8.3639 31.7381 6.74258 33.3594ZM11.0409 37.6672C10.2963 38.4119 9.08972 38.4119 8.34504 37.6672C7.60037 36.9225 7.60037 35.716 8.34504 34.9713C9.08972 34.2266 10.2963 34.2266 11.0409 34.9713C11.7856 35.7065 11.7856 36.9225 11.0409 37.6672Z" fill="#00922E"/>
<path d="M31.5374 15.5909C32.1621 15.5909 32.6685 15.0845 32.6685 14.4598C32.6685 13.835 32.1621 13.3286 31.5374 13.3286C30.9127 13.3286 30.4062 13.835 30.4062 14.4598C30.4062 15.0845 30.9127 15.5909 31.5374 15.5909Z" fill="#00922E"/>
<path d="M28.9319 18.2021C29.5566 18.2021 30.0631 17.6957 30.0631 17.071C30.0631 16.4463 29.5566 15.9398 28.9319 15.9398C28.3072 15.9398 27.8008 16.4463 27.8008 17.071C27.8008 17.6957 28.3072 18.2021 28.9319 18.2021Z" fill="#00922E"/>
<path d="M39.2606 12.6406C40.8913 11.0099 40.8913 8.37051 39.2606 6.73978C37.6299 5.10904 34.9905 5.10904 33.3598 6.73978C31.729 8.37051 31.729 11.0099 33.3598 12.6406C34.9905 14.2713 37.6393 14.2619 39.2606 12.6406ZM34.9622 8.33281C35.7069 7.58814 36.9135 7.58814 37.6581 8.33281C38.4028 9.07748 38.4028 10.284 37.6581 11.0287C36.9135 11.7734 35.7069 11.7734 34.9622 11.0287C34.2176 10.2935 34.2176 9.07748 34.9622 8.33281Z" fill="#00922E"/>
<path d="M31.5374 32.6714C32.1621 32.6714 32.6685 32.1649 32.6685 31.5402C32.6685 30.9155 32.1621 30.4091 31.5374 30.4091C30.9127 30.4091 30.4062 30.9155 30.4062 31.5402C30.4062 32.1649 30.9127 32.6714 31.5374 32.6714Z" fill="#00922E"/>
<path d="M28.1292 28.1278C27.6861 28.5708 27.6861 29.2872 28.1292 29.7303C28.5722 30.1733 29.2886 30.1733 29.7316 29.7303C30.1746 29.2872 30.1746 28.5708 29.7316 28.1278C29.2886 27.6848 28.5722 27.6848 28.1292 28.1278Z" fill="#00922E"/>
<path d="M33.3598 33.3594C31.729 34.9902 31.729 37.6295 33.3598 39.2602C34.9905 40.891 37.6299 40.891 39.2606 39.2602C40.8913 37.6295 40.8913 34.9902 39.2606 33.3594C37.6393 31.7381 34.9905 31.7381 33.3598 33.3594ZM37.6676 37.6672C36.9229 38.4119 35.7163 38.4119 34.9717 37.6672C34.227 36.9225 34.227 35.716 34.9717 34.9713C35.7163 34.2266 36.9229 34.2266 37.6676 34.9713C38.4122 35.7065 38.4122 36.9225 37.6676 37.6672Z" fill="#00922E"/>
<path d="M17.0686 18.2021C17.6934 18.2021 18.1998 17.6957 18.1998 17.071C18.1998 16.4463 17.6934 15.9398 17.0686 15.9398C16.4439 15.9398 15.9375 16.4463 15.9375 17.071C15.9375 17.6957 16.4439 18.2021 17.0686 18.2021Z" fill="#00922E"/>
<path d="M14.4593 15.5909C15.084 15.5909 15.5904 15.0845 15.5904 14.4598C15.5904 13.835 15.084 13.3286 14.4593 13.3286C13.8346 13.3286 13.3281 13.835 13.3281 14.4598C13.3281 15.0845 13.8346 15.5909 14.4593 15.5909Z" fill="#00922E"/>
<path d="M12.6434 12.6406C14.2741 11.0099 14.2741 8.37051 12.6434 6.73978C11.0127 5.10904 8.37332 5.10904 6.74258 6.73978C5.11185 8.37051 5.11185 11.0099 6.74258 12.6406C8.3639 14.2619 11.0127 14.2619 12.6434 12.6406ZM8.33562 8.33281C9.08029 7.58814 10.2868 7.58814 11.0315 8.33281C11.7762 9.07748 11.7762 10.284 11.0315 11.0287C10.2868 11.7734 9.08029 11.7734 8.33562 11.0287C7.59095 10.2935 7.59095 9.07748 8.33562 8.33281Z" fill="#00922E"/>
</g>
<defs>
<clipPath id="clip0">
<rect width="46" height="46" fill="white"/>
</clipPath>
</defs>
</svg>
